<svg xmlns="http://www.w3.org/2000/svg" width="198" height="32" viewBox="0 0 198 32">
    <g fill="none" fill-rule="evenodd">
        <path fill="#3CA6E3" d="M15.31 20.108a4.216 4.216 0 0 1-1.814-.616l-6.314 5.477a4.082 4.082 0 0 1 1.211 2.902c0 2.28-1.878 4.129-4.196 4.129C1.879 32 0 30.151 0 27.871c0-2.28 1.879-4.13 4.197-4.13 1.144 0 2.181.451 2.938 1.182l5.441-6.207A4.075 4.075 0 0 1 11.541 16c0-2.28 1.879-4.129 4.197-4.129 2.317 0 4.196 1.849 4.196 4.129 0 2.093-1.582 3.822-3.635 4.092l-.54 3.514-.448-3.498zm12.066 0a4.213 4.213 0 0 1-2.443-1.096l-6.502 5.693a4.094 4.094 0 0 1 1.503 3.166c0 2.28-1.879 4.129-4.196 4.129-2.318 0-4.197-1.849-4.197-4.129 0-2.28 1.879-4.13 4.197-4.13 1.02 0 1.957.36 2.684.956l5.8-6.542A4.06 4.06 0 0 1 23.608 16c0-2.28 1.878-4.129 4.196-4.129C30.121 11.871 32 13.72 32 16c0 2.093-1.583 3.822-3.635 4.092l-.54 3.514-.449-3.498zm0-11.871a4.215 4.215 0 0 1-2.021-.754l-6.512 5.647 5.658-6.453a4.07 4.07 0 0 1-.894-2.548c0-2.28 1.878-4.129 4.196-4.129C30.121 0 32 1.849 32 4.129c0 2.093-1.583 3.822-3.635 4.092l-.54 3.514-.449-3.498zM27.803 32c-2.318 0-4.196-1.849-4.196-4.129 0-2.28 1.878-4.13 4.196-4.13 2.318 0 4.197 1.85 4.197 4.13S30.121 32 27.803 32zM39 31L50.978 1h5.333L68.29 31h-5.967l-2.963-7.843H47.93L44.968 31H39zm13.544-20.1l-2.709 7.2h7.619l-2.709-7.2a53.746 53.746 0 0 1-1.1-3.257l-1.1 3.257zM71.591 31V1h5.587v30H71.59zm28.95 0l-6.856-12.171h-4.74V31h-5.588V1h12.656c3.245 0 5.813.764 7.703 2.293 1.89 1.528 2.836 3.593 2.836 6.193 0 4.257-2.257 7.2-6.772 8.828L106.933 31h-6.391zM88.945 5.971v7.886h7.069c3.301 0 4.952-1.314 4.952-3.943 0-2.628-1.65-3.943-4.952-3.943h-7.069zM108.711 31l11.978-30h5.333L138 31h-5.968l-2.963-7.843h-11.428L114.678 31h-5.967zm13.544-20.1l-2.709 7.2h7.619l-2.71-7.2a53.746 53.746 0 0 1-1.1-3.257l-1.1 3.257z"/>
        <path fill="#FFF" d="M145 18.654V1.346h5.31c2.869 0 5.184.742 6.946 2.225 1.762 1.484 2.642 3.627 2.642 6.429 0 2.802-.88 4.945-2.642 6.429-1.762 1.483-4.077 2.225-6.946 2.225H145zm5.537-3.017c1.845 0 3.305-.482 4.378-1.446 1.074-.964 1.611-2.361 1.611-4.191 0-1.83-.537-3.227-1.61-4.19-1.074-.965-2.534-1.447-4.38-1.447h-2.214v11.274h2.215zm10.645 3.017l7.122-17.308h3.17l7.123 17.308h-3.549l-1.761-4.525h-6.795l-1.762 4.525h-3.548zm8.053-11.596l-1.61 4.154h4.53l-1.611-4.154a30.375 30.375 0 0 1-.655-1.88l-.654 1.88zM198 10c0 2.588-.86 4.735-2.58 6.44-1.72 1.707-3.88 2.56-6.48 2.56-2.6 0-4.76-.853-6.48-2.56-1.72-1.705-2.58-3.852-2.58-6.44 0-2.588.86-4.735 2.58-6.44 1.72-1.707 3.88-2.56 6.48-2.56 2.6 0 4.76.853 6.48 2.56C197.14 5.264 198 7.411 198 10zm-9.06 5.984c1.644 0 3.003-.54 4.077-1.62 1.074-1.08 1.61-2.534 1.61-4.364s-.536-3.284-1.61-4.364-2.433-1.62-4.077-1.62c-1.644 0-3.003.54-4.077 1.62-1.074 1.08-1.61 2.534-1.61 4.364s.536 3.284 1.61 4.364 2.433 1.62 4.077 1.62zM149.52 28.847h-3.797c.024.461.179.84.463 1.137.284.297.658.445 1.12.445.39 0 .703-.085.941-.255.238-.17.44-.41.607-.722l.528.294c-.45.836-1.152 1.254-2.103 1.254-.636 0-1.175-.215-1.617-.644-.441-.43-.662-.97-.662-1.621s.222-1.192.667-1.621c.445-.43.991-.644 1.64-.644.68 0 1.218.199 1.616.596.399.398.598.914.598 1.548v.233zm-2.213-1.807c-.402 0-.735.114-1 .342a1.641 1.641 0 0 0-.529.912h3.02a1.191 1.191 0 0 0-.481-.916 1.628 1.628 0 0 0-1.01-.338zm7.207.925v2.914h-.722v-2.793c0-.328-.1-.579-.301-.752-.201-.173-.468-.26-.802-.26-.364 0-.678.132-.94.394-.263.263-.394.607-.394 1.033v2.378h-.722v-4.288h.722v.752c.167-.271.385-.484.653-.64.269-.155.567-.233.894-.233.451 0 .833.125 1.144.376.312.25.468.624.468 1.12zm5.207-1.374l-1.853 4.288h-.723l-1.852-4.288h.778l1.436 3.51 1.436-3.51h.778zm.778 4.288v-4.288h.723v4.288h-.723zm-.074-5.032V25h.87v.847h-.87zm4.576.666l-.12.631a1.21 1.21 0 0 0-.361-.052c-.328 0-.604.134-.83.402-.225.268-.338.616-.338 1.042v2.343h-.722v-4.288h.722v.778c.297-.6.742-.9 1.334-.9.1 0 .204.015.315.044zm5.337 2.222a2.1 2.1 0 0 1-.366 1.228 2.284 2.284 0 0 1-.904.782c-.358.17-.735.255-1.13.255-.395 0-.772-.085-1.13-.255-.358-.17-.66-.43-.903-.782a2.1 2.1 0 0 1-.366-1.228 2.1 2.1 0 0 1 .366-1.228c.244-.351.545-.612.903-.782.358-.17.735-.255 1.13-.255.395 0 .772.085 1.13.255.359.17.66.43.904.782a2.1 2.1 0 0 1 .366 1.228zm-2.4 1.66c.47 0 .863-.157 1.181-.471.318-.314.477-.71.477-1.19 0-.478-.159-.874-.477-1.188a1.615 1.615 0 0 0-1.18-.471c-.47 0-.864.157-1.182.471-.318.314-.477.71-.477 1.189 0 .478.159.875.477 1.189.318.314.712.47 1.181.47zm7.374-2.43v2.914h-.722v-2.793c0-.328-.1-.579-.301-.752-.2-.173-.468-.26-.802-.26-.364 0-.677.132-.94.394-.262.263-.394.607-.394 1.033v2.378h-.722v-4.288h.722v.752c.167-.271.385-.484.654-.64.268-.155.566-.233.894-.233.45 0 .832.125 1.144.376.312.25.467.624.467 1.12zm7.56-.345v3.259h-.723v-3.017c0-.248-.072-.441-.217-.58-.145-.138-.36-.207-.644-.207-.327 0-.598.122-.81.367-.214.245-.32.619-.32 1.12v2.317h-.723v-2.94c0-.276-.071-.49-.213-.64-.142-.15-.352-.224-.63-.224-.327 0-.6.125-.82.376-.22.25-.329.627-.329 1.128v2.3h-.722v-4.288h.722v.683c.118-.225.298-.415.542-.57.244-.156.517-.234.82-.234.297 0 .557.067.783.203.225.135.381.339.468.61.327-.542.812-.813 1.454-.813.402 0 .729.105.982.315.253.21.38.489.38.835zm5.614 1.227h-3.798c.025.461.179.84.463 1.137.284.297.658.445 1.121.445.39 0 .703-.085.94-.255.238-.17.44-.41.607-.722l.528.294c-.45.836-1.152 1.254-2.103 1.254-.636 0-1.175-.215-1.616-.644-.442-.43-.663-.97-.663-1.621s.223-1.192.667-1.621c.445-.43.992-.644 1.64-.644.68 0 1.218.199 1.617.596.398.398.597.914.597 1.548v.233zm-2.214-1.807c-.401 0-.735.114-1 .342a1.641 1.641 0 0 0-.529.912h3.02a1.191 1.191 0 0 0-.481-.916 1.628 1.628 0 0 0-1.01-.338zm7.208.925v2.914h-.723v-2.793c0-.328-.1-.579-.301-.752-.2-.173-.468-.26-.801-.26-.365 0-.678.132-.94.394-.263.263-.394.607-.394 1.033v2.378h-.723v-4.288h.723v.752c.166-.271.384-.484.653-.64.268-.155.566-.233.894-.233.45 0 .832.125 1.144.376.312.25.468.624.468 1.12zm.972-.838v-.536h.77v-1.159h.722v1.159H197v.536h-1.056v2.593c0 .248.042.426.125.532.083.107.252.16.505.16.105 0 .22-.017.343-.052l.064.562c-.16.052-.364.078-.611.078-.333 0-.608-.09-.824-.272-.217-.182-.325-.474-.325-.878v-2.723h-.769z"/>
    </g>
</svg>
