<svg xmlns="http://www.w3.org/2000/svg" width="83" height="68" viewBox="0 0 83 68">
    <g fill="#4C4C4C" fill-rule="nonzero">
        <path d="M14.45 8.813l-1.655 2.891c-.907-.855-2.123-1.283-3.648-1.283-1.464 0-2.62.487-3.472 1.462-.85.973-1.274 2.32-1.274 4.042 0 3.473 1.654 5.21 4.962 5.21 1.433 0 2.695-.474 3.788-1.423l1.422 3.046c-1.123.7-2.105 1.144-2.946 1.33-.84.185-1.831.278-2.975.278-2.556 0-4.574-.745-6.053-2.233C1.12 20.643.38 18.573.38 15.925c0-2.608.81-4.715 2.427-6.323C4.426 7.994 6.632 7.19 9.425 7.19c1.927 0 3.602.541 5.024 1.623zm10.543 17.903c-.412 1.102-1.296 2.017-2.652 2.743-1.355.727-2.934 1.09-4.738 1.09v-3.416c2.979 0 4.468-.747 4.468-2.242 0-.989-.412-2.504-1.237-4.545L15.655 7.5h4.004l4.515 11.44L28.239 7.5h4.004l-7.25 19.217zm12.306-3.572l-.866 1.222h-2.18V1.33l3.865-.928v7.73a6.352 6.352 0 0 1 3.37-.943c2.422 0 4.375.766 5.86 2.297 1.484 1.53 2.226 3.49 2.226 5.881 0 2.773-.747 4.966-2.242 6.58-1.494 1.612-3.52 2.418-6.076 2.418-1.535 0-2.854-.407-3.957-1.222zm.82-11.702v8.641c.566.67 1.334 1.005 2.303 1.005 1.865 0 3.187-.443 3.964-1.33.779-.886 1.168-2.303 1.168-4.25 0-3.36-1.608-5.04-4.823-5.04-1.144 0-2.015.324-2.613.974zm29.635 5.519H55.928c.072 1.319.525 2.344 1.36 3.076.835.732 1.958 1.098 3.37 1.098 1.763 0 3.103-.459 4.02-1.376l1.5 2.953c-1.361 1.102-3.391 1.654-6.092 1.654-2.525 0-4.522-.74-5.991-2.218-1.468-1.48-2.202-3.543-2.202-6.192 0-2.608.806-4.72 2.418-6.339C55.925 8 57.861 7.19 60.117 7.19c2.402 0 4.329.716 5.782 2.149 1.453 1.433 2.18 3.257 2.18 5.473 0 .474-.108 1.19-.325 2.149zm-11.687-2.907h8.132c-.268-2.422-1.608-3.633-4.02-3.633-2.206 0-3.576 1.211-4.112 3.633zm24.673-2.953a4.056 4.056 0 0 0-2.272-.68c-.897 0-1.693.407-2.39 1.222-.695.814-1.042 1.808-1.042 2.983v9.43H71.17V7.5h3.865v1.515c1.082-1.216 2.52-1.824 4.313-1.824 1.32 0 2.33.201 3.03.603l-1.639 3.308zM40.424 31.99c1.42 0 2.628.5 3.627 1.5 1 .998 1.5 2.207 1.5 3.627s-.5 2.629-1.5 3.629c-.999 1-2.208 1.5-3.627 1.5-1.42 0-2.63-.5-3.63-1.5-.999-1-1.499-2.21-1.499-3.63 0-1.419.5-2.628 1.5-3.627 1-1 2.21-1.5 3.629-1.5zM9.792 47.702v5.303h7.961v3.416H9.792V66.78h-4.02V44.131h14.919v3.57H9.79zm24.89 19.093v-1.392c-.547.464-1.299.86-2.257 1.19-.959.33-1.84.495-2.644.495-3.844 0-5.766-2.04-5.766-6.122V50.222h3.864v10.45c0 2.124.954 3.185 2.86 3.185.877 0 1.69-.226 2.443-.68.753-.453 1.252-.98 1.5-1.577V50.222h3.865v16.573h-3.865zm18.69-.016v-9.57c0-1.411-.27-2.442-.812-3.091-.54-.65-1.424-.974-2.65-.974-.567 0-1.173.16-1.818.479-.643.32-1.146.716-1.506 1.19V66.78H42.72V50.222h2.782l.712 1.546c1.05-1.237 2.602-1.855 4.653-1.855 1.969 0 3.522.59 4.66 1.77 1.14 1.18 1.71 2.826 1.71 4.94v10.156h-3.866zm18.691 0v-1.005c-.32.35-.86.658-1.623.92a7.222 7.222 0 0 1-2.365.394c-2.309 0-4.126-.731-5.45-2.195-1.325-1.463-1.987-3.504-1.987-6.122s.76-4.748 2.28-6.392c1.52-1.644 3.425-2.466 5.713-2.466 1.258 0 2.402.257 3.432.773v-6.633l3.865-.927v23.653h-3.865zm0-12.6c-.824-.66-1.685-.989-2.582-.989-1.546 0-2.736.472-3.57 1.415-.836.943-1.253 2.295-1.253 4.058 0 3.442 1.66 5.163 4.978 5.163.371 0 .827-.11 1.367-.331.542-.222.895-.447 1.06-.674V54.18z"/>
    </g>
</svg>
