<svg xmlns="http://www.w3.org/2000/svg" width="179" height="56" viewBox="0 0 179 56">
    <g fill="#4C4C4C" fill-rule="evenodd">
        <path d="M61.304 3.521h8.817c7.693 0 11.712 4.646 11.712 13.54C81.833 26.277 77.872 31 70.12 31h-8.817V3.521zm5.408 4.666v18.147h2.666c4.761 0 6.932-2.856 6.932-9.178 0-6.056-2.247-8.97-6.932-8.97h-2.666zm28.089 7.198v-5.39h-9.407v3.847h4.38v13.33h-4V31h15.082v-3.828h-6.093v-5.484c0-4.513 2.418-6.76 7.37-6.76 1.18 0 2.551.247 3.503.61V9.88c-.742-.285-1.809-.438-2.99-.438-3.96 0-6.112 1.771-7.026 5.942h-.82zm24.47 16.072c-5.922 0-9.655-3.6-9.655-9.331v-3.237c0-5.732 3.733-9.331 9.655-9.331 5.922 0 9.655 3.599 9.655 9.33v3.238c0 5.732-3.733 9.331-9.655 9.331zm0-17.634c-2.8 0-4.532 2.019-4.532 5.275v2.819c0 3.237 1.733 5.274 4.532 5.274 2.8 0 4.532-2.037 4.532-5.274v-2.819c0-3.256-1.733-5.275-4.532-5.275zM134.029 31h5.199V18.87c0-2.914 1.733-4.761 4.399-4.761 2.647 0 3.885 1.466 3.885 4.551V31h5.217V17.422c0-5.122-2.437-7.864-7.007-7.864-3.028 0-5.294 1.428-6.323 3.96h-.323V9.997h-5.047V31zm33.706-17.405c-2.704 0-4.322 1.809-4.322 4.818h8.512c0-3.01-1.562-4.818-4.19-4.818zm4.304 11.502h4.913c-.438 3.713-4.151 6.36-9.026 6.36-6.113 0-9.617-3.428-9.617-9.388v-3.37c0-5.504 3.809-9.141 9.522-9.141 5.56 0 9.121 3.656 9.121 9.293v2.894h-13.54v1.143c0 2.742 1.772 4.532 4.495 4.532 2.094 0 3.751-.952 4.132-2.323zM64.861 39.05c-2.38 0-3.808 1.672-3.808 4.48h7.52c0-2.796-1.392-4.48-3.712-4.48zm3.687 8.703h1.587c-.44 2.1-2.442 3.467-5.09 3.467-3.54 0-5.591-2.185-5.591-5.933v-1.916c0-3.467 2.148-5.738 5.407-5.738 3.394 0 5.335 2.246 5.335 6.177v1.038h-9.143v.451c0 2.747 1.55 4.493 3.991 4.493 1.795 0 3.101-.757 3.504-2.04zm17.859-6.189c0-2.6-.977-3.93-2.893-3.93-1.355 0-2.466.78-2.82 1.977h-.171c-.28-1.245-1.172-1.978-2.43-1.978-1.208 0-2.172.757-2.514 1.978h-.17v-1.758h-1.453V51h1.501v-8.801c0-1.941.806-3.125 2.124-3.125 1.245 0 1.88.964 1.88 2.844V51h1.501v-8.801c0-1.953.782-3.125 2.076-3.125 1.233 0 1.867.964 1.867 2.856V51h1.502v-9.436zm9.814-3.93c3.052 0 5.127 2.245 5.127 5.53v2.526c0 3.284-2.075 5.53-5.127 5.53-1.904 0-3.345-.782-3.967-2.16h-.22v6.396h-1.599V37.853h1.526v1.892h.22c.769-1.38 2.173-2.112 4.04-2.112zm-.354 1.44c-2.344 0-3.87 1.758-3.87 4.48v1.758c0 2.722 1.526 4.48 3.87 4.48 2.356 0 3.882-1.77 3.882-4.48v-1.758c0-2.71-1.526-4.48-3.882-4.48zM116.814 51v-1.294h-4.504v-17.09h-6.25v1.294h4.65v15.796h-4.626V51h10.73zm9.73.22c-3.394 0-5.567-2.27-5.567-5.81v-1.954c0-3.54 2.173-5.81 5.566-5.81 3.394 0 5.567 2.27 5.567 5.81v1.953c0 3.54-2.173 5.81-5.567 5.81zm0-12.146c-2.442 0-3.968 1.745-3.968 4.59v1.538c0 2.844 1.526 4.59 3.967 4.59 2.442 0 3.968-1.746 3.968-4.59v-1.538c0-2.845-1.526-4.59-3.968-4.59zm11.84 16.577c2.149 0 3.076-.855 4.248-4.016l5.115-13.782h-1.709l-3.967 11.401h-.147l-3.98-11.401h-1.733l4.932 13.232-.268.818c-.647 1.746-1.307 2.356-2.515 2.356-.195 0-.537-.012-.72-.049v1.392c.207.024.549.049.744.049zm19.202-16.602c-2.38 0-3.809 1.673-3.809 4.48h7.52c0-2.795-1.392-4.48-3.711-4.48zm3.686 8.704h1.587c-.44 2.1-2.441 3.467-5.09 3.467-3.54 0-5.59-2.185-5.59-5.933v-1.916c0-3.467 2.148-5.738 5.407-5.738 3.393 0 5.334 2.246 5.334 6.177v1.038h-9.143v.451c0 2.747 1.55 4.493 3.992 4.493 1.794 0 3.1-.757 3.503-2.04zm11.768-8.704c-2.38 0-3.809 1.673-3.809 4.48h7.52c0-2.795-1.392-4.48-3.711-4.48zm3.687 8.704h1.586c-.439 2.1-2.44 3.467-5.09 3.467-3.54 0-5.59-2.185-5.59-5.933v-1.916c0-3.467 2.148-5.738 5.407-5.738 3.394 0 5.335 2.246 5.335 6.177v1.038h-9.144v.451c0 2.747 1.55 4.493 3.992 4.493 1.795 0 3.1-.757 3.504-2.04z"/>
        <path fill-rule="nonzero" d="M21.866 37.934C21.903 39.066 22.87 40 24.006 40h4.987c1.135 0 2.104-.936 2.141-2.066l.625-18.738c.096-2.89-2.135-5.196-5.017-5.196h-.484c-2.874 0-5.113 2.316-5.017 5.196l.625 18.738zm-2.624-18.672A6.979 6.979 0 0 1 26.258 12h.484c4.008 0 7.15 3.239 7.016 7.262l-.625 18.739C33.06 40.209 31.206 42 28.993 42h-4.986c-2.213 0-4.067-1.787-4.14-4l-.625-18.738z"/>
        <rect width="2" height="4" x="22" y="14" rx="1"/>
        <rect width="2" height="4" x="29" y="14" rx="1"/>
        <rect width="2" height="4" x="25.5" y="34" rx="1"/>
        <rect width="2" height="21" x="22" y="20" rx="1"/>
        <rect width="2" height="21" x="29" y="20" rx="1"/>
        <path fill-rule="nonzero" d="M9 13a4 4 0 1 1 0-8 4 4 0 0 1 0 8zm0-2a2 2 0 1 0 0-4 2 2 0 0 0 0 4z"/>
        <path fill-rule="nonzero" d="M1.707 17.207l5.5-5.5a1 1 0 0 0-1.414-1.414l-5.5 5.5a1 1 0 0 0 1.414 1.414zM12.207 7.207l5.5-5.5A1 1 0 1 0 16.293.293l-5.5 5.5a1 1 0 1 0 1.414 1.414z"/>
        <circle cx="9" cy="9" r="1"/>
        <path fill-rule="nonzero" d="M8.087 12.433l11.346 12.48 1.48-1.346-11.346-12.48zM11.1 10.7l9.6 7.2 1.2-1.6-9.6-7.2z"/>
        <g>
            <g transform="matrix(-1 0 0 1 53 0)">
                <path fill-rule="nonzero" d="M9 13a4 4 0 1 1 0-8 4 4 0 0 1 0 8zm0-2a2 2 0 1 0 0-4 2 2 0 0 0 0 4z"/>
                <path fill-rule="nonzero" d="M1.707 17.207l5.5-5.5a1 1 0 0 0-1.414-1.414l-5.5 5.5a1 1 0 0 0 1.414 1.414zM12.207 7.207l5.5-5.5A1 1 0 1 0 16.293.293l-5.5 5.5a1 1 0 1 0 1.414 1.414z"/>
                <circle cx="9" cy="9" r="1"/>
            </g>
            <path fill-rule="nonzero" d="M44.913 12.433l-11.346 12.48-1.48-1.346 11.346-12.48zM41.9 10.7l-9.6 7.2-1.2-1.6 9.6-7.2z"/>
        </g>
        <g>
            <g transform="matrix(1 0 0 -1 0 53)">
                <path fill-rule="nonzero" d="M9 13a4 4 0 1 1 0-8 4 4 0 0 1 0 8zm0-2a2 2 0 1 0 0-4 2 2 0 0 0 0 4z"/>
                <path fill-rule="nonzero" d="M1.707 17.207l5.5-5.5a1 1 0 0 0-1.414-1.414l-5.5 5.5a1 1 0 0 0 1.414 1.414zM12.207 7.207l5.5-5.5A1 1 0 1 0 16.293.293l-5.5 5.5a1 1 0 1 0 1.414 1.414z"/>
                <circle cx="9" cy="9" r="1"/>
            </g>
            <path fill-rule="nonzero" d="M10.112 41.658l10.131-9.844 1.394 1.434-10.13 9.845zM10.78 44.422l10.825-6.098.982 1.743-10.826 6.098z"/>
            <g>
                <g transform="rotate(180 26.5 26.5)">
                    <path fill-rule="nonzero" d="M9 13a4 4 0 1 1 0-8 4 4 0 0 1 0 8zm0-2a2 2 0 1 0 0-4 2 2 0 0 0 0 4z"/>
                    <path fill-rule="nonzero" d="M1.707 17.207l5.5-5.5a1 1 0 0 0-1.414-1.414l-5.5 5.5a1 1 0 0 0 1.414 1.414zM12.207 7.207l5.5-5.5A1 1 0 1 0 16.293.293l-5.5 5.5a1 1 0 1 0 1.414 1.414z"/>
                    <circle cx="9" cy="9" r="1"/>
                </g>
                <path fill-rule="nonzero" d="M42.888 41.658l-10.131-9.844-1.394 1.434 10.13 9.845zM42.22 44.422l-10.825-6.098-.982 1.743 10.826 6.098z"/>
            </g>
        </g>
    </g>
</svg>
