<svg xmlns="http://www.w3.org/2000/svg" width="238" height="30" viewBox="0 0 238 30">
    <g fill="none" fill-rule="nonzero">
        <path fill="#FFF" d="M3 20.6c1.9 2 4.8 3.6 8.4 3.6 3.1 0 4.7-1.5 4.7-3 0-2-2.3-2.7-5.4-3.4-4.4-1-10-2.2-10-8.1 0-4.5 3.8-8 10.1-8 4.3 0 7.7 1.2 10.4 3.7l-3.1 4.2c-2.2-2-5-2.9-7.6-2.9-2.6 0-3.9 1.1-3.9 2.7 0 1.8 2.2 2.4 5.3 3.1 4.4 1 10 2.3 10 8.2 0 4.9-3.4 8.5-10.6 8.5-5.1-.1-8.7-1.9-11.2-4.4L3 20.6zM37.1 26.6c-1.3 1.6-3.6 2.5-6.1 2.5-3.1 0-6.6-2.1-6.6-6.3 0-4.5 3.6-6.1 6.6-6.1 2.6 0 4.8.8 6.1 2.4v-2.7c0-2-1.7-3.2-4.3-3.2-2.1 0-3.9.7-5.6 2.3l-1.9-3.4c2.4-2.1 5.4-3 8.4-3 4.4 0 8.4 1.8 8.4 7.3v12.5H37c.1-.2.1-2.3.1-2.3zm0-4.9c-.8-1.1-2.4-1.7-4-1.7-2 0-3.6 1-3.6 2.9 0 1.8 1.7 2.8 3.6 2.8 1.7 0 3.2-.5 4-1.7v-2.3zM48.2 23.8V13.7H45V9.2h3.2V4h5.1v5.3h3.9v4.5h-3.9v8.7c0 1.2.6 2.1 1.8 2.1.7 0 1.5-.3 1.8-.5l1 3.8c-.7.7-2.1 1.2-4.3 1.2-3.6 0-5.4-1.8-5.4-5.3zM59.4 19c0-5.5 3.8-10.1 10.2-10.1 6.3 0 10.2 4.7 10.2 10.1 0 5.5-3.8 10.1-10.2 10.1-6.4 0-10.2-4.6-10.2-10.1zm15.2 0c0-3-1.8-5.6-5-5.6-3.1 0-4.9 2.6-4.9 5.6 0 3 1.8 5.6 4.9 5.6 3.1.1 5-2.5 5-5.6zM84 22.6c1.3 1.3 4.3 2.6 6.6 2.6 2.2 0 3.2-.7 3.2-2s-1.7-1.9-3.8-2.3c-3.3-.6-7.6-1.5-7.6-6 0-3.2 2.8-6 7.9-6 3.2 0 5.8 1.1 7.8 2.6L96 14.9c-1.1-1.2-3.3-2.2-5.7-2.2-1.9 0-3 .7-3 1.8 0 1.2 1.6 1.7 3.6 2.1 3.3.6 7.7 1.6 7.7 6.3 0 3.5-3 6.1-8.3 6.1-3.3 0-6.5-1.1-8.6-3l2.3-3.4zM115.6 16.9c0-2.7-1.3-3.5-3.6-3.5-2 0-3.5 1.1-4.4 2.3v13h-5.1V2h5.1v9.9c1.2-1.5 3.6-3 6.7-3 4.3 0 6.2 2.3 6.2 6v13.7h-5.1V16.9h.2zM125.1 3.9c0-1.7 1.3-3 3-3s3 1.3 3 3-1.3 3-3 3c-1.6 0-3-1.3-3-3zm.5 5.5h5.1v19.2h-5.1V9.4z"/>
        <path fill="#FFA82F" d="M135.6 17.9c0-2.6 2.1-4.8 4.8-4.8 2.6 0 4.8 2.1 4.8 4.8 0 2.6-2.1 4.7-4.8 4.7-2.7 0-4.8-2.1-4.8-4.7z"/>
        <path fill="#FFF" d="M150 2h18.8v4.9h-13.2v5.8h13v4.9h-12.9v11.1h-5.6V2zM185.7 26.2c-1.3 1.5-3.6 2.9-6.7 2.9-4.3 0-6.2-2.3-6.2-6V9.4h5.1V21c0 2.7 1.3 3.5 3.5 3.5 2 0 3.5-1 4.4-2.2v-13h5.1v19.2h-5.2v-2.3zM208.7 17c0-2.7-1.3-3.6-3.5-3.6-2 0-3.5 1.1-4.4 2.3v13h-5.1V9.5h5.1V12c1.2-1.5 3.6-3 6.7-3 4.3 0 6.2 2.4 6.2 6.1v13.6h-5.1l.1-11.7zM232.1 26.2c-1.6 1.9-3.6 2.9-5.9 2.9-4.9 0-8.5-3.6-8.5-10.1 0-6.3 3.6-10.1 8.5-10.1 2.3 0 4.5 1 5.9 2.9V2h5.1v26.6h-5.1v-2.4zm0-10.6c-.8-1.2-2.7-2.2-4.4-2.2-2.9 0-4.9 2.3-4.9 5.6s2 5.6 4.9 5.6c1.7 0 3.5-.9 4.4-2.2v-6.8z"/>
    </g>
</svg>
