<svg xmlns="http://www.w3.org/2000/svg" width="64" height="70" viewBox="0 0 64 70">
    <g fill="none" fill-rule="evenodd">
        <path fill="#F2232A" d="M14.957 23.954A13.473 13.473 0 0 1 10 13.5C10 6.044 16.044 0 23.5 0S37 6.044 37 13.5a13.48 13.48 0 0 1-5.374 10.781.464.464 0 0 1-.173.214c-2.106 1.63-5.101 3.5-11.944 4.685-6.842 1.185-12.125-.556-12.125-.556l7.573-4.67z"/>
        <path fill="#FFF" d="M17.765 6.444a6.85 6.85 0 0 1 .419-.237c.36-.191.772-.384 1.224-.563 1.559-.62 3.183-.932 4.748-.777 1.356.134 2.593.612 3.694 1.328.464.302.87.624 1.214.945.2.186.33.324.385.39l1.53-1.289c-.38-.452-1.066-1.09-2.038-1.722-1.355-.881-2.89-1.475-4.588-1.643-1.923-.19-3.852.18-5.684.91-.9.357-1.58.718-1.978.971l1.074 1.687z"/>
        <path fill="#2B72B6" d="M.207 29.6s20.217 8.37 32.187-.904c11.97-9.273 9.247-25.653 9.247-25.653s8.206 6.265 6.152 21.63c-2.053 15.367-6.632 18.874-6.632 18.874s8.39-5.651 17.073-1.288c8.683 4.364 3.136 16.668 3.136 16.668s-.483-7.43-6.434-8.016c-5.952-.587-9.559 2.114-13.549 5.317-3.99 3.203-11.564 10.403-25.14 12.72C2.673 71.267.358 60.153.358 60.153s7.075 5.467 13.8 0c6.725-5.466 7-16.37 7-16.37s-8.345-1.396-14.203-5.18C1.096 34.817.207 29.599.207 29.599z"/>
    </g>
</svg>
