<?xml version="1.0" encoding="utf-8"?>
<!-- Generator: Adobe Illustrator 17.0.1, SVG Export Plug-In . SVG Version: 6.00 Build 0)  -->
<!DOCTYPE svg PUBLIC "-//W3C//DTD SVG 1.1//EN" "http://www.w3.org/Graphics/SVG/1.1/DTD/svg11.dtd">
<svg version="1.1" id="Layer_1" xmlns="http://www.w3.org/2000/svg" xmlns:xlink="http://www.w3.org/1999/xlink" x="0px" y="0px"
	 width="512px" height="512px" viewBox="640 640 512 512" enable-background="new 640 640 512 512" xml:space="preserve">
<path fill="#FFFFFF" d="M836.923,974.769c0,8.205-1.282,16.615-3.846,25.231c-2.564,8.615-6.974,16.41-13.231,23.385
	c-6.256,6.974-13.692,10.461-22.308,10.461c-8.615,0-16.051-3.487-22.308-10.461c-6.256-6.974-10.667-14.769-13.231-23.385
	c-2.564-8.615-3.846-17.026-3.846-25.231s1.282-16.615,3.846-25.231c2.564-8.615,6.974-16.41,13.231-23.385
	c6.256-6.974,13.692-10.462,22.308-10.462c8.615,0,16.051,3.487,22.308,10.462c6.256,6.974,10.667,14.769,13.231,23.385
	C835.641,958.154,836.923,966.564,836.923,974.769z M1033.846,974.769c0,8.205-1.282,16.615-3.846,25.231
	c-2.564,8.615-6.974,16.41-13.231,23.385c-6.256,6.974-13.692,10.461-22.308,10.461c-8.615,0-16.051-3.487-22.308-10.461
	c-6.256-6.974-10.667-14.769-13.231-23.385c-2.564-8.615-3.846-17.026-3.846-25.231s1.282-16.615,3.846-25.231
	c2.564-8.615,6.974-16.41,13.231-23.385c6.256-6.974,13.692-10.462,22.308-10.462c8.615,0,16.051,3.487,22.308,10.462
	c6.256,6.974,10.667,14.769,13.231,23.385C1032.564,958.154,1033.846,966.564,1033.846,974.769z M1083.077,974.769
	c0-24.615-7.077-45.538-21.231-62.769c-14.154-17.231-33.333-25.846-57.538-25.846c-8.41,0-28.41,2.154-60,6.461
	C929.744,894.872,913.641,896,896,896c-17.641,0-33.744-1.128-48.308-3.385c-31.18-4.308-51.18-6.461-60-6.461
	c-24.205,0-43.385,8.615-57.538,25.846c-14.154,17.231-21.231,38.154-21.231,62.769c0,18.051,3.282,33.795,9.846,47.231
	c6.564,13.436,14.872,24,24.923,31.692c10.051,7.692,22.564,13.846,37.538,18.462s29.333,7.641,43.077,9.077
	c13.744,1.436,29.026,2.154,45.846,2.154h51.692c16.82,0,32.103-0.718,45.846-2.154s28.103-4.462,43.077-9.077
	c14.974-4.615,27.487-10.769,37.538-18.462c10.051-7.692,18.359-18.256,24.923-31.692
	C1079.795,1008.564,1083.077,992.821,1083.077,974.769z M1152,920.615c0,42.462-6.256,76.41-18.769,101.846
	c-7.795,15.795-18.615,29.436-32.462,40.923s-28.308,20.308-43.385,26.462c-15.077,6.154-32.513,11.026-52.308,14.615
	c-19.795,3.59-37.385,5.846-52.769,6.769c-15.385,0.923-32.513,1.385-51.385,1.385c-16,0-30.564-0.308-43.692-0.923
	c-13.128-0.615-28.256-1.897-45.385-3.846c-17.128-1.949-32.769-5.026-46.923-9.231c-14.154-4.205-28.205-9.487-42.154-15.846
	s-26.359-14.667-37.231-24.923c-10.872-10.256-19.692-22.051-26.461-35.385C646.359,997.231,640,963.282,640,920.615
	c0-48.615,13.949-89.231,41.846-121.846c-5.539-16.82-8.308-34.256-8.308-52.308c0-23.795,5.231-46.154,15.692-67.077
	c22.154,0,41.641,4.051,58.462,12.154c16.82,8.103,36.205,20.769,58.154,38c30.154-7.18,61.846-10.769,95.077-10.769
	c30.359,0,59.077,3.282,86.154,9.846c21.538-16.82,40.718-29.231,57.538-37.231c16.82-8,36.205-12,58.154-12
	c10.462,20.923,15.692,43.282,15.692,67.077c0,17.846-2.769,35.077-8.308,51.692C1138.051,830.974,1152,871.795,1152,920.615z"/>
</svg>
