<?xml version="1.0" encoding="utf-8"?>
<!-- Generator: Adobe Illustrator 17.0.1, SVG Export Plug-In . SVG Version: 6.00 Build 0)  -->
<!DOCTYPE svg PUBLIC "-//W3C//DTD SVG 1.1//EN" "http://www.w3.org/Graphics/SVG/1.1/DTD/svg11.dtd">
<svg version="1.1" id="Capa_1" xmlns="http://www.w3.org/2000/svg" xmlns:xlink="http://www.w3.org/1999/xlink" x="0px" y="0px"
	 width="512px" height="512px" viewBox="-36.734 -36.734 512 512" enable-background="new -36.734 -36.734 512 512"
	 xml:space="preserve">
<g>
	<path fill="#FFFFFF" d="M440.941,90.764c-22.893-39.22-53.946-70.272-93.166-93.164c-39.228-22.891-82.05-34.333-128.5-34.333
		c-46.445,0-89.276,11.443-128.501,34.333C51.55,20.488,20.497,51.541-2.396,90.764c-22.894,39.225-34.337,82.061-34.337,128.503
		s11.446,89.273,34.333,128.5c22.892,39.211,53.944,70.272,93.167,93.166c39.225,22.889,82.057,34.333,128.501,34.333
		s89.281-11.444,128.504-34.333c39.221-22.886,70.272-53.947,93.163-93.166c22.887-39.228,34.329-82.062,34.329-128.5
		C475.266,172.825,463.823,129.983,440.941,90.764z M251.292,353.959c-2.233-2.661-3.005-4.887-2.334-6.672
		c-0.223,1.114-1.002,2.113-2.333,2.999c-1.11-1.331-3.117-2.999-6.002-4.997c-2.893-2.007-4.89-3.67-6.001-5.011
		c-0.448-0.663-1.054-1.607-1.834-2.829c-0.779-1.222-1.777-2.832-2.999-4.835c-1.215-1.998-2.103-3.723-2.661-5.171
		c-0.552-1.445-0.604-2.277-0.168-2.493c-4.219,1.782-10.333,0.559-18.331-3.668c-1.554-0.887-3.891-3.221-7-7
		c-3.109-3.779-6.333-5.442-9.667-5.002c-1.109,0.223-2.611,0.611-4.501,1.166c-1.886,0.559-3.498,0.831-4.832,0.831
		c-1.334,0-3.113-0.439-5.336-1.336c-1.775-0.662-4.163-1.945-7.164-3.831c-2.998-1.886-5.057-3.06-6.165-3.496
		c-2.888-1.559-4.333-2.334-4.333-2.334l-5.333-2.661c-1.334-0.662-2.725-1.719-4.169-3.164c-1.444-1.447-2.385-2.948-2.83-4.503
		c-0.444-1.33-0.999-3.999-1.666-8.002c-0.667-4.005-1.557-6.888-2.667-8.663c-1.331-2.221-3.22-4.444-5.667-6.664
		c-2.441-2.221-4.663-3.34-6.664-3.34c1.779,0,1.779-1.49,0-4.498c-1.779-3.005-3.334-5.171-4.669-6.496
		c-0.445-0.448-1.779-1.89-4.001-4.34c-2.222-2.446-4.111-4.551-5.666-6.337c-1.554-1.777-2.893-3.831-4.001-6.168
		c-1.109-2.334-1.334-4.275-0.667-5.834c0.221-0.22,0-0.556-0.668-0.998c-0.667-0.439-1.497-0.891-2.5-1.335
		c-0.998-0.44-1.944-0.831-2.83-1.166c-0.893-0.328-1.56-0.496-2.002-0.496c0.447,0.895,0.946,2.502,1.503,4.835
		c0.556,2.337,1.166,4.061,1.832,5.171c0.447,0.887,2.334,4.114,5.667,9.66c5.782,9.333,8.444,16.23,8.002,20.672
		c-1.334,0.44-2.225,0.223-2.669-0.663c-0.445-0.886-0.781-2.11-1.001-3.667c-0.222-1.55-0.441-2.661-0.668-3.332
		c-0.667-1.335-2.389-2.781-5.169-4.34c-2.776-1.549-4.501-3.108-5.166-4.667c0.224,0,0.497-0.104,0.834-0.335
		c0.335-0.223,0.615-0.327,0.835-0.327c0.225-1.999-0.941-4.555-3.498-7.672c-2.557-3.108-3.608-5.329-3.166-6.664
		c-1.779-1.334-3.334-3.947-4.669-7.831c-1.333-3.891-2.446-6.393-3.334-7.506c-0.887-1.329-1.995-2.495-3.331-3.498
		c-1.334-0.997-2.998-2.107-5.001-3.331c-2-1.222-3.334-2.054-4.001-2.5c-0.446-0.218-1.332-1.214-2.667-2.994
		c-7.332-8.892-9.554-13.671-6.664-14.336c-2.888,0.665-5.278-1.499-7.167-6.503c-1.89-4.998-2.5-8.836-1.834-11.501l-0.665-0.332
		c0.224-0.891,0.334-3.498,0.334-7.835c0-4.335,0.28-8.28,0.835-11.834c0.558-3.555,1.612-5.336,3.166-5.336
		c-1.554,0.222-2.719-1.17-3.498-4.165c-0.778-3.003-0.832-5.06-0.168-6.169c0.222-0.668,1.225-0.218,3.001,1.334
		c1.775,1.55,2.776,2.557,2.998,2.998c2.89-1.56,4.002-3.556,3.334-6.003c-0.445-0.887-2.779-3.22-7-7
		c-9.557-6.219-14.448-9.221-14.666-9.002c1.329-2.441,0.997-4.552-1.003-6.333c-2.221,1.334-3.498,1.666-3.833,1.003
		c-0.332-0.668-0.609-1.886-0.835-3.666c-0.219-1.776-0.778-2.775-1.664-2.998c-1.113-0.222-2.447-1.109-4.001-2.665
		c19.777-31.556,45.887-56.222,78.333-74.004c1.332-0.219,3.776-0.332,7.331-0.332c1.776,0.222,3.444,0.779,4.998,1.666
		c1.556,0.887,3.169,2.112,4.832,3.666c1.67,1.55,2.947,2.663,3.834,3.331c0.445-1.334-0.11-3.334-1.665-6.001
		c0.441-1.334,2.887-2.669,7.332-4.001c5.108-0.667,8.445-0.558,9.999,0.335c-1.331-2.001-3.552-4.78-6.664-8.334l-1.666,1.664
		c-1.779-1.554-6.442-0.778-14,2.334c-0.441,0.219-1.554,0.835-3.333,1.832c-1.776,0.998-3.225,1.722-4.333,2.166
		c-1.334,0.445-2.667,0.556-4.001,0.334c10.665-5.776,21.112-10.338,31.336-13.668c0.661,0.441,1.775,1.387,3.331,2.83
		c1.554,1.444,2.776,2.502,3.666,3.166c-0.667-0.441-1.113-0.224-1.334,0.667c-0.887,2.665-0.887,4.887,0,6.664
		c1.109,1.56,2.611,2.444,4.501,2.669c1.89,0.219,4.166,0.11,6.832-0.336c2.667-0.441,4.447-0.667,5.336-0.667l3.334,0.336
		c7.109,0.667,9.889,0,8.334-2.002c0.665,0.893,1.443,2.725,2.332,5.504c0.887,2.779,1.89,4.724,2.998,5.835
		c1.113-0.893,1.334-2.447,0.667-4.669c-0.667-2.222-0.667-3.782,0-4.669c0.219-0.441,0.887-0.891,2-1.334
		c1.113-0.441,2.389-0.941,3.834-1.497c1.444-0.558,2.389-0.946,2.837-1.166c1.332-0.891,0.441-2.447-2.669-4.669
		c-0.445-0.223-1.387-0.556-2.83-1.001c-1.444-0.438-2.725-0.888-3.834-1.331c-1.109-0.441-2.276-1.054-3.498-1.832
		c-1.222-0.779-1.779-1.666-1.671-2.669c0.112-1.003,0.726-2.278,1.834-3.834c1.334-1.108,3.503-1.554,6.501-1.332
		c2.998,0.219,5.278,0.774,6.832,1.664c6.003,3.334,6.89,6.34,2.669,9.002c2.225,0.219,4.892,1.109,8.002,2.663
		c3.108,1.557,4.33,3.225,3.666,5.004c1.778-3.333,3.554-5.004,5.334-5.004c1.109,0.225,2.169,1.727,3.166,4.504
		c0.998,2.776,1.608,4.275,1.828,4.501c1.782,2.441,3.548,2.998,5.338,1.664c1.775-1.332,3.612-3.276,5.498-5.833
		c1.886-2.553,2.941-3.72,3.165-3.498c-2.222-0.885-2.454-1.776-0.663-2.665c3.324-2,6.329-2.557,8.998-1.664
		c0.662,0.441,1.557,1.444,2.66,2.995c1.994,4.006,1.663,5.891-0.998,5.67c1.998,1.779,2.825,4.003,2.502,6.667
		c-0.335,2.667-2.067,3.89-5.174,3.666c-1.107,0-2.725-0.558-4.839-1.666c-2.11-1.109-3.72-1.719-4.835-1.832
		c-1.11-0.116-2.669,0.497-4.667,1.832c-0.887,1.113-2.054,3.003-3.5,5.667c-1.445,2.671-2.725,4.557-3.835,5.666
		c-3.331,3.333-8.892,4.558-16.669,3.666c0.668,0,0.609,0.667-0.168,2.001c-0.781,1.332-1.832,2.835-3.166,4.5
		c-1.334,1.666-2.112,2.611-2.332,2.832c-2.001,2.222-3.333,4.779-4.001,7.667c0,0.445-0.112,1.946-0.336,4.498
		c-0.225,2.557-0.667,4.504-1.334,5.835c2.667-0.667,4.779,0.671,6.333,4.001c1.334,3.113,1.334,4.779,0,5.003
		c7.336-1.107,13.78-0.665,19.34,1.334c7.999,2.888,12.561,5.777,13.672,8.667c1.327-2.002,4.548-2.116,9.661-0.336
		c2.001,1.109,3.771,4.447,5.337,9.999c0.887,3.331,2.39,6.223,4.5,8.665c2.114,2.444,4.388,3.109,6.836,2l0.996-0.667
		c0.891-0.441,1.61-0.832,2.165-1.165c0.559-0.332,1.166-0.778,1.829-1.334c0.671-0.556,1.062-1.055,1.166-1.497
		c0.104-0.444-0.056-0.893-0.495-1.334c-1.559-1.334-2.725-3.166-3.5-5.497c-0.771-2.334-0.604-4.391,0.504-6.172
		c0.662-0.887,2.441-2.222,5.329-4.001c2.893-1.78,4.671-3.556,5.333-5.334c0.9-2.888-0.219-5.278-3.329-7.17
		c-3.111-1.886-4.67-3.608-4.67-5.166c0-1.113,0.723-2.444,2.165-4.001c1.45-1.554,2.062-3.003,1.834-4.333
		c0-0.671-0.392-2.057-1.168-4.169c-0.771-2.116-1.222-3.67-1.331-4.669c-0.112-1.001,0.392-2.167,1.498-3.498
		c1.55-0.891,5.219-0.835,10.996,0.163c5.778,1.003,9.559,2.058,11.34,3.166c0.67,0.441,2.113,1.109,4.335,2.001
		c2.221,0.883,4.167,1.827,5.838,2.831c1.658,0.998,2.604,1.939,2.824,2.83h-1.663c1.554,1.338,2.502,2.888,2.829,4.669
		c0.336,1.784-0.495,3.114-2.493,4.006c1.326-0.225,3.111,0.11,5.333,0.998c3.556,1.332,3.668,2.557,0.335,3.666
		c0.663-0.225,1.607-0.444,2.825-0.668c1.222-0.222,2.162-0.557,2.832-0.998c0.44-0.224,0.998-0.609,1.663-1.168
		c0.671-0.556,1.166-0.891,1.503-0.997c0.335-0.11,0.83-0.225,1.501-0.336c0.663-0.11,1.327,0.058,1.989,0.5
		c0.232,0,0.727-0.557,1.503-1.666c0.771-1.108,1.615-2.221,2.497-3.33c0.892-1.109,1.663-1.664,2.334-1.664
		c0.658,0,1.275,0.273,1.825,0.829c0.563,0.558,0.998,1.166,1.336,1.834c0.335,0.668,0.662,1.391,0.998,2.163
		c0.335,0.778,0.607,1.393,0.831,1.834c0.439,1.109,1.501,2.28,3.164,3.498c1.663,1.219,2.717,2.389,3.164,3.498
		c0.224,0.668,0.66,2.335,1.331,5.005c0.663,2.667,1.559,4.498,2.665,5.497c1.11,1.003,2.776,1.834,4.997,2.5
		c0.445,0.225,1.451,0.112,3.001-0.329c1.55-0.447,2.834-0.558,3.832-0.336c1.006,0.219,1.501,1.107,1.501,2.667
		c1.331-1.334,1.994-2.225,1.994-2.667c0.228,2.89,0.943,5.225,2.174,7c1.222,1.775,3.164,2.557,5.833,2.332l-0.671,7.336
		c-0.663,1.109-2.329,1.94-5.002,2.495c-2.669,0.558-4.332,1.061-5.003,1.503c-0.663,0.222-2.277,1.555-4.835,4.002
		c-2.557,2.447-3.604,3.891-3.164,4.333c-3.771-4.223-9.446-5.445-16.998-3.666c-8.441,1.333-14.224,2.667-17.332,4.001
		c-3.553,1.78-6.002,3.444-7.336,4.998c-0.223,0.222-0.604,1.003-1.163,2.334c-0.556,1.332-1.11,2.557-1.663,3.666
		c-0.563,1.109-1.054,1.665-1.498,1.665c1.338-0.216,2.834-1.277,4.5-3.163c1.671-1.89,2.725-2.941,3.165-3.166
		c5.772-3.776,10.551-5.11,14.351-3.973c4.887,1.334,5.666,3.114,2.329,5.336c-0.435,0.441-1.61,0.608-3.496,0.5
		c-1.886-0.11-3.165-0.058-3.835,0.168c2.006,0.441,3.667,1.054,5.01,1.827c1.326,0.778,1.663,1.834,0.995,3.166
		c3.553,2.001,4.223,4.223,2.002,6.67c-2.893,2.893-6.329,4.111-10.333,3.666c0.671,0,0.671,0.446,0,1.333l-5.673,3.666
		c-0.44,0.218-1.886,0.773-4.332,1.666c-2.445,0.883-4.114,1.89-5.002,2.998c-0.663,0.89-0.998,2.222-0.998,4.006
		c0,1.78-0.112,3.115-0.335,4.002c-0.219,0.893-1.111,1.108-2.661,0.667c-0.671,1.332-2.725,2.389-6.169,3.162
		c-3.444,0.778-5.721,1.944-6.832,3.498c1.326,1.78,1.222,3.556-0.336,5.336c-2.669,2.225-5.002,2-6.999-0.667
		c-1.11,0.445-1.946,1.554-2.502,3.334c-0.551,1.779-1.389,3.002-2.494,3.666c1.559,2.445,1.327,4.228-0.662,5.333
		c0.216,0,0.719,0.225,1.493,0.668c0.775,0.444,1.607,0.998,2.502,1.666c0.887,0.668,1.437,1.003,1.663,1.003
		c-0.887,1.995-2.114,2.995-3.668,2.995c1.334,3.557-0.328,7.449-4.994,11.668c-0.897,0.887-2.286,1.775-4.172,2.667
		c-1.898,0.887-3.616,1.608-5.174,2.165s-2.441,0.945-2.664,1.166c-2.222,2.003-3.893,4.057-4.998,6.167
		c-1.107,2.114-1.275,4.167-0.504,6.169c0.78,2.006,2.834,3.332,6.173,4.003l0.323,2.664v5.998l0.335,2.669
		c0.228,1.554,0.396,2.945,0.504,4.17c0.109,1.224,0.109,2.773,0,4.667c-0.109,1.886-0.611,2.944-1.498,3.16
		c-0.883,0.228-2.106,0-3.665-0.667c-1.785-0.887-3.891-5.777-6.341-14.664c-0.444-2.221-1.782-4.883-4.003-7.999
		c-1.11,1.11-2.054,1.83-2.829,2.162c-0.772,0.335-1.336,0.396-1.659,0.168c-0.335-0.219-0.947-0.723-1.837-1.498
		c-0.887-0.775-1.659-1.391-2.329-1.83c-1.111-0.663-3.053-1.224-5.838-1.663c-2.773-0.444-4.504-1.003-5.163-1.666
		c-5.339,4.007-8.564,2.999-9.673-2.992c-0.441,1.107-0.388,2.605,0.168,4.5c0.558,1.889,0.835,2.941,0.835,3.164
		c-1.554,2.893-3.998,3.108-7.332,0.663c-1.334-1.327-4.391-1.494-9.17-0.496c-4.779,0.996-7.945,1.163-9.499,0.496
		c0.225,0,0.667,0.332,1.334,1.002c0.665,0.436,1.113,0.772,1.333,0.996c-0.224,0.892-0.556,1.554-1.003,1.998
		c-0.446,0.44-0.891,0.608-1.333,0.504c-0.445-0.112-0.945-0.112-1.503,0c-0.556,0.104-1.054,0.271-1.5,0.495
		c-0.888,0.663-1.998,1.83-3.332,3.496c-1.332,1.667-2.332,2.721-2.998,3.16c1.331,3.556,1.944,6.281,1.834,8.167
		c-0.116,1.894-0.445,4.671-1.003,8.335s-0.835,6.613-0.835,8.838c0,3.547,1.057,7.671,3.166,12.33
		c2.112,4.667,4.611,7.887,7.5,9.668c1.56,0.887,4.228,1.438,8.002,1.659c3.777,0.227,6.445,0,7.999-0.663
		c1.334-0.658,2.332-1.442,2.998-2.329c0.667-0.887,1.225-2.174,1.666-3.835c0.445-1.663,0.781-2.829,1.003-3.492
		c1.554-4.228,4.442-6.448,8.66-6.672c2.677-0.223,4.611,0.064,5.841,0.831c1.222,0.779,1.719,1.833,1.494,3.169
		c-0.224,1.33-0.667,2.72-1.327,4.166c-0.67,1.447-1.501,3.053-2.503,4.836c-0.994,1.785-1.609,3.116-1.824,4.008
		c-0.445,1.777-0.839,4.274-1.166,7.504c-0.335,3.22-0.616,5.166-0.839,5.836c0.448,0.217,2.112,0.328,4.998,0.328
		c0-0.44,0.168-1.168,0.503-2.166c0.328-0.998,0.496-1.61,0.496-1.829c1.115,1.782,2.893,2.773,5.338,2.997
		c2.445,0.223,4.226-0.663,5.337-2.665c0.448,0.668,1.782,2.337,4.005,5.006c2.221,2.661,3.443,4.883,3.668,6.664
		c0.223,0.896,0.662,2.334,1.326,4.34c0.671,1.998,0.895,3.388,0.671,4.17c-0.223,0.767-1.336,1.163-3.332,1.163
		c-0.887,0-1.445,0.335-1.663,0.998c-0.231,0.671-0.231,1.498,0,2.497c0.224,0.998,0.504,1.946,0.831,2.834
		c0.332,0.883,0.775,1.834,1.327,2.834c0.566,0.991,0.839,1.605,0.839,1.828c3.995,7.327,9.445,9.33,16.333,6.002
		c0,6.441-1.557,9.996-4.675,10.66C255.508,357.742,253.514,356.62,251.292,353.959z M256.271,429.266
		c-0.439-2.222-0.663-3.996-0.639-5.323c-0.232-1.782,0.551-4.172,2.325-7.169c1.777-2.996,2.664-5.278,2.664-6.832
		c-3.555-0.887-4.887-3.779-4.007-8.667c0.447-3.336,3.667-7.779,9.668-13.333c4.226-3.779,5.554-9.118,4.003-16.001
		c-0.671-2.89-1.231-7.116-1.671-12.671c-0.439-5.557-0.887-9.445-1.334-11.666c0,0.663,1.054,1.275,3.172,1.829
		c2.111,0.551,3.388,1.278,3.832,2.158c0.444-0.658,0.996-1.886,1.666-3.66c0.663-1.782,1.336-3.111,1.989-4.003
		c0.448-0.667,1.391-1.498,2.838-2.502c1.445-0.998,2.389-1.605,2.832-1.829c0.435-0.219,1.442-0.939,2.992-2.165
		c1.557-1.222,2.837-2.162,3.839-2.829c1.006-0.667,2.329-1.166,4-1.494c1.671-0.335,2.834,0.161,3.496,1.494
		c1.115,1.336,0.895,3.388-0.662,6.169c-1.559,2.781-1.559,4.726,0,5.841c0.227-0.671,0.444-2.121,0.662-4.343
		c0.228-2.222,0.895-3.888,2.002-5.006c1.335-1.326,2.608-2.11,3.835-2.326c1.222-0.231,2.329-0.064,3.325,0.5
		c1.006,0.556,2.173,1.323,3.5,2.329c1.334,0.998,2.556,1.611,3.667,1.829c3.332,1.111,7.336,3.556,12.002,7.336
		c-0.223-0.227-0.223-0.503,0-0.839c0.224-0.327,0.663-0.662,1.336-0.998c0.663-0.327,1.27-0.662,1.829-0.998
		c0.551-0.332,1.158-0.599,1.829-0.827l0.998-0.335c1.55,0,2.664-0.109,3.329-0.336c0.662-0.219,1.618,0,2.832,0.671
		c1.215,0.663,2.055,1.163,2.494,1.498c0.447,0.327,1.222,0.939,2.334,1.829c1.11,0.887,1.894,1.559,2.325,1.998
		c0.671,0.439,1.894,1.222,3.668,2.334c1.782,1.11,3.172,1.998,4.172,2.66c1.006,0.663,1.893,1.671,2.66,2.992
		c0.775,1.343,1.064,2.786,0.839,4.343c1.336,0.224,3.996,1.107,8,2.661c0.671,0.44,2.054,0.836,4.17,1.163
		c2.111,0.335,3.5,0.839,4.167,1.498C341.054,400.266,302.047,421.266,256.271,429.266z"/>
</g>
</svg>
