<?xml version="1.0" encoding="utf-8"?>
<!-- Generator: Adobe Illustrator 17.0.1, SVG Export Plug-In . SVG Version: 6.00 Build 0)  -->
<!DOCTYPE svg PUBLIC "-//W3C//DTD SVG 1.1//EN" "http://www.w3.org/Graphics/SVG/1.1/DTD/svg11.dtd">
<svg version="1.1" id="Capa_1" xmlns="http://www.w3.org/2000/svg" xmlns:xlink="http://www.w3.org/1999/xlink" x="0px" y="0px"
	 width="512px" height="512px" viewBox="-40.941 -40.941 512 512" enable-background="new -40.941 -40.941 512 512"
	 xml:space="preserve">
<path fill="#FFFFFF" d="M471.059,270.392v189.29H361.32V283.07c0-44.366-15.872-74.645-55.594-74.645
	c-30.322,0-48.367,20.405-56.306,40.144c-2.895,7.057-3.64,16.878-3.64,26.756v184.357H136.005c0,0,1.478-299.123,0-330.114H245.77
	v46.792c-0.223,0.35-0.512,0.727-0.721,1.067h0.721v-1.067c14.583-22.461,40.627-54.548,98.922-54.548
	C416.916,121.811,471.059,168.994,471.059,270.392z M21.176-29.564c-37.554,0-62.117,24.632-62.117,57.025
	c0,31.687,23.853,57.067,60.66,57.067h0.733c38.281,0,62.089-25.375,62.089-57.067C81.819-4.932,58.733-29.564,21.176-29.564z
	 M-34.422,459.682H75.312V129.568H-34.422V459.682z"/>
</svg>
