<?xml version="1.0" encoding="utf-8"?>
<!-- Generator: Adobe Illustrator 17.0.1, SVG Export Plug-In . SVG Version: 6.00 Build 0)  -->
<!DOCTYPE svg PUBLIC "-//W3C//DTD SVG 1.1//EN" "http://www.w3.org/Graphics/SVG/1.1/DTD/svg11.dtd">
<svg version="1.1" id="Layer_1" xmlns="http://www.w3.org/2000/svg" xmlns:xlink="http://www.w3.org/1999/xlink" x="0px" y="0px"
	 width="512px" height="512px" viewBox="640 640 512 512" enable-background="new 640 640 512 512" xml:space="preserve">
<path fill="#FFFFFF" d="M1107.385,878.769c12.718,0,23.333,4.154,31.846,12.462S1152,909.949,1152,922.462
	c0,19.897-9.538,33.231-28.615,40l-52.923,18.154l17.231,51.385c1.436,4.308,2.154,9.128,2.154,14.462
	c0,12.103-4.308,22.564-12.923,31.385c-8.615,8.821-18.974,13.231-31.077,13.231c-9.641,0-18.41-2.769-26.308-8.308
	s-13.385-12.923-16.461-22.154l-16.923-50.769l-95.385,32.615l16.923,50.462c1.641,4.923,2.462,9.744,2.462,14.462
	c0,12.103-4.308,22.564-12.923,31.385c-8.615,8.821-19.077,13.231-31.385,13.231c-9.641,0-18.359-2.769-26.154-8.308
	s-13.231-12.923-16.308-22.154l-16.923-50.154l-47.077,16.308c-5.949,1.846-11.077,2.769-15.385,2.769
	c-12.513,0-22.923-4.103-31.231-12.308c-8.308-8.205-12.462-18.564-12.462-31.077c0-9.641,2.821-18.359,8.462-26.154
	c5.641-7.795,12.974-13.231,22-16.308l48-16.308L746.461,892l-48,16.615c-5.333,1.641-10.256,2.462-14.769,2.462
	c-12.308,0-22.667-4.154-31.077-12.462C644.205,890.308,640,880,640,867.692c0-9.641,2.821-18.359,8.462-26.154
	c5.641-7.795,12.974-13.231,22-16.308l48.308-16.308L702.461,760c-1.641-4.923-2.462-9.744-2.462-14.462
	c0-12.308,4.308-22.82,12.923-31.538c8.615-8.718,19.077-13.077,31.385-13.077c9.641,0,18.359,2.769,26.154,8.308
	s13.231,12.923,16.308,22.154l16.615,49.231l95.385-32.308l-16.615-49.231c-1.641-4.923-2.462-9.744-2.462-14.462
	c0-12.103,4.359-22.564,13.077-31.385C901.487,644.41,911.897,640,924,640c9.641,0,18.41,2.82,26.308,8.462
	c7.897,5.641,13.385,12.974,16.462,22L983.077,720l49.846-16.923c4.308-1.231,8.718-1.846,13.231-1.846
	c12.308,0,22.82,4.051,31.538,12.154c8.718,8.103,13.077,18.205,13.077,30.308c0,9.231-3.077,17.59-9.231,25.077
	c-6.154,7.487-13.744,12.769-22.769,15.846l-48.308,16.615l32.308,97.231l50.462-17.231
	C1098.154,879.59,1102.872,878.769,1107.385,878.769z M863.077,959.385l95.385-32.308l-32.308-96.923l-95.385,32.923
	L863.077,959.385z"/>
</svg>
