<?xml version="1.0" encoding="utf-8"?>
<!-- Generator: Adobe Illustrator 17.0.1, SVG Export Plug-In . SVG Version: 6.00 Build 0)  -->
<!DOCTYPE svg PUBLIC "-//W3C//DTD SVG 1.1//EN" "http://www.w3.org/Graphics/SVG/1.1/DTD/svg11.dtd">
<svg version="1.1" id="Layer_1" xmlns="http://www.w3.org/2000/svg" xmlns:xlink="http://www.w3.org/1999/xlink" x="0px" y="0px"
	 width="512px" height="512px" viewBox="640 640 512 512" enable-background="new 640 640 512 512" xml:space="preserve">
<path fill="#FFFFFF" d="M640,882.073c0-1.769,0-3.537,0-5.306c2.812-3.128,5.058-7.304,8.543-9.185
	c10.004-5.402,20.287-10.44,30.86-14.606c31.104-12.256,62.423-23.965,93.616-35.995c28.378-10.944,56.676-22.095,85.057-33.03
	c33.007-12.718,66.086-25.249,99.098-37.955c38.247-14.722,76.461-29.531,114.678-44.334c17.004-6.586,33.979-13.25,50.967-19.878
	c4.864,0,9.727,0,14.591,0c7.974,4.351,12.245,11.418,14.591,19.896c0,3.095,0,6.19,0,9.285c-0.644,2.611-1.349,5.208-1.921,7.835
	c-3.351,15.397-6.731,30.788-9.987,46.205c-6.467,30.625-12.819,61.274-19.298,91.897c-4.557,21.54-9.323,43.036-13.855,64.582
	c-5.599,26.622-11.005,53.283-16.582,79.91c-5.487,26.194-10.97,52.391-16.678,78.538c-2.734,12.526-5.971,24.947-19.834,30.288
	c-2.653,0-5.306,0-7.958,0c-8.395-4.647-17.387-8.474-25.083-14.081c-34.69-25.27-69.008-51.049-103.473-76.626
	c-3.139-2.33-5.687-2.716-9.038,0.63c-17.625,17.601-35.484,34.969-53.45,52.224c-5.793,5.564-12.335,10.173-21.812,10.48
	c1.096-12.714,2.393-25.311,3.223-37.94c1.494-22.715,2.666-45.451,4.063-68.173c0.43-6.993,1.714-13.362,7.756-18.441
	c10.728-9.018,20.794-18.823,31.167-28.266c9.393-8.551,18.801-17.087,28.247-25.58c21.482-19.313,43.017-38.566,64.477-57.903
	c10.421-9.39,20.704-18.932,31.08-28.371c19.118-17.393,38.314-34.699,57.285-52.251c1.55-1.434,2.786-6.013,2.17-6.477
	c-2.194-1.652-5.508-3.352-7.927-2.834c-4.339,0.928-8.623,2.993-12.435,5.376c-39.429,24.652-78.771,49.443-118.114,74.233
	c-49.041,30.9-98.05,61.85-147.137,92.675c-1.474,0.925-3.88,1.375-5.506,0.889c-14.048-4.202-27.998-8.733-42.014-13.045
	c-19.386-5.963-38.923-11.463-58.163-17.858C659.938,895.136,647.331,893.336,640,882.073z"/>
</svg>
