<?xml version="1.0" encoding="utf-8"?>
<!-- Generator: Adobe Illustrator 17.0.1, SVG Export Plug-In . SVG Version: 6.00 Build 0)  -->
<!DOCTYPE svg PUBLIC "-//W3C//DTD SVG 1.1//EN" "http://www.w3.org/Graphics/SVG/1.1/DTD/svg11.dtd">
<svg version="1.1" id="Layer_1" xmlns="http://www.w3.org/2000/svg" xmlns:xlink="http://www.w3.org/1999/xlink" x="0px" y="0px"
	 width="512px" height="512px" viewBox="640 640 512 512" enable-background="new 640 640 512 512" xml:space="preserve">
<path fill="#FFFFFF" d="M1152,737.462c-14.511,21.225-32.054,39.31-52.63,54.254c0.217,3.032,0.325,7.58,0.325,13.645
	c0,28.156-4.115,56.257-12.345,84.305s-20.738,54.958-37.523,80.731c-16.785,25.773-36.765,48.569-59.939,68.386
	c-23.174,19.817-51.113,35.628-83.817,47.432c-32.704,11.804-67.682,17.706-104.934,17.706c-58.694,0-112.406-15.702-161.137-47.107
	c7.58,0.866,16.027,1.299,25.34,1.299c48.731,0,92.156-14.944,130.274-44.832c-22.741-0.433-43.1-7.418-61.076-20.954
	s-30.321-30.809-37.036-51.817c7.147,1.083,13.753,1.624,19.817,1.624c9.313,0,18.518-1.191,27.614-3.574
	c-24.257-4.981-44.345-17.056-60.264-36.223c-15.919-19.167-23.878-41.421-23.878-66.761v-1.299
	c14.728,8.23,30.538,12.67,47.432,13.32c-14.294-9.53-25.665-21.983-34.112-37.36s-12.67-32.054-12.67-50.03
	c0-19.059,4.765-36.711,14.294-52.954c26.206,32.271,58.098,58.098,95.675,77.482c37.577,19.384,77.807,30.159,120.69,32.325
	c-1.733-8.23-2.599-16.244-2.599-24.041c0-29.022,10.234-53.767,30.701-74.234c20.467-20.467,45.211-30.701,74.234-30.701
	c30.322,0,55.878,11.046,76.67,33.137c23.607-4.548,45.807-12.995,66.599-25.34c-8.014,24.907-23.391,44.183-46.132,57.827
	C1111.716,751.54,1131.858,746.125,1152,737.462z"/>
</svg>
