<svg xmlns="http://www.w3.org/2000/svg" width="202" height="25" viewBox="0 0 202 25">
    <g fill="#4C4C4C" fill-rule="nonzero">
        <path d="M26.083 23.722h7.369l3.95-22.416h-7.368l-1.457 8.027h-6.388l1.457-8.027h-7.368l-3.95 22.416h7.368l1.485-8.389h6.387zM41.577 1.278L39.335 13.75c-.196.972-.28 1.917-.28 2.806 0 6.61 5.828 7.61 9.33 7.61 7.34 0 10.506-2.416 11.655-8.944L62.505 1.25h-7.368l-2.101 11.722c-.673 3.667-1.15 5.584-3.895 5.584-1.793 0-2.661-.945-2.661-2.89 0-.75.112-1.666.336-2.805l2.13-11.611h-7.37v.028zM101.448 23.722h7.369l1.036-5.778h3.474c6.416 0 9.974-3.444 9.974-9.722 0-4.416-3.082-6.944-8.489-6.944H105.4l-3.95 22.444zm11.487-11.305h-2.13l.981-5.278h1.99c1.625 0 2.493.805 2.493 2.278 0 1.86-1.26 3-3.334 3zM137.618.806c-8.013 0-12.804 5.138-12.804 13.777 0 6 3.81 9.611 10.198 9.611 8.013 0 12.804-5.138 12.804-13.777.028-6.028-3.782-9.611-10.198-9.611zm-2.158 17.583c-1.905 0-3.025-1.361-3.025-3.639 0-.861.084-1.611.252-2.472.56-2.945 1.513-5.64 4.51-5.64 1.906 0 3.026 1.362 3.026 3.64 0 .86-.084 1.61-.252 2.472-.56 2.917-1.513 5.639-4.51 5.639zM173.451 23.722h7.368l2.914-16.416h5.547l1.065-6H171.49l-1.065 6h5.884zM161.236 9.583c-2.326-.722-3.278-1.027-3.278-2.11 0-.723.476-1.584 1.877-1.584 1.037 0 1.905.583 2.241 1.444l6.5-1.75c-.756-3.166-3.502-4.777-8.237-4.777-8.909 0-9.61 5.916-9.61 7.722 0 3.666 1.962 5.916 6.22 7.083 1.12.306 2.41.639 2.41 1.861 0 .972-.729 1.584-1.99 1.584-1.148 0-2.38-.667-2.801-1.834l-6.416 1.722c.7 3.334 3.866 5.223 8.825 5.223 3.783 0 10.114-1 10.114-7.778.028-3.389-1.905-5.611-5.855-6.806zM8.209 23.722l3.978-22.416H0v22.416zM193.511 1.306l-3.95 22.416h12.187V1.306zM66.708 1.278l-3.95 22.444h7.368l1.176-6.61h6.192l1.009-5.64H72.31l.7-4.166h8.658l1.064-6.028zM86.04 1.278l-3.951 22.444h7.368l1.149-6.61h6.22l1.008-5.64h-6.192l.7-4.166H101l1.065-6.028z"/>
    </g>
</svg>
