<?xml version="1.0" encoding="utf-8"?>
<!-- Generator: Adobe Illustrator 17.0.1, SVG Export Plug-In . SVG Version: 6.00 Build 0)  -->
<!DOCTYPE svg PUBLIC "-//W3C//DTD SVG 1.1//EN" "http://www.w3.org/Graphics/SVG/1.1/DTD/svg11.dtd">
<svg version="1.1" id="Layer_1" xmlns="http://www.w3.org/2000/svg" xmlns:xlink="http://www.w3.org/1999/xlink" x="0px" y="0px"
	 width="202px" height="25px" viewBox="0 0 202 25" enable-background="new 0 0 202 25" xml:space="preserve">
<g>
	<path fill="#FFFFFF" d="M26.083,23.722h7.369l3.95-22.416h-7.368l-1.457,8.027h-6.388l1.457-8.027h-7.368l-3.95,22.416h7.368
		l1.485-8.389h6.387L26.083,23.722z M41.577,1.278L39.335,13.75c-0.196,0.972-0.28,1.917-0.28,2.806c0,6.61,5.828,7.61,9.33,7.61
		c7.34,0,10.506-2.416,11.655-8.944L62.505,1.25h-7.368l-2.101,11.722c-0.673,3.667-1.15,5.584-3.895,5.584
		c-1.793,0-2.661-0.945-2.661-2.89c0-0.75,0.112-1.666,0.336-2.805l2.13-11.611h-7.37L41.577,1.278L41.577,1.278z M101.448,23.722
		h7.369l1.036-5.778h3.474c6.416,0,9.974-3.444,9.974-9.722c0-4.416-3.082-6.944-8.489-6.944H105.4l-3.95,22.444H101.448z
		 M112.935,12.417h-2.13l0.981-5.278h1.99c1.625,0,2.493,0.805,2.493,2.278C116.269,11.277,115.009,12.417,112.935,12.417z
		 M137.618,0.806c-8.013,0-12.804,5.138-12.804,13.777c0,6,3.81,9.611,10.198,9.611c8.013,0,12.804-5.138,12.804-13.777
		C147.844,4.389,144.034,0.806,137.618,0.806z M135.46,18.389c-1.905,0-3.025-1.361-3.025-3.639c0-0.861,0.084-1.611,0.252-2.472
		c0.56-2.945,1.513-5.64,4.51-5.64c1.906,0,3.026,1.362,3.026,3.64c0,0.86-0.084,1.61-0.252,2.472
		c-0.56,2.917-1.513,5.639-4.51,5.639H135.46z M173.451,23.722h7.368l2.914-16.416h5.547l1.065-6H171.49l-1.065,6h5.884
		L173.451,23.722z M161.236,9.583c-2.326-0.722-3.278-1.027-3.278-2.11c0-0.723,0.476-1.584,1.877-1.584
		c1.037,0,1.905,0.583,2.241,1.444l6.5-1.75c-0.756-3.166-3.502-4.777-8.237-4.777c-8.909,0-9.61,5.916-9.61,7.722
		c0,3.666,1.962,5.916,6.22,7.083c1.12,0.306,2.41,0.639,2.41,1.861c0,0.972-0.729,1.584-1.99,1.584
		c-1.148,0-2.38-0.667-2.801-1.834l-6.416,1.722c0.7,3.334,3.866,5.223,8.825,5.223c3.783,0,10.114-1,10.114-7.778
		C167.119,13,165.186,10.778,161.236,9.583z M8.209,23.722l3.978-22.416H0v22.416H8.209z M193.511,1.306l-3.95,22.416h12.187V1.306
		H193.511z M66.708,1.278l-3.95,22.444h7.368l1.176-6.61h6.192l1.009-5.64H72.31l0.7-4.166h8.658l1.064-6.028L66.708,1.278z
		 M86.04,1.278l-3.951,22.444h7.368l1.149-6.61h6.22l1.008-5.64h-6.192l0.7-4.166H101l1.065-6.028L86.04,1.278z"/>
</g>
</svg>
