<?xml version="1.0" encoding="utf-8"?>
<!-- Generator: Adobe Illustrator 17.0.1, SVG Export Plug-In . SVG Version: 6.00 Build 0)  -->
<!DOCTYPE svg PUBLIC "-//W3C//DTD SVG 1.1//EN" "http://www.w3.org/Graphics/SVG/1.1/DTD/svg11.dtd">
<svg version="1.1" id="Layer_1" xmlns="http://www.w3.org/2000/svg" xmlns:xlink="http://www.w3.org/1999/xlink" x="0px" y="0px"
	 width="100px" height="100px" viewBox="1 0.5 100 100" enable-background="new 1 0.5 100 100" xml:space="preserve">
<g>
	<g>
		<path fill="#4C4C4C" d="M50.999,100.259C23.429,100.259,1,77.938,1,50.5C1,23.063,23.43,0.741,51,0.741
			c27.57,0,50,22.322,50,49.759C101,77.938,78.57,100.259,50.999,100.259z M51,2.673C24.495,2.673,2.932,24.128,2.932,50.5
			c0,26.371,21.563,47.827,48.067,47.827c26.505,0,48.069-21.456,48.069-47.827C99.068,24.128,77.505,2.673,51,2.673z"/>
	</g>
	<g>
		<g>
			<path fill="#4C4C4C" d="M28.301,60.751h1.646v-8.533h-1.646v-0.299h3.444v2.235h0.043c0.3-0.851,0.73-1.475,1.295-1.872
				c0.562-0.397,1.243-0.596,2.042-0.596c0.713,0,1.344,0.157,1.894,0.469c0.548,0.311,0.908,0.829,1.08,1.553h0.042
				c0.1-0.255,0.236-0.502,0.407-0.744c0.171-0.242,0.386-0.458,0.642-0.65c0.276-0.201,0.583-0.355,0.909-0.457
				c0.384-0.118,0.785-0.176,1.187-0.17c2.081,0,3.123,1.057,3.123,3.171v5.895h1.646v0.299H40.92v-0.298h1.647v-7.237
				c0-0.482-0.132-0.858-0.396-1.128c-0.264-0.27-0.623-0.404-1.079-0.404c-0.357,0-0.714,0.067-1.071,0.201
				c-0.357,0.135-0.676,0.338-0.962,0.608c-0.303,0.295-0.54,0.65-0.696,1.043c-0.178,0.425-0.266,0.923-0.266,1.49v5.427h1.646
				v0.298H34.61v-0.298h1.647v-6.938c0-0.624-0.129-1.085-0.386-1.384c-0.257-0.298-0.599-0.446-1.026-0.446
				c-0.3,0-0.628,0.074-0.985,0.222c-0.376,0.163-0.715,0.403-0.994,0.703c-0.307,0.319-0.563,0.734-0.77,1.244
				c-0.207,0.511-0.31,1.136-0.31,1.873v4.725h1.647v0.298h-5.133L28.301,60.751 M52.299,55.474
				c0.029-0.199,0.043-0.384,0.043-0.554v-0.531c0-0.483-0.046-0.88-0.139-1.192c-0.093-0.312-0.221-0.56-0.385-0.745
				c-0.161-0.182-0.368-0.318-0.599-0.394c-0.245-0.079-0.502-0.119-0.759-0.117c-0.485,0-0.884,0.097-1.198,0.288
				c-0.312,0.19-0.57,0.458-0.748,0.777c-0.196,0.352-0.336,0.733-0.417,1.128c-0.093,0.425-0.154,0.872-0.182,1.341
				C47.914,55.474,52.299,55.474,52.299,55.474z M47.893,55.772c0,0.142-0.004,0.287-0.011,0.437
				c-0.028,0.678-0.003,1.358,0.074,2.032c0.057,0.512,0.182,0.973,0.374,1.384c0.193,0.413,0.478,0.753,0.856,1.022
				c0.377,0.27,0.879,0.404,1.507,0.404s1.145-0.092,1.552-0.276c0.406-0.185,0.727-0.408,0.962-0.671
				c0.235-0.263,0.41-0.529,0.524-0.798c0.114-0.27,0.199-0.49,0.256-0.66l0.322,0.065c-0.043,0.156-0.126,0.38-0.246,0.67
				c-0.142,0.322-0.337,0.617-0.578,0.872c-0.264,0.292-0.62,0.547-1.07,0.766s-1.03,0.33-1.743,0.33
				c-0.675,0.006-1.345-0.109-1.979-0.341c-0.586-0.214-1.121-0.548-1.571-0.979c-0.445-0.43-0.795-0.948-1.027-1.522
				c-0.243-0.589-0.363-1.244-0.363-1.968c0-0.624,0.125-1.231,0.374-1.82c0.493-1.173,1.404-2.121,2.557-2.66
				c0.588-0.278,1.232-0.42,1.882-0.415c0.398,0,0.826,0.071,1.283,0.213c0.456,0.142,0.879,0.373,1.272,0.692
				c0.392,0.319,0.72,0.742,0.984,1.266c0.264,0.526,0.396,1.179,0.396,1.959L47.893,55.772L47.893,55.772z"/>
		</g>
		<g>
			<path fill="#4C4C4C" d="M54.352,60.751h1.646V46.004h-1.646v-0.299h3.486v15.046h1.647v0.299h-5.133L54.352,60.751 M59.59,60.751
				h1.647v-8.533H59.59v-0.299h3.444v2.15h0.043c0.057-0.213,0.15-0.454,0.278-0.724c0.139-0.284,0.319-0.546,0.534-0.777
				c0.229-0.247,0.502-0.457,0.824-0.628c0.32-0.17,0.709-0.255,1.165-0.255c0.328,0,0.613,0.053,0.855,0.159
				s0.443,0.242,0.599,0.405c0.157,0.162,0.271,0.351,0.343,0.563c0.071,0.213,0.106,0.426,0.106,0.639
				c0,0.469-0.106,0.781-0.322,0.937c-0.213,0.157-0.463,0.234-0.748,0.234c-0.628,0-0.941-0.198-0.941-0.596
				c0-0.128,0.014-0.23,0.043-0.309c0.028-0.077,0.06-0.156,0.097-0.233c0.034-0.078,0.067-0.167,0.096-0.267
				c0.029-0.099,0.043-0.242,0.043-0.425c0-0.454-0.249-0.681-0.749-0.681c-0.229,0-0.471,0.085-0.728,0.255
				c-0.256,0.17-0.495,0.418-0.715,0.745c-0.222,0.327-0.407,0.72-0.557,1.182c-0.15,0.461-0.224,0.989-0.224,1.585v4.874h1.861
				v0.298H59.59L59.59,60.751 M69.537,56.496c0,1.007,0.078,1.808,0.235,2.404c0.157,0.596,0.364,1.054,0.621,1.373
				c0.256,0.319,0.556,0.529,0.899,0.628c0.342,0.1,0.705,0.149,1.09,0.149c0.385,0,0.749-0.049,1.091-0.149
				c0.342-0.1,0.642-0.309,0.899-0.628c0.256-0.319,0.464-0.776,0.62-1.372c0.156-0.596,0.235-1.398,0.235-2.406
				c0-0.851-0.057-1.564-0.17-2.138c-0.116-0.575-0.29-1.043-0.525-1.405c-0.212-0.342-0.521-0.612-0.888-0.777
				c-0.357-0.156-0.778-0.235-1.262-0.235c-0.485,0-0.905,0.079-1.262,0.235c-0.357,0.157-0.652,0.415-0.888,0.777
				c-0.235,0.361-0.41,0.83-0.524,1.405C69.594,54.931,69.537,55.644,69.537,56.496L69.537,56.496z M67.398,56.496
				c0-0.696,0.153-1.342,0.46-1.938c0.295-0.581,0.694-1.103,1.176-1.542c0.471-0.428,1.014-0.77,1.604-1.011
				c0.552-0.233,1.144-0.356,1.743-0.362c0.57,0,1.151,0.121,1.743,0.362c1.204,0.489,2.191,1.395,2.781,2.553
				c0.307,0.599,0.465,1.263,0.46,1.936c0,0.668-0.143,1.295-0.427,1.884c-0.278,0.578-0.658,1.101-1.124,1.543
				c-0.464,0.441-1.004,0.794-1.594,1.043c-0.58,0.251-1.206,0.381-1.839,0.383c-0.628,0-1.24-0.129-1.84-0.384
				c-0.589-0.249-1.128-0.603-1.592-1.043c-0.465-0.441-0.846-0.964-1.124-1.542c-0.284-0.587-0.431-1.232-0.427-1.884
				L67.398,56.496z M78.242,58.07h0.235c0.1,0.34,0.228,0.685,0.386,1.032c0.157,0.348,0.367,0.668,0.631,0.958
				c0.263,0.291,0.588,0.529,0.973,0.713c0.385,0.185,0.848,0.276,1.39,0.276c0.456,0,0.862-0.138,1.219-0.415
				c0.356-0.275,0.533-0.727,0.533-1.351c0-0.539-0.138-0.919-0.415-1.138c-0.293-0.228-0.622-0.404-0.974-0.522l-1.669-0.575
				c-0.235-0.079-0.467-0.167-0.695-0.266c-0.255-0.11-0.49-0.261-0.696-0.447c-0.224-0.206-0.402-0.456-0.524-0.734
				c-0.135-0.298-0.203-0.681-0.203-1.15c0-0.396,0.077-0.765,0.235-1.106c0.155-0.337,0.373-0.64,0.643-0.894
				c0.281-0.262,0.612-0.465,0.973-0.596c0.377-0.141,0.787-0.213,1.23-0.213c0.313,0,0.566,0.025,0.758,0.074
				c0.193,0.05,0.359,0.1,0.502,0.15c0.143,0.049,0.271,0.099,0.386,0.149c0.113,0.049,0.248,0.074,0.406,0.074
				c0.156,0,0.271-0.057,0.341-0.171h0.236v2.427h-0.236c-0.098-0.308-0.212-0.61-0.342-0.905c-0.12-0.277-0.275-0.538-0.46-0.777
				c-0.177-0.226-0.403-0.407-0.662-0.531c-0.292-0.134-0.61-0.199-0.93-0.192c-0.685,0-1.216,0.153-1.594,0.458
				c-0.377,0.305-0.566,0.713-0.566,1.224c0,0.454,0.16,0.798,0.481,1.032s0.794,0.45,1.421,0.649l1.562,0.51
				c0.67,0.228,1.219,0.54,1.646,0.937c0.428,0.397,0.642,0.923,0.642,1.575c0,0.384-0.074,0.759-0.224,1.129
				c-0.148,0.367-0.375,0.697-0.663,0.968c-0.311,0.289-0.674,0.516-1.07,0.67c-0.42,0.171-0.902,0.256-1.444,0.256
				c-0.314,0-0.603-0.032-0.867-0.097c-0.245-0.058-0.488-0.126-0.728-0.202c-0.204-0.065-0.407-0.133-0.609-0.203
				c-0.165-0.06-0.339-0.092-0.514-0.095c-0.157,0-0.271,0.032-0.342,0.096c-0.066,0.059-0.124,0.127-0.171,0.202h-0.235
				L78.242,58.07 M92.401,55.474c0.029-0.199,0.043-0.384,0.043-0.554v-0.531c0-0.483-0.046-0.88-0.138-1.192
				c-0.093-0.312-0.222-0.56-0.386-0.745c-0.161-0.182-0.368-0.318-0.599-0.394c-0.245-0.079-0.502-0.119-0.759-0.117
				c-0.485,0-0.884,0.097-1.198,0.288c-0.312,0.19-0.57,0.458-0.748,0.777c-0.196,0.352-0.337,0.733-0.417,1.128
				c-0.093,0.425-0.154,0.872-0.182,1.341C88.016,55.474,92.401,55.474,92.401,55.474z M87.995,55.772
				c0,0.142-0.003,0.287-0.011,0.437c-0.027,0.678-0.002,1.358,0.074,2.032c0.057,0.512,0.182,0.973,0.375,1.384
				c0.192,0.413,0.477,0.753,0.855,1.022c0.377,0.27,0.879,0.404,1.507,0.404c0.628,0,1.145-0.092,1.552-0.276
				c0.406-0.185,0.727-0.408,0.962-0.671c0.235-0.263,0.41-0.529,0.524-0.798c0.094-0.217,0.18-0.437,0.257-0.66l0.32,0.065
				c-0.068,0.228-0.15,0.451-0.245,0.67c-0.141,0.322-0.336,0.617-0.577,0.872c-0.264,0.292-0.62,0.547-1.07,0.766
				c-0.45,0.219-1.03,0.33-1.743,0.33c-0.675,0.007-1.345-0.109-1.979-0.341c-0.586-0.214-1.122-0.547-1.573-0.979
				c-0.444-0.43-0.794-0.948-1.025-1.522c-0.243-0.589-0.364-1.244-0.364-1.968c0-0.624,0.126-1.231,0.375-1.82
				c0.492-1.173,1.403-2.121,2.556-2.66c0.588-0.278,1.231-0.42,1.881-0.415c0.4,0,0.827,0.071,1.285,0.213
				c0.454,0.142,0.879,0.373,1.272,0.692c0.392,0.319,0.72,0.742,0.985,1.266c0.263,0.526,0.396,1.179,0.396,1.959L87.995,55.772
				L87.995,55.772z M30.148,65.572c0.804,0,1.137-0.333,1.137-0.989c0-0.666-0.341-0.99-1.137-0.99h-0.836v1.981L30.148,65.572
				L30.148,65.572z M29.313,68.224h-0.85V62.84h1.717c1.266,0,1.989,0.697,1.989,1.742c0,1.068-0.732,1.741-1.99,1.741h-0.867
				L29.313,68.224L29.313,68.224z M32.703,66.323V62.84h0.851v3.436c0,0.863,0.43,1.25,1.217,1.25c0.78,0,1.209-0.387,1.209-1.25
				V62.84h0.852v3.483c0,1.314-0.892,1.971-2.061,1.971C33.594,68.295,32.703,67.638,32.703,66.323 M39.673,67.495
				c0.62,0,0.923-0.357,0.923-0.863c0-0.531-0.334-0.871-0.97-0.871h-1.123v1.733H39.673z M39.538,65.081
				c0.564,0,0.819-0.317,0.819-0.76c0-0.451-0.246-0.752-0.836-0.752h-1.018v1.512H39.538L39.538,65.081z M37.661,62.84h1.926
				c1.073,0,1.607,0.617,1.607,1.401c0,0.539-0.287,0.974-0.812,1.132c0.652,0.15,1.058,0.57,1.058,1.322
				c0,0.871-0.589,1.529-1.719,1.529h-2.06V62.84z M42.02,62.84h0.852v4.632h2.387v0.752H42.02V62.84 M45.824,68.224h0.85V62.84
				h-0.85V68.224z M47.296,65.532c0-1.591,1.217-2.763,2.761-2.763c1.002,0,1.694,0.387,2.164,1.045l-0.653,0.459
				c-0.357-0.483-0.819-0.736-1.535-0.736c-1.074,0-1.854,0.855-1.854,1.995c0,1.163,0.796,1.994,1.886,1.994
				c0.7,0,1.217-0.261,1.623-0.783l0.66,0.45c-0.557,0.736-1.266,1.101-2.315,1.101C48.489,68.296,47.296,67.124,47.296,65.532
				 M56.041,65.508c0.803,0,1.137-0.317,1.137-0.958c0-0.648-0.342-0.957-1.137-0.957h-0.851v1.915L56.041,65.508L56.041,65.508z
				 M55.189,68.224h-0.852V62.84h1.734c1.266,0,1.99,0.688,1.99,1.71c0,0.752-0.375,1.29-1.051,1.536l1.304,2.137h-0.93l-1.21-1.987
				h-0.986C55.189,66.237,55.189,68.224,55.189,68.224z M58.777,62.84h3.445v0.753h-2.592v1.543h2.3v0.736h-2.3v1.599h2.705v0.753
				h-3.558V62.84 M63.011,62.84h0.85v4.632h2.387v0.752h-3.238V62.84 M67.96,66.474h1.575l-0.78-1.884L67.96,66.474z M69.846,67.218
				H67.65l-0.422,1.006h-0.86l2.371-5.495h0.048l2.379,5.495h-0.899C70.267,68.224,69.846,67.218,69.846,67.218z M72.814,63.592
				h-1.608V62.84h4.066v0.753h-1.608v4.631h-0.85V63.592 M75.758,68.224h0.85V62.84h-0.85V68.224z M81.931,65.532
				c0-1.14-0.787-1.995-1.909-1.995s-1.909,0.855-1.909,1.995c0,1.14,0.787,1.994,1.909,1.994
				C81.143,67.526,81.931,66.672,81.931,65.532z M77.229,65.532c0-1.591,1.241-2.763,2.792-2.763c1.552,0,2.792,1.172,2.792,2.763
				c0,1.591-1.241,2.763-2.792,2.763C78.47,68.296,77.229,67.124,77.229,65.532z M84.207,64.685v3.539h-0.795v-5.463h0.064
				l3.469,3.617V62.84h0.795v5.463h-0.063L84.207,64.685 M88.894,66.807c0.246,0.467,0.669,0.729,1.224,0.729
				c0.573,0,0.956-0.27,0.956-0.705c0-0.506-0.39-0.696-0.868-0.91l-0.374-0.166c-0.795-0.348-1.344-0.744-1.344-1.584
				c0-0.822,0.628-1.401,1.551-1.401c0.748,0,1.249,0.277,1.591,0.847l-0.644,0.419c-0.206-0.348-0.501-0.522-0.93-0.522
				c-0.462,0-0.74,0.253-0.74,0.625c0,0.427,0.271,0.578,0.86,0.839l0.373,0.167c0.819,0.363,1.368,0.752,1.368,1.662
				c0,0.99-0.763,1.488-1.789,1.488c-0.923,0-1.584-0.443-1.949-1.131L88.894,66.807"/>
		</g>
	</g>
</g>
</svg>
