<svg xmlns="http://www.w3.org/2000/svg" width="144" height="18" viewBox="0 0 144 18">
    <g fill="#FFF" fill-rule="nonzero">
        <path d="M18.594 17.08h5.253L26.663.94H21.41l-1.038 5.78h-4.554L16.857.94h-5.253L8.788 17.08h5.252l1.059-6.04h4.554zM29.639.92L28.04 9.9c-.14.7-.2 1.38-.2 2.02 0 4.76 4.155 5.48 6.651 5.48 5.233 0 7.49-1.74 8.309-6.44L44.558.9h-5.253l-1.498 8.44c-.479 2.64-.818 4.02-2.776 4.02-1.278 0-1.897-.68-1.897-2.08 0-.54.08-1.2.24-2.02L34.892.9h-5.253v.02zM72.32 17.08h5.252l.74-4.16h2.476c4.573 0 7.11-2.48 7.11-7 0-3.18-2.197-5-6.052-5h-6.71L72.32 17.08zm8.188-8.14H78.99l.7-3.8h1.417c1.159 0 1.778.58 1.778 1.64 0 1.34-.899 2.16-2.377 2.16zM98.104.58c-5.712 0-9.128 3.7-9.128 9.92 0 4.32 2.717 6.92 7.27 6.92 5.712 0 9.128-3.7 9.128-9.92.02-4.34-2.697-6.92-7.27-6.92zm-1.538 12.66c-1.358 0-2.157-.98-2.157-2.62 0-.62.06-1.16.18-1.78.4-2.12 1.078-4.06 3.215-4.06 1.358 0 2.157.98 2.157 2.62 0 .62-.06 1.16-.18 1.78-.399 2.1-1.078 4.06-3.215 4.06zM123.648 17.08h5.253l2.077-11.82h3.955l.759-4.32H122.25l-.759 4.32h4.194zM114.94 6.9c-1.657-.52-2.336-.74-2.336-1.52 0-.52.34-1.14 1.338-1.14.739 0 1.358.42 1.598 1.04l4.633-1.26c-.54-2.28-2.496-3.44-5.872-3.44-6.35 0-6.85 4.26-6.85 5.56 0 2.64 1.398 4.26 4.434 5.1.798.22 1.717.46 1.717 1.34 0 .7-.52 1.14-1.418 1.14-.819 0-1.697-.48-1.997-1.32l-4.574 1.24c.5 2.4 2.756 3.76 6.292 3.76 2.696 0 7.21-.72 7.21-5.6.02-2.44-1.359-4.04-4.175-4.9zM5.852 17.08L8.688.94H0v16.14zM137.948.94l-2.816 16.14h8.688V.94zM47.554.92l-2.816 16.16h5.253l.838-4.76h4.414l.72-4.06h-4.415l.5-3h6.171l.76-4.34zM61.335.92l-2.816 16.16h5.252l.82-4.76h4.433l.72-4.06h-4.415l.5-3H72l.759-4.34z"/>
    </g>
</svg>
