<?xml version="1.0" standalone="no"?>
<!DOCTYPE svg PUBLIC "-//W3C//DTD SVG 20010904//EN"
 "http://www.w3.org/TR/2001/REC-SVG-20010904/DTD/svg10.dtd">
<svg version="1.0" xmlns="http://www.w3.org/2000/svg"
 width="209.000000pt" height="209.000000pt" viewBox="0 0 209.000000 209.000000"
 preserveAspectRatio="xMidYMid meet">
<metadata>
Created by potrace 1.11, written by Peter Selinger 2001-2013
</metadata>
<g transform="translate(0.000000,209.000000) scale(0.100000,-0.100000)"
fill="#000000" stroke="none">
<path d="M145 2076 c-17 -7 -50 -34 -72 -60 -77 -87 -73 -39 -73 -971 0 -932
-4 -884 73 -971 23 -26 56 -53 74 -60 48 -21 1748 -21 1796 0 18 7 51 34 74
60 77 87 73 39 73 971 0 932 4 884 -73 971 -23 26 -56 53 -74 60 -47 20 -1753
20 -1798 0z m1806 -29 c48 -28 86 -75 110 -137 21 -52 21 -1678 0 -1730 -24
-62 -62 -109 -110 -137 l-46 -28 -860 0 -860 0 -46 28 c-48 28 -86 75 -110
137 -21 52 -21 1678 0 1730 35 88 96 145 176 161 17 4 406 6 865 5 l835 -1 46
-28z"/>
<path d="M248 1885 c-14 -8 -35 -34 -47 -58 -21 -43 -21 -52 -21 -771 0 -801
-3 -759 62 -819 l31 -27 772 0 772 0 31 28 c65 59 62 17 62 818 0 719 0 728
-21 771 -37 77 14 73 -846 73 -649 -1 -772 -3 -795 -15z m1579 -16 c71 -44 68
-3 71 -799 l2 -715 -22 -45 c-43 -85 7 -80 -833 -80 -840 0 -790 -5 -833 80
l-22 45 2 715 c3 794 0 754 70 799 33 21 38 21 782 21 743 0 749 0 783 -21z"/>
<path d="M287 1782 c-16 -17 -17 -82 -17 -728 0 -539 3 -713 12 -722 17 -17
1509 -17 1526 0 9 9 12 183 12 723 0 677 -1 713 -18 728 -17 16 -84 17 -759
17 -704 0 -741 -1 -756 -18z m1513 -21 c6 -13 10 -251 10 -703 0 -602 -2 -686
-16 -706 l-15 -22 -734 0 -734 0 -15 22 c-14 20 -16 104 -16 706 0 452 4 690
10 703 10 19 29 19 755 19 726 0 745 0 755 -19z"/>
<path d="M911 1534 c-63 -28 -61 -28 -61 -9 0 12 -16 15 -85 15 l-85 0 0 -170
c0 -97 -4 -170 -9 -170 -5 0 -23 -11 -39 -25 -17 -14 -32 -21 -38 -15 -9 9
-91 -6 -107 -20 -5 -4 9 -71 29 -149 31 -118 40 -141 53 -135 9 4 41 14 72 21
l55 15 0 66 -1 67 49 3 c44 3 48 1 41 -15 -40 -96 -55 -161 -55 -239 0 -72 24
-224 35 -224 2 0 41 9 87 20 46 11 115 20 155 20 67 0 202 -25 265 -49 26 -10
27 -9 48 57 43 134 151 303 265 414 l58 56 -23 31 c-20 30 -24 31 -68 25 -43
-5 -52 -2 -102 31 -29 20 -67 39 -82 42 -15 3 -28 11 -28 18 0 17 66 149 108
214 l35 54 -43 37 -43 37 -35 -23 c-46 -32 -109 -31 -198 1 -92 33 -179 33
-253 -1z m265 -24 c94 -35 117 -35 170 -6 48 27 54 26 91 -7 l21 -19 -32 -52
c-18 -28 -50 -88 -71 -132 -35 -75 -41 -82 -72 -87 -25 -4 -39 -1 -52 12 -17
17 -97 39 -105 29 -6 -6 -78 -280 -74 -282 3 -3 134 -36 142 -36 3 0 11 18 17
40 7 22 18 45 25 50 25 22 -25 -129 -62 -184 -20 -31 -49 -91 -64 -134 l-28
-77 -102 -3 -103 -3 7 105 c13 200 69 343 191 487 35 42 61 79 58 83 -4 3 -18
6 -31 6 -14 0 -49 8 -78 17 -43 13 -58 14 -79 5 -30 -14 -55 -66 -55 -116 0
-64 -3 -66 -101 -66 l-89 0 0 195 0 195 70 0 c61 0 70 -2 70 -18 0 -29 10 -32
37 -15 70 46 193 51 299 13z m-125 -225 l47 -17 -25 -26 c-14 -15 -37 -44 -51
-65 -30 -45 -37 -42 -23 10 16 56 14 60 -25 73 -31 11 -37 10 -50 -7 -13 -17
-14 -17 -8 2 20 58 43 63 135 30z m-77 -48 c17 -13 17 -17 -7 -103 -14 -49
-40 -128 -57 -176 -24 -69 -33 -115 -41 -225 -6 -76 -12 -140 -14 -141 -4 -5
-79 -22 -81 -19 -2 1 -10 40 -19 86 -23 110 -15 190 31 302 18 48 34 88 34 90
0 2 -27 5 -60 6 -54 1 -62 -1 -76 -22 -11 -17 -15 -41 -12 -76 l3 -53 -50 -13
c-27 -7 -53 -13 -56 -13 -8 0 -72 240 -66 247 12 12 76 20 85 11 7 -7 23 -1
49 16 l38 26 3 -30 3 -30 110 0 109 0 0 40 c0 27 7 47 23 64 27 29 28 29 51
13z m215 -23 c22 -5 31 -12 31 -26 0 -15 4 -18 18 -12 9 4 34 9 55 12 37 4 60
-5 200 -80 30 -16 43 -18 66 -10 22 8 32 7 44 -6 14 -14 10 -22 -50 -86 -114
-123 -210 -275 -248 -393 -9 -29 -19 -53 -22 -53 -12 0 -130 32 -155 42 -33
12 -32 24 14 135 34 82 121 185 193 227 51 30 56 43 21 52 -14 3 -32 14 -42
25 -26 29 -69 24 -93 -9 -11 -16 -23 -40 -26 -55 -8 -32 -7 -31 -74 -11 -41
12 -51 19 -47 32 3 9 17 63 32 120 16 58 32 102 39 102 7 0 27 -3 44 -6z m124
-193 c15 -8 27 -18 27 -22 0 -4 -22 -23 -50 -43 -27 -20 -50 -32 -50 -28 0 21
32 113 38 110 4 -2 19 -10 35 -17z"/>
</g>
</svg>
