<?xml version="1.0" encoding="utf-8"?>
<!-- Generator: Adobe Illustrator 17.0.1, SVG Export Plug-In . SVG Version: 6.00 Build 0)  -->
<!DOCTYPE svg PUBLIC "-//W3C//DTD SVG 1.1//EN" "http://www.w3.org/Graphics/SVG/1.1/DTD/svg11.dtd">
<svg version="1.1" id="Layer_1" xmlns="http://www.w3.org/2000/svg" xmlns:xlink="http://www.w3.org/1999/xlink" x="0px" y="0px"
	 width="196.704px" height="26.21px" viewBox="0 -11.706 196.704 26.21" enable-background="new 0 -11.706 196.704 26.21"
	 xml:space="preserve">
<g enable-background="new    ">
	<path fill="#FFFFFF" d="M0.168,14v-25.2h6.948c3.816,0,6.906,1.116,9.27,3.349C18.75-5.62,19.932-2.536,19.932,1.4
		s-1.183,7.02-3.546,9.252C14.022,12.884,10.932,14,7.116,14H0.168z M6.936,11.336c3.047,0,5.459-0.828,7.236-2.484
		c1.776-1.655,2.664-4.14,2.664-7.451c0-3.313-0.888-5.797-2.664-7.452c-1.776-1.656-4.188-2.484-7.236-2.484H3.192v19.872
		L6.936,11.336L6.936,11.336z"/>
	<path fill="#FFFFFF" d="M20.904,14l10.008-25.2h3.168L44.088,14h-3.096l-2.916-7.452h-11.16L24,14H20.904z M31.74-5.764
		l-3.852,9.792h9.18l-3.816-9.792c-0.336-0.864-0.588-1.561-0.756-2.088L31.74-5.764z"/>
	<path fill="#FFFFFF" d="M65.904-8.05c2.328,2.436,3.492,5.586,3.492,9.45s-1.165,7.014-3.492,9.449
		c-2.328,2.437-5.22,3.654-8.676,3.654s-6.349-1.218-8.676-3.654C46.224,8.413,45.06,5.264,45.06,1.4s1.164-7.015,3.492-9.45
		c2.328-2.436,5.22-3.654,8.676-3.654S63.576-10.485,65.904-8.05z M50.73,8.942c1.716,1.932,3.882,2.897,6.498,2.897
		s4.782-0.966,6.498-2.897S66.3,4.496,66.3,1.4c0-3.097-0.858-5.61-2.574-7.542C62.01-8.073,59.844-9.04,57.229-9.04
		c-2.616,0-4.782,0.967-6.498,2.898C49.014-4.21,48.156-1.696,48.156,1.4S49.014,7.011,50.73,8.942z"/>
	<path fill="#FFFFFF" d="M70.944,14v-3.528h3.384V14H70.944z"/>
</g>
<g enable-background="new    ">
	<path fill="#FF9900" d="M103.309,6.404l2.268,1.655c-2.28,4.297-5.832,6.444-10.656,6.444c-3.48,0-6.372-1.242-8.676-3.726
		s-3.456-5.61-3.456-9.378c0-3.72,1.2-6.834,3.6-9.343c2.399-2.507,5.304-3.762,8.712-3.762c2.448,0,4.59,0.582,6.426,1.746
		s3.197,2.742,4.086,4.734l-2.34,1.655c-1.729-3.647-4.477-5.472-8.245-5.472c-2.568,0-4.734,1.002-6.498,3.006
		C86.766-4.03,85.884-1.552,85.884,1.4c0,3,0.846,5.489,2.538,7.47c1.692,1.979,3.882,2.97,6.57,2.97
		c1.896,0,3.51-0.426,4.842-1.278C101.166,9.71,102.324,8.324,103.309,6.404z"/>
	<path fill="#FF9900" d="M124.764,14h-2.808c-0.72-0.864-1.08-2.04-1.08-3.528c-0.553,1.296-1.362,2.293-2.43,2.988
		c-1.068,0.696-2.286,1.044-3.654,1.044c-1.8,0-3.252-0.51-4.356-1.53c-1.104-1.02-1.655-2.321-1.655-3.905
		c0-1.632,0.569-2.94,1.71-3.925c1.14-0.983,2.621-1.619,4.445-1.907l5.94-0.973V1.472c0-2.304-1.404-3.456-4.212-3.456
		c-1.345,0-2.382,0.265-3.114,0.792c-0.732,0.528-1.098,1.188-1.098,1.98c0,0.168,0.023,0.348,0.072,0.54l-2.448,0.828
		c-0.192-0.456-0.288-0.937-0.288-1.44c0-1.392,0.63-2.586,1.89-3.582c1.26-0.995,2.922-1.494,4.986-1.494
		c2.304,0,4.05,0.511,5.238,1.53c1.188,1.021,1.781,2.454,1.781,4.302v8.064c0,1.032,0.072,1.854,0.217,2.466
		C124.044,12.614,124.332,13.28,124.764,14z M115.116,11.984c1.8,0,3.209-0.678,4.229-2.034c1.021-1.355,1.53-2.994,1.53-4.914
		v-0.54l-5.436,0.936c-1.225,0.217-2.16,0.625-2.809,1.225c-0.647,0.6-0.972,1.355-0.972,2.268c0,0.937,0.312,1.681,0.936,2.232
		S114.06,11.984,115.116,11.984z"/>
	<path fill="#FF9900" d="M131.209,0.356c0,0.863,0.401,1.536,1.206,2.016c0.804,0.48,1.985,0.864,3.546,1.152
		c4.008,0.768,6.012,2.52,6.012,5.256c0,1.608-0.601,2.964-1.8,4.067c-1.2,1.104-2.856,1.656-4.968,1.656
		c-1.872,0-3.463-0.486-4.771-1.458c-1.309-0.972-2.25-2.214-2.826-3.726l2.34-1.44c1.032,2.784,2.784,4.176,5.257,4.176
		c1.224,0,2.189-0.281,2.897-0.846c0.708-0.563,1.063-1.338,1.063-2.322c0-0.863-0.366-1.542-1.099-2.034
		c-0.732-0.491-1.89-0.882-3.474-1.17c-1.776-0.335-3.217-0.93-4.32-1.781c-1.104-0.852-1.656-1.998-1.656-3.438
		c0-1.464,0.6-2.634,1.801-3.51c1.199-0.876,2.651-1.314,4.355-1.314c3.432,0,5.748,1.44,6.948,4.32l-2.16,1.26
		c-0.864-2.136-2.448-3.204-4.752-3.204c-1.057,0-1.92,0.198-2.592,0.595C131.544-0.994,131.209-0.412,131.209,0.356z"/>
	<path fill="#FF9900" d="M146.005-6.952v-3.528h3.384v3.528C149.389-6.952,146.005-6.952,146.005-6.952z M146.292,14V-3.856h2.809
		V14H146.292z"/>
	<path fill="#FF9900" d="M169.656,1.868V14h-2.808V2.372c0-1.368-0.391-2.412-1.171-3.132c-0.779-0.721-1.817-1.08-3.113-1.08
		c-1.417,0-2.635,0.546-3.654,1.638c-1.021,1.093-1.53,2.526-1.53,4.302V14h-2.808V-3.856h2.808v3.133
		c0.648-1.128,1.494-2.017,2.538-2.664c1.044-0.648,2.202-0.973,3.475-0.973c1.751,0,3.233,0.522,4.445,1.566
		S169.656-0.196,169.656,1.868z"/>
	<path fill="#FF9900" d="M190.771-0.04c0.948,1.464,1.422,3.168,1.422,5.112c0,1.943-0.474,3.648-1.422,5.111
		c-0.948,1.465-2.118,2.551-3.51,3.259c-1.393,0.707-2.856,1.062-4.393,1.062s-3-0.354-4.392-1.062
		c-1.393-0.708-2.563-1.794-3.51-3.259c-0.948-1.463-1.422-3.168-1.422-5.111c0-1.944,0.474-3.648,1.422-5.112
		c0.947-1.464,2.117-2.55,3.51-3.258c1.392-0.708,2.855-1.063,4.392-1.063s3,0.354,4.393,1.063
		C188.652-2.59,189.822-1.504,190.771-0.04z M178.278,10.022c1.236,1.308,2.766,1.962,4.59,1.962s3.354-0.654,4.59-1.962
		c1.236-1.309,1.854-2.958,1.854-4.95s-0.618-3.642-1.854-4.95c-1.236-1.308-2.766-1.962-4.59-1.962s-3.354,0.654-4.59,1.962
		c-1.236,1.309-1.854,2.958-1.854,4.95S177.042,8.714,178.278,10.022z"/>
</g>
</svg>
