<?xml version="1.0" encoding="utf-8"?>
<!-- Generator: Adobe Illustrator 17.0.1, SVG Export Plug-In . SVG Version: 6.00 Build 0)  -->
<!DOCTYPE svg PUBLIC "-//W3C//DTD SVG 1.1//EN" "http://www.w3.org/Graphics/SVG/1.1/DTD/svg11.dtd">
<svg version="1.1" id="Layer_1" xmlns="http://www.w3.org/2000/svg" xmlns:xlink="http://www.w3.org/1999/xlink" x="0px" y="0px"
	 width="44px" height="88px" viewBox="0 0 44 88" enable-background="new 0 0 44 88" xml:space="preserve">
<path d="M9.897,19.454c3.312,3.494,6.538,6.897,9.764,10.301c0.084-0.046,0.167-0.091,0.251-0.137c0-9.854,0-19.707,0-29.618
	c1.049,0,1.994,0,3.074,0c0,9.861,0,19.747,0,29.634c0.106,0.06,0.212,0.119,0.319,0.179c3.259-3.413,6.517-6.826,9.852-10.32
	c0.586,0.514,1.257,1.038,1.836,1.65c0.178,0.188,0.257,0.755,0.117,0.91c-0.798,0.882-1.682,1.687-2.526,2.529
	c-0.792,0.79-1.581,1.584-2.354,2.394c-0.853,0.893-1.682,1.809-2.526,2.71c-1.025,1.095-2.047,2.194-3.086,3.275
	c-0.87,0.905-1.74,1.814-2.667,2.658c-0.183,0.167-0.766,0.19-0.929,0.033c-0.864-0.83-1.643-1.749-2.47-2.618
	c-1.18-1.239-2.387-2.452-3.562-3.696c-0.795-0.841-1.529-1.74-2.337-2.568c-0.875-0.897-1.806-1.74-2.707-2.612
	c-0.74-0.717-1.495-1.422-2.185-2.185c-0.11-0.122-0.01-0.61,0.151-0.769C8.537,20.587,9.226,20.036,9.897,19.454z M3.586,44
	c12.331,0,24.588,0,36.828,0c0-1.029,0-1.974,0-2.964c-12.288,0-24.521,0-36.828,0C3.586,42.089,3.586,43.058,3.586,44z"/>
<path fill="#FFFFFF" d="M9.897,63.454c3.312,3.494,6.538,6.897,9.764,10.301c0.084-0.046,0.167-0.091,0.251-0.137
	c0-9.854,0-19.707,0-29.618c1.049,0,1.994,0,3.074,0c0,9.861,0,19.747,0,29.634c0.106,0.06,0.212,0.119,0.319,0.179
	c3.259-3.413,6.517-6.826,9.852-10.32c0.586,0.514,1.257,1.038,1.836,1.65c0.178,0.188,0.257,0.755,0.117,0.91
	c-0.798,0.882-1.682,1.687-2.526,2.529c-0.792,0.79-1.581,1.584-2.354,2.394c-0.853,0.893-1.682,1.809-2.526,2.71
	c-1.025,1.095-2.047,2.194-3.086,3.275c-0.87,0.905-1.74,1.814-2.667,2.658c-0.183,0.167-0.766,0.19-0.929,0.033
	c-0.864-0.83-1.643-1.749-2.47-2.618c-1.18-1.239-2.387-2.452-3.562-3.696c-0.795-0.841-1.529-1.74-2.337-2.568
	c-0.875-0.897-1.806-1.74-2.707-2.612c-0.74-0.717-1.495-1.422-2.185-2.185c-0.11-0.122-0.01-0.61,0.151-0.769
	C8.537,64.587,9.226,64.036,9.897,63.454z M3.586,88c12.331,0,24.588,0,36.828,0c0-1.029,0-1.974,0-2.964
	c-12.288,0-24.521,0-36.828,0C3.586,86.089,3.586,87.058,3.586,88z"/>
</svg>
