<svg xmlns="http://www.w3.org/2000/svg" width="18" height="16" viewBox="0 0 18 16">
    <g fill="#F3951A" fill-rule="evenodd">
        <path d="M17.747 2.87c-.003-.003-.006-.007-.01-.009l-.006-.003L12.366.063a.573.573 0 0 0-.26-.063.608.608 0 0 0-.52.295l-3.09 5.23 3.877 6.564 5.39-9.13a.07.07 0 0 0-.016-.089M6.797 4.427v5.954l5.079 2.646-5.079-8.6M12.575 13.35l4.18 2.179c.544.283.985.085.985-.443V4.604l-5.165 8.747M5.896 2.98L.656.25A.582.582 0 0 0 .39.177C.16.177 0 .362 0 .673V12.46c0 .316.222.69.492.83l4.615 2.405c.119.062.231.09.333.09.287 0 .488-.23.488-.619V3.033a.06.06 0 0 0-.032-.053"/>
    </g>
</svg>
