<svg xmlns="http://www.w3.org/2000/svg" width="112" height="125" viewBox="0 0 112 125">
    <g fill="none" fill-rule="evenodd" stroke-width="3" transform="translate(2 2)">
        <path stroke="#4C4C4C" d="M63 28V15.99C63 11.579 66.59 8 71 8c4.418 0 8 3.576 8 7.99V28M31 28V17.99c0-4.412 3.59-7.99 8-7.99 4.418 0 8 3.576 8 7.99V28M15 27.99c0-4.412 3.59-7.99 8-7.99 4.418 0 8 3.576 8 7.99M47 27V7.99C47 3.579 50.59 0 55 0c4.418 0 8 3.576 8 7.99V27"/>
        <path stroke="#F90" d="M71.875 81H0V27h108v54H91.5"/>
        <circle cx="54" cy="55" r="14" stroke="#F90"/>
        <path stroke="#4C4C4C" stroke-linejoin="round" d="M15.375 82.25S10.998 113.5 43 121c25.496 6.055 36.658-15.057 36.658-15.057l17.504-35.998s5.248-10-2.502-14-13.002 5.998-13.002 5.998l-13 25.5"/>
    </g>
</svg>
