<?xml version="1.0" encoding="utf-8"?>
<!-- Generator: Adobe Illustrator 17.0.1, SVG Export Plug-In . SVG Version: 6.00 Build 0)  -->
<!DOCTYPE svg PUBLIC "-//W3C//DTD SVG 1.1//EN" "http://www.w3.org/Graphics/SVG/1.1/DTD/svg11.dtd">
<svg version="1.1" id="Layer_1" xmlns="http://www.w3.org/2000/svg" xmlns:xlink="http://www.w3.org/1999/xlink" x="0px" y="0px"
	 width="1792px" height="1792px" viewBox="0 0 1792 1792" enable-background="new 0 0 1792 1792" xml:space="preserve">
<path fill="#FFFFFF" d="M62.976,851.215c0-5.748,0-11.496,0-17.244c9.138-10.166,16.438-23.737,27.764-29.852
	c32.514-17.555,65.933-33.93,100.296-47.47c101.088-39.832,202.874-77.886,304.253-116.982
	c92.228-35.567,184.197-71.809,276.435-107.349c107.273-41.333,214.78-82.058,322.067-123.354
	c124.304-47.847,248.499-95.977,372.702-144.087c55.264-21.406,110.432-43.063,165.643-64.605c15.807,0,31.613,0,47.42,0
	c25.916,14.141,39.796,37.108,47.42,64.663c0,10.059,0,20.117,0,30.176c-2.092,8.485-4.385,16.927-6.243,25.464
	c-10.89,50.04-21.877,100.061-32.459,150.167c-21.019,99.531-41.663,199.141-62.719,298.665
	c-14.811,70.005-30.3,139.868-45.028,209.89c-18.198,86.52-35.768,173.171-53.893,259.706
	c-17.831,85.132-35.653,170.27-54.203,255.247c-8.886,40.708-19.406,81.077-64.46,98.437c-8.622,0-17.244,0-25.865,0
	c-27.284-15.102-56.507-27.542-81.52-45.762c-112.741-82.126-224.276-165.908-336.288-249.036
	c-10.203-7.572-18.484-8.828-29.375,2.048c-57.28,57.203-115.324,113.65-173.711,169.728c-18.828,18.084-40.09,33.063-70.89,34.06
	c3.561-41.319,7.776-82.262,10.476-123.305c4.855-73.824,8.665-147.715,13.206-221.561c1.398-22.726,5.57-43.426,25.208-59.934
	c34.867-29.309,67.581-61.174,101.292-91.863c30.528-27.791,61.103-55.533,91.803-83.134
	c69.815-62.768,139.805-125.341,209.551-188.186c33.867-30.516,67.287-61.528,101.009-92.206
	C1305,587.01,1367.388,530.763,1429.042,473.72c5.037-4.66,9.055-19.542,7.052-21.049c-7.131-5.369-17.901-10.893-25.764-9.211
	c-14.103,3.016-28.026,9.728-40.413,17.473c-128.145,80.118-256.006,160.691-383.87,241.256
	c-159.382,100.424-318.661,201.013-478.196,301.194c-4.789,3.007-12.611,4.47-17.894,2.889
	c-45.656-13.658-90.992-28.383-136.544-42.395c-63.004-19.379-126.499-37.254-189.031-58.04
	C127.776,893.671,86.803,887.822,62.976,851.215z"/>
</svg>
