<?xml version="1.0" encoding="utf-8"?>
<!-- Generator: Adobe Illustrator 17.0.1, SVG Export Plug-In . SVG Version: 6.00 Build 0)  -->
<!DOCTYPE svg PUBLIC "-//W3C//DTD SVG 1.1//EN" "http://www.w3.org/Graphics/SVG/1.1/DTD/svg11.dtd">
<svg version="1.1" id="Layer_1" xmlns="http://www.w3.org/2000/svg" xmlns:xlink="http://www.w3.org/1999/xlink" x="0px" y="0px"
	 width="794px" height="809px" viewBox="0 0 794 809" enable-background="new 0 0 794 809" xml:space="preserve">
<g>
	<g enable-background="new    ">
		<path fill="#FFFFFF" d="M293.518,798.232l0.288-2.232l-1.836,1.296l-0.648-1.224l1.998-0.756l-1.998-0.757l0.648-1.224
			l1.836,1.296l-0.288-2.231h1.404l-0.288,2.231l1.836-1.296l0.648,1.224l-1.998,0.757l1.998,0.756l-0.648,1.224L294.634,796
			l0.288,2.232H293.518z"/>
		<path fill="#FFFFFF" d="M299.71,805v-12.6h4.608c1.188,0,2.145,0.285,2.871,0.854c0.726,0.57,1.089,1.299,1.089,2.188
			c0,1.319-0.732,2.244-2.196,2.771c0.828,0.276,1.476,0.663,1.944,1.161c0.468,0.498,0.702,1.167,0.702,2.007
			c0,1.08-0.426,1.953-1.278,2.619c-0.853,0.666-1.884,0.999-3.096,0.999H299.71z M301.222,793.66v4.032h2.988
			c0.792,0,1.428-0.165,1.908-0.495c0.479-0.33,0.72-0.837,0.72-1.521c0-0.684-0.24-1.19-0.72-1.521
			c-0.48-0.33-1.116-0.495-1.908-0.495H301.222z M301.222,798.952v4.788h2.898c0.948,0,1.713-0.192,2.295-0.576
			s0.873-0.99,0.873-1.818s-0.291-1.434-0.873-1.817s-1.347-0.576-2.295-0.576H301.222z"/>
		<path fill="#FFFFFF" d="M311.068,805v-12.6h7.884v1.332h-6.372v4.086h5.868v1.332h-5.868v4.518h6.426V805H311.068z"/>
		<path fill="#FFFFFF" d="M320.571,793.732V792.4h9.36v1.332h-3.924V805h-1.513v-11.268H320.571z"/>
		<path fill="#FFFFFF" d="M336.105,797.548v-1.116h7.38v1.116H336.105z M336.105,800.968v-1.116h7.38v1.116H336.105z"/>
		<path fill="#FFFFFF" d="M350.901,805v-12.6h3.474c1.908,0,3.453,0.558,4.636,1.674c1.182,1.116,1.772,2.658,1.772,4.626
			s-0.591,3.51-1.772,4.626c-1.183,1.116-2.728,1.674-4.636,1.674H350.901z M354.285,803.668c1.524,0,2.73-0.414,3.618-1.242
			s1.332-2.069,1.332-3.726s-0.444-2.898-1.332-3.727c-0.888-0.827-2.094-1.241-3.618-1.241h-1.872v9.936H354.285z"/>
		<path fill="#FFFFFF" d="M370.25,805h-1.403c-0.36-0.432-0.54-1.02-0.54-1.764c-0.276,0.647-0.682,1.146-1.216,1.494
			c-0.533,0.348-1.143,0.521-1.826,0.521c-0.9,0-1.627-0.255-2.179-0.765s-0.828-1.161-0.828-1.953c0-0.816,0.285-1.47,0.855-1.962
			c0.569-0.492,1.311-0.811,2.223-0.954l2.971-0.486v-0.396c0-1.152-0.702-1.729-2.106-1.729c-0.672,0-1.191,0.133-1.557,0.396
			c-0.366,0.264-0.549,0.594-0.549,0.989c0,0.085,0.012,0.175,0.035,0.271l-1.224,0.414c-0.096-0.228-0.144-0.468-0.144-0.72
			c0-0.696,0.314-1.293,0.944-1.791s1.461-0.747,2.493-0.747c1.152,0,2.025,0.255,2.619,0.765s0.891,1.228,0.891,2.151v4.031
			c0,0.517,0.036,0.928,0.108,1.233S370.035,804.64,370.25,805z M365.426,803.992c0.9,0,1.605-0.339,2.115-1.018
			c0.51-0.678,0.766-1.496,0.766-2.457v-0.27l-2.719,0.468c-0.611,0.108-1.08,0.313-1.403,0.612c-0.324,0.3-0.486,0.678-0.486,1.134
			c0,0.468,0.156,0.84,0.468,1.116C364.479,803.854,364.899,803.992,365.426,803.992z"/>
		<path fill="#FFFFFF" d="M380.358,797.98c0.474,0.731,0.711,1.584,0.711,2.556s-0.237,1.824-0.711,2.556
			c-0.475,0.732-1.06,1.275-1.755,1.629c-0.696,0.354-1.429,0.531-2.196,0.531s-1.5-0.177-2.196-0.531
			c-0.695-0.354-1.281-0.896-1.755-1.629c-0.474-0.731-0.711-1.584-0.711-2.556s0.237-1.824,0.711-2.556
			c0.474-0.732,1.06-1.275,1.755-1.63c0.696-0.354,1.429-0.53,2.196-0.53s1.5,0.177,2.196,0.53
			C379.298,796.705,379.883,797.248,380.358,797.98z M374.112,803.011c0.618,0.654,1.383,0.981,2.295,0.981s1.677-0.327,2.295-0.981
			c0.618-0.653,0.927-1.479,0.927-2.475s-0.309-1.821-0.927-2.476c-0.618-0.653-1.383-0.98-2.295-0.98s-1.677,0.327-2.295,0.98
			c-0.618,0.654-0.927,1.479-0.927,2.476S373.494,802.357,374.112,803.011z"/>
		<path fill="#FFFFFF" d="M382.167,805v-1.764h1.691V805H382.167z"/>
	</g>
	<g enable-background="new    ">
		<path fill="#ED9726" d="M397.342,801.202l1.133,0.828c-1.14,2.147-2.916,3.222-5.327,3.222c-1.74,0-3.186-0.621-4.338-1.863
			c-1.152-1.241-1.728-2.805-1.728-4.688c0-1.86,0.6-3.417,1.8-4.671c1.2-1.254,2.652-1.881,4.356-1.881
			c1.224,0,2.295,0.291,3.213,0.873s1.599,1.371,2.043,2.366l-1.17,0.828c-0.864-1.823-2.238-2.735-4.122-2.735
			c-1.284,0-2.367,0.501-3.249,1.503c-0.882,1.002-1.323,2.24-1.323,3.717c0,1.5,0.423,2.745,1.269,3.734
			c0.846,0.99,1.941,1.485,3.285,1.485c0.948,0,1.755-0.213,2.421-0.639C396.271,802.855,396.85,802.162,397.342,801.202z"/>
		<path fill="#ED9726" d="M408.07,805h-1.404c-0.36-0.432-0.54-1.02-0.54-1.764c-0.276,0.647-0.682,1.146-1.215,1.494
			c-0.534,0.348-1.144,0.521-1.827,0.521c-0.9,0-1.626-0.255-2.178-0.765c-0.553-0.51-0.828-1.161-0.828-1.953
			c0-0.816,0.284-1.47,0.854-1.962s1.312-0.811,2.224-0.954l2.97-0.486v-0.396c0-1.152-0.702-1.729-2.106-1.729
			c-0.672,0-1.19,0.133-1.557,0.396s-0.549,0.594-0.549,0.989c0,0.085,0.012,0.175,0.036,0.271l-1.225,0.414
			c-0.096-0.228-0.144-0.468-0.144-0.72c0-0.696,0.314-1.293,0.944-1.791c0.631-0.498,1.461-0.747,2.493-0.747
			c1.152,0,2.025,0.255,2.619,0.765s0.892,1.228,0.892,2.151v4.031c0,0.517,0.035,0.928,0.107,1.233S407.854,804.64,408.07,805z
			 M403.246,803.992c0.899,0,1.604-0.339,2.115-1.018c0.51-0.678,0.765-1.496,0.765-2.457v-0.27l-2.718,0.468
			c-0.612,0.108-1.08,0.313-1.404,0.612s-0.486,0.678-0.486,1.134c0,0.468,0.156,0.84,0.469,1.116
			C402.298,803.854,402.718,803.992,403.246,803.992z"/>
		<path fill="#ED9726" d="M411.293,798.178c0,0.433,0.201,0.769,0.602,1.008c0.402,0.24,0.994,0.433,1.773,0.576
			c2.004,0.385,3.006,1.261,3.006,2.628c0,0.805-0.299,1.482-0.898,2.034c-0.602,0.553-1.43,0.828-2.484,0.828
			c-0.938,0-1.732-0.243-2.385-0.729c-0.654-0.486-1.125-1.107-1.414-1.863l1.17-0.72c0.516,1.392,1.393,2.088,2.629,2.088
			c0.611,0,1.094-0.142,1.449-0.423c0.354-0.282,0.529-0.669,0.529-1.161c0-0.433-0.182-0.771-0.549-1.018
			c-0.365-0.245-0.943-0.44-1.736-0.585c-0.889-0.168-1.607-0.465-2.16-0.891s-0.828-0.999-0.828-1.719
			c0-0.732,0.301-1.317,0.9-1.756c0.6-0.438,1.326-0.656,2.178-0.656c1.717,0,2.873,0.72,3.475,2.16l-1.08,0.63
			c-0.432-1.068-1.225-1.603-2.377-1.603c-0.527,0-0.959,0.1-1.295,0.297C411.461,797.503,411.293,797.794,411.293,798.178z"/>
		<path fill="#ED9726" d="M418.689,794.524v-1.765h1.692v1.765H418.689z M418.834,805v-8.928h1.404V805H418.834z"/>
		<path fill="#ED9726" d="M430.517,798.934V805h-1.404v-5.814c0-0.684-0.195-1.205-0.585-1.565s-0.909-0.54-1.557-0.54
			c-0.708,0-1.317,0.273-1.827,0.819c-0.511,0.546-0.765,1.263-0.765,2.15V805h-1.404v-8.928h1.404v1.565
			c0.323-0.563,0.746-1.008,1.269-1.332c0.522-0.323,1.101-0.485,1.737-0.485c0.876,0,1.616,0.261,2.223,0.782
			C430.213,797.125,430.517,797.902,430.517,798.934z"/>
		<path fill="#ED9726" d="M441.073,797.98c0.474,0.731,0.711,1.584,0.711,2.556s-0.237,1.824-0.711,2.556
			c-0.475,0.732-1.06,1.275-1.755,1.629c-0.696,0.354-1.429,0.531-2.196,0.531s-1.5-0.177-2.196-0.531
			c-0.695-0.354-1.281-0.896-1.755-1.629c-0.474-0.731-0.711-1.584-0.711-2.556s0.237-1.824,0.711-2.556
			c0.474-0.732,1.06-1.275,1.755-1.63c0.696-0.354,1.429-0.53,2.196-0.53s1.5,0.177,2.196,0.53
			C440.014,796.705,440.599,797.248,441.073,797.98z M434.827,803.011c0.618,0.654,1.383,0.981,2.295,0.981s1.677-0.327,2.295-0.981
			c0.618-0.653,0.927-1.479,0.927-2.475s-0.309-1.821-0.927-2.476c-0.618-0.653-1.383-0.98-2.295-0.98s-1.677,0.327-2.295,0.98
			c-0.618,0.654-0.927,1.479-0.927,2.476S434.209,802.357,434.827,803.011z"/>
	</g>
	<g enable-background="new    ">
		<path fill="#FFFFFF" d="M448.894,797.188v-1.116h1.494v-2.412h1.404v2.412h2.052v1.116h-2.052v5.399
			c0,0.517,0.081,0.885,0.243,1.107c0.162,0.222,0.488,0.333,0.98,0.333c0.204,0,0.426-0.036,0.666-0.108l0.126,1.17
			c-0.312,0.108-0.708,0.162-1.188,0.162c-0.648,0-1.183-0.188-1.603-0.567c-0.42-0.378-0.63-0.986-0.63-1.826v-5.67H448.894z"/>
		<path fill="#FFFFFF" d="M463.573,797.98c0.474,0.731,0.711,1.584,0.711,2.556s-0.237,1.824-0.711,2.556
			c-0.475,0.732-1.06,1.275-1.756,1.629c-0.695,0.354-1.428,0.531-2.195,0.531c-0.769,0-1.5-0.177-2.196-0.531
			c-0.696-0.354-1.281-0.896-1.755-1.629c-0.475-0.731-0.711-1.584-0.711-2.556s0.236-1.824,0.711-2.556
			c0.474-0.732,1.059-1.275,1.755-1.63c0.696-0.354,1.428-0.53,2.196-0.53c0.768,0,1.5,0.177,2.195,0.53
			C462.514,796.705,463.099,797.248,463.573,797.98z M457.327,803.011c0.617,0.654,1.383,0.981,2.295,0.981
			c0.911,0,1.677-0.327,2.295-0.981c0.618-0.653,0.927-1.479,0.927-2.475s-0.309-1.821-0.927-2.476
			c-0.618-0.653-1.384-0.98-2.295-0.98c-0.912,0-1.678,0.327-2.295,0.98c-0.618,0.654-0.928,1.479-0.928,2.476
			S456.709,802.357,457.327,803.011z"/>
		<path fill="#FFFFFF" d="M467.812,792.4v7.02l3.402-3.348h1.674l-3.078,3.042L473.5,805h-1.603l-3.06-4.896l-1.026,1.026V805
			h-1.403v-12.6H467.812z"/>
		<path fill="#FFFFFF" d="M482.519,800.77h-7.38c0.048,0.961,0.348,1.75,0.899,2.367c0.552,0.618,1.278,0.928,2.179,0.928
			c0.756,0,1.364-0.178,1.827-0.531c0.461-0.354,0.854-0.855,1.179-1.503l1.025,0.611c-0.876,1.74-2.237,2.61-4.086,2.61
			c-1.235,0-2.283-0.447-3.141-1.341c-0.858-0.894-1.287-2.019-1.287-3.375s0.433-2.481,1.296-3.375
			c0.864-0.894,1.926-1.341,3.187-1.341c1.319,0,2.367,0.414,3.141,1.241c0.774,0.828,1.161,1.902,1.161,3.223V800.77z
			 M478.217,797.008c-0.78,0-1.429,0.237-1.944,0.711c-0.516,0.475-0.858,1.107-1.026,1.899h5.868
			c-0.048-0.804-0.359-1.44-0.936-1.908S478.948,797.008,478.217,797.008z"/>
		<path fill="#FFFFFF" d="M492.22,798.934V805h-1.404v-5.814c0-0.684-0.195-1.205-0.585-1.565s-0.909-0.54-1.557-0.54
			c-0.708,0-1.317,0.273-1.827,0.819c-0.511,0.546-0.765,1.263-0.765,2.15V805h-1.404v-8.928h1.404v1.565
			c0.323-0.563,0.746-1.008,1.269-1.332c0.522-0.323,1.101-0.485,1.737-0.485c0.876,0,1.616,0.261,2.223,0.782
			C491.916,797.125,492.22,797.902,492.22,798.934z"/>
		<path fill="#FFFFFF" d="M495.856,798.178c0,0.433,0.201,0.769,0.603,1.008c0.402,0.24,0.993,0.433,1.773,0.576
			c2.004,0.385,3.006,1.261,3.006,2.628c0,0.805-0.3,1.482-0.899,2.034c-0.601,0.553-1.429,0.828-2.484,0.828
			c-0.937,0-1.731-0.243-2.385-0.729c-0.654-0.486-1.125-1.107-1.413-1.863l1.17-0.72c0.516,1.392,1.392,2.088,2.628,2.088
			c0.612,0,1.095-0.142,1.449-0.423c0.354-0.282,0.53-0.669,0.53-1.161c0-0.433-0.183-0.771-0.549-1.018
			c-0.366-0.245-0.944-0.44-1.736-0.585c-0.889-0.168-1.608-0.465-2.16-0.891c-0.553-0.426-0.828-0.999-0.828-1.719
			c0-0.732,0.3-1.317,0.899-1.756c0.601-0.438,1.326-0.656,2.179-0.656c1.716,0,2.873,0.72,3.474,2.16l-1.08,0.63
			c-0.432-1.068-1.224-1.603-2.376-1.603c-0.528,0-0.96,0.1-1.296,0.297C496.024,797.503,495.856,797.794,495.856,798.178z"/>
	</g>
	<g>
		<path fill="#F3951A" d="M472,100H322c-27.57,0-50-22.43-50-50s22.43-50,50-50h150c27.57,0,50,22.43,50,50S499.57,100,472,100z
			 M322,2c-26.467,0-48,21.533-48,48s21.533,48,48,48h150c26.467,0,48-21.533,48-48S498.467,2,472,2H322z"/>
	</g>
	<g enable-background="new    ">
		<path fill="#FFFFFF" d="M332.677,51.202l1.134,0.828c-1.14,2.147-2.916,3.222-5.328,3.222c-1.74,0-3.186-0.621-4.338-1.863
			c-1.152-1.241-1.728-2.805-1.728-4.688c0-1.86,0.6-3.417,1.8-4.671c1.2-1.254,2.652-1.881,4.356-1.881
			c1.224,0,2.295,0.291,3.213,0.873s1.599,1.371,2.043,2.366l-1.17,0.828c-0.864-1.823-2.238-2.735-4.122-2.735
			c-1.284,0-2.367,0.501-3.249,1.503c-0.882,1.002-1.323,2.24-1.323,3.717c0,1.5,0.423,2.745,1.269,3.734
			c0.846,0.99,1.941,1.485,3.285,1.485c0.948,0,1.755-0.213,2.421-0.639C331.606,52.855,332.185,52.162,332.677,51.202z"/>
		<path fill="#FFFFFF" d="M343.405,55h-1.404c-0.36-0.432-0.54-1.02-0.54-1.764c-0.276,0.647-0.681,1.146-1.215,1.494
			c-0.534,0.348-1.143,0.521-1.827,0.521c-0.9,0-1.626-0.255-2.178-0.765c-0.552-0.51-0.828-1.161-0.828-1.953
			c0-0.816,0.285-1.47,0.855-1.962c0.57-0.492,1.311-0.811,2.223-0.954l2.97-0.486v-0.396c0-1.152-0.702-1.729-2.106-1.729
			c-0.672,0-1.191,0.133-1.557,0.396s-0.549,0.594-0.549,0.989c0,0.085,0.012,0.175,0.036,0.271l-1.224,0.414
			c-0.096-0.228-0.144-0.468-0.144-0.72c0-0.696,0.315-1.293,0.945-1.791c0.63-0.498,1.461-0.747,2.493-0.747
			c1.152,0,2.025,0.255,2.619,0.765c0.594,0.51,0.891,1.228,0.891,2.151v4.031c0,0.517,0.036,0.928,0.108,1.233
			C343.045,54.307,343.189,54.64,343.405,55z M338.581,53.992c0.9,0,1.605-0.339,2.115-1.018c0.51-0.678,0.765-1.496,0.765-2.457
			v-0.27l-2.718,0.468c-0.612,0.108-1.08,0.313-1.404,0.612c-0.324,0.3-0.486,0.678-0.486,1.134c0,0.468,0.156,0.84,0.468,1.116
			C337.633,53.854,338.053,53.992,338.581,53.992z"/>
		<path fill="#FFFFFF" d="M346.628,48.178c0,0.433,0.201,0.769,0.602,1.008c0.402,0.24,0.994,0.433,1.773,0.576
			c2.004,0.385,3.006,1.261,3.006,2.628c0,0.805-0.299,1.482-0.898,2.034c-0.602,0.553-1.43,0.828-2.484,0.828
			c-0.938,0-1.732-0.243-2.385-0.729c-0.654-0.486-1.125-1.107-1.414-1.863l1.17-0.72c0.516,1.392,1.393,2.088,2.629,2.088
			c0.611,0,1.094-0.142,1.449-0.423c0.354-0.282,0.529-0.669,0.529-1.161c0-0.433-0.182-0.771-0.549-1.018
			c-0.365-0.245-0.943-0.44-1.736-0.585c-0.889-0.168-1.607-0.465-2.16-0.891s-0.828-0.999-0.828-1.719
			c0-0.732,0.301-1.317,0.9-1.756c0.6-0.438,1.326-0.656,2.178-0.656c1.717,0,2.873,0.72,3.475,2.16l-1.08,0.63
			c-0.432-1.068-1.225-1.603-2.377-1.603c-0.527,0-0.959,0.1-1.295,0.297C346.796,47.503,346.628,47.794,346.628,48.178z"/>
		<path fill="#FFFFFF" d="M354.024,44.524V42.76h1.692v1.765H354.024z M354.169,55v-8.928h1.404V55H354.169z"/>
		<path fill="#FFFFFF" d="M365.852,48.934V55h-1.404v-5.814c0-0.684-0.195-1.205-0.585-1.565s-0.909-0.54-1.557-0.54
			c-0.708,0-1.317,0.273-1.827,0.819c-0.511,0.546-0.765,1.263-0.765,2.15V55h-1.404v-8.928h1.404v1.565
			c0.323-0.563,0.746-1.008,1.269-1.332c0.522-0.323,1.101-0.485,1.737-0.485c0.876,0,1.616,0.261,2.223,0.782
			C365.548,47.125,365.852,47.902,365.852,48.934z"/>
		<path fill="#FFFFFF" d="M376.408,47.98c0.474,0.731,0.711,1.584,0.711,2.556s-0.237,1.824-0.711,2.556
			c-0.475,0.732-1.06,1.275-1.755,1.629c-0.696,0.354-1.429,0.531-2.196,0.531s-1.5-0.177-2.196-0.531
			c-0.695-0.354-1.281-0.896-1.755-1.629c-0.474-0.731-0.711-1.584-0.711-2.556s0.237-1.824,0.711-2.556
			c0.474-0.732,1.06-1.275,1.755-1.63c0.696-0.354,1.429-0.53,2.196-0.53s1.5,0.177,2.196,0.53
			C375.349,46.705,375.934,47.248,376.408,47.98z M370.162,53.011c0.618,0.654,1.383,0.981,2.295,0.981s1.677-0.327,2.295-0.981
			c0.618-0.653,0.927-1.479,0.927-2.475s-0.309-1.821-0.927-2.476c-0.618-0.653-1.383-0.98-2.295-0.98s-1.677,0.327-2.295,0.98
			c-0.618,0.654-0.927,1.479-0.927,2.476S369.544,52.357,370.162,53.011z"/>
		<path fill="#FFFFFF" d="M394.272,43.975c1.164,1.219,1.746,2.794,1.746,4.726s-0.582,3.507-1.746,4.725
			c-1.164,1.219-2.609,1.827-4.338,1.827c-1.728,0-3.174-0.608-4.338-1.827c-1.164-1.218-1.746-2.793-1.746-4.725
			s0.582-3.507,1.746-4.726c1.164-1.218,2.61-1.826,4.338-1.826C391.663,42.148,393.108,42.757,394.272,43.975z M386.686,52.471
			c0.858,0.967,1.941,1.449,3.249,1.449s2.391-0.482,3.249-1.449c0.858-0.966,1.287-2.223,1.287-3.771s-0.429-2.805-1.287-3.771
			c-0.858-0.966-1.941-1.448-3.249-1.448s-2.391,0.482-3.249,1.448c-0.857,0.967-1.287,2.224-1.287,3.771
			S385.828,51.505,386.686,52.471z"/>
		<path fill="#FFFFFF" d="M398.395,58.672v-12.6h1.404v1.602c0.275-0.54,0.701-0.983,1.277-1.332
			c0.576-0.348,1.218-0.521,1.926-0.521c1.2,0,2.202,0.432,3.007,1.296c0.804,0.864,1.206,2.004,1.206,3.42s-0.414,2.556-1.242,3.42
			s-1.849,1.296-3.061,1.296c-1.392,0-2.43-0.558-3.113-1.674v5.094H398.395z M404.91,48.061c-0.576-0.63-1.302-0.944-2.178-0.944
			s-1.603,0.314-2.178,0.944c-0.576,0.631-0.864,1.456-0.864,2.476s0.288,1.845,0.864,2.475c0.575,0.63,1.302,0.945,2.178,0.945
			s1.602-0.315,2.178-0.945s0.864-1.455,0.864-2.475S405.486,48.691,404.91,48.061z"/>
		<path fill="#FFFFFF" d="M417.511,50.77h-7.38c0.048,0.961,0.348,1.75,0.899,2.367c0.552,0.618,1.278,0.928,2.179,0.928
			c0.756,0,1.364-0.178,1.827-0.531c0.461-0.354,0.854-0.855,1.179-1.503l1.025,0.611c-0.876,1.74-2.237,2.61-4.086,2.61
			c-1.235,0-2.283-0.447-3.141-1.341c-0.858-0.894-1.287-2.019-1.287-3.375s0.433-2.481,1.296-3.375
			c0.864-0.894,1.926-1.341,3.187-1.341c1.319,0,2.367,0.414,3.141,1.241c0.774,0.828,1.161,1.902,1.161,3.223V50.77z
			 M413.209,47.008c-0.78,0-1.429,0.237-1.944,0.711c-0.516,0.475-0.858,1.107-1.026,1.899h5.868
			c-0.048-0.804-0.359-1.44-0.936-1.908S413.94,47.008,413.209,47.008z"/>
		<path fill="#FFFFFF" d="M424.278,45.91l-0.233,1.313c-0.216-0.071-0.45-0.107-0.702-0.107c-0.636,0-1.173,0.278-1.611,0.837
			c-0.438,0.558-0.656,1.281-0.656,2.169V55h-1.404v-8.928h1.404v1.62c0.575-1.248,1.439-1.872,2.592-1.872
			C423.858,45.82,424.063,45.85,424.278,45.91z"/>
		<path fill="#FFFFFF" d="M433.116,55h-1.403c-0.36-0.432-0.54-1.02-0.54-1.764c-0.276,0.647-0.682,1.146-1.216,1.494
			c-0.533,0.348-1.143,0.521-1.826,0.521c-0.9,0-1.627-0.255-2.179-0.765s-0.828-1.161-0.828-1.953c0-0.816,0.285-1.47,0.855-1.962
			c0.569-0.492,1.311-0.811,2.223-0.954l2.971-0.486v-0.396c0-1.152-0.702-1.729-2.106-1.729c-0.672,0-1.191,0.133-1.557,0.396
			c-0.366,0.264-0.549,0.594-0.549,0.989c0,0.085,0.012,0.175,0.035,0.271l-1.224,0.414c-0.096-0.228-0.144-0.468-0.144-0.72
			c0-0.696,0.314-1.293,0.944-1.791s1.461-0.747,2.493-0.747c1.152,0,2.025,0.255,2.619,0.765s0.891,1.228,0.891,2.151v4.031
			c0,0.517,0.036,0.928,0.108,1.233S432.9,54.64,433.116,55z M428.292,53.992c0.9,0,1.605-0.339,2.115-1.018
			c0.51-0.678,0.766-1.496,0.766-2.457v-0.27l-2.719,0.468c-0.611,0.108-1.08,0.313-1.403,0.612c-0.324,0.3-0.486,0.678-0.486,1.134
			c0,0.468,0.156,0.84,0.468,1.116C427.345,53.854,427.765,53.992,428.292,53.992z"/>
		<path fill="#FFFFFF" d="M434.089,47.188v-1.116h1.493V43.66h1.404v2.412h2.052v1.116h-2.052v5.399
			c0,0.517,0.081,0.885,0.243,1.107c0.162,0.222,0.488,0.333,0.98,0.333c0.204,0,0.426-0.036,0.666-0.108l0.126,1.17
			c-0.312,0.108-0.708,0.162-1.188,0.162c-0.648,0-1.183-0.188-1.602-0.567c-0.421-0.378-0.631-0.986-0.631-1.826v-5.67H434.089z"/>
		<path fill="#FFFFFF" d="M448.768,47.98c0.474,0.731,0.711,1.584,0.711,2.556s-0.237,1.824-0.711,2.556
			c-0.475,0.732-1.06,1.275-1.755,1.629c-0.696,0.354-1.429,0.531-2.196,0.531s-1.5-0.177-2.196-0.531
			c-0.695-0.354-1.281-0.896-1.755-1.629c-0.474-0.731-0.711-1.584-0.711-2.556s0.237-1.824,0.711-2.556
			c0.474-0.732,1.06-1.275,1.755-1.63c0.696-0.354,1.429-0.53,2.196-0.53s1.5,0.177,2.196,0.53
			C447.708,46.705,448.293,47.248,448.768,47.98z M442.521,53.011c0.618,0.654,1.383,0.981,2.295,0.981s1.677-0.327,2.295-0.981
			c0.618-0.653,0.927-1.479,0.927-2.475s-0.309-1.821-0.927-2.476c-0.618-0.653-1.383-0.98-2.295-0.98s-1.677,0.327-2.295,0.98
			c-0.618,0.654-0.927,1.479-0.927,2.476S441.903,52.357,442.521,53.011z"/>
		<path fill="#FFFFFF" d="M456.21,45.91l-0.233,1.313c-0.216-0.071-0.45-0.107-0.702-0.107c-0.636,0-1.173,0.278-1.611,0.837
			c-0.438,0.558-0.656,1.281-0.656,2.169V55h-1.404v-8.928h1.404v1.62c0.575-1.248,1.439-1.872,2.592-1.872
			C455.79,45.82,455.994,45.85,456.21,45.91z"/>
		<path fill="#FFFFFF" d="M458.856,48.178c0,0.433,0.201,0.769,0.603,1.008c0.402,0.24,0.993,0.433,1.773,0.576
			c2.004,0.385,3.006,1.261,3.006,2.628c0,0.805-0.3,1.482-0.899,2.034c-0.601,0.553-1.429,0.828-2.484,0.828
			c-0.937,0-1.731-0.243-2.385-0.729c-0.654-0.486-1.125-1.107-1.413-1.863l1.17-0.72c0.516,1.392,1.392,2.088,2.628,2.088
			c0.612,0,1.095-0.142,1.449-0.423c0.354-0.282,0.53-0.669,0.53-1.161c0-0.433-0.183-0.771-0.549-1.018
			c-0.366-0.245-0.944-0.44-1.736-0.585c-0.889-0.168-1.608-0.465-2.16-0.891c-0.553-0.426-0.828-0.999-0.828-1.719
			c0-0.732,0.3-1.317,0.899-1.756c0.601-0.438,1.326-0.656,2.179-0.656c1.716,0,2.873,0.72,3.474,2.16l-1.08,0.63
			c-0.432-1.068-1.224-1.603-2.376-1.603c-0.528,0-0.96,0.1-1.296,0.297C459.024,47.503,458.856,47.794,458.856,48.178z"/>
	</g>
	<g>
		<path fill="#F3951A" d="M472,748H322c-27.57,0-50-22.43-50-50s22.43-50,50-50h150c27.57,0,50,22.43,50,50S499.57,748,472,748z
			 M322,650c-26.467,0-48,21.533-48,48s21.533,48,48,48h150c26.467,0,48-21.533,48-48s-21.533-48-48-48H322z"/>
	</g>
	<g enable-background="new    ">
		<path fill="#FFFFFF" d="M333.938,703l-0.432-2.178c-0.372,0.744-0.9,1.335-1.584,1.772c-0.684,0.438-1.5,0.657-2.448,0.657
			c-1.764,0-3.204-0.618-4.32-1.854c-1.116-1.236-1.674-2.803-1.674-4.698c0-1.86,0.603-3.417,1.809-4.671s2.655-1.881,4.347-1.881
			c1.2,0,2.253,0.272,3.159,0.818c0.906,0.547,1.604,1.293,2.097,2.241l-1.152,0.828c-0.528-0.912-1.125-1.566-1.791-1.962
			c-0.666-0.396-1.443-0.594-2.331-0.594c-1.26,0-2.34,0.492-3.24,1.476c-0.9,0.984-1.35,2.232-1.35,3.744
			c0,1.548,0.411,2.805,1.233,3.771c0.822,0.967,1.911,1.449,3.267,1.449c1.14,0,2.037-0.354,2.691-1.062
			c0.654-0.708,1.071-1.681,1.251-2.916h-4.428v-1.261h5.94V703H333.938z"/>
		<path fill="#FFFFFF" d="M344.829,703h-1.404c-0.36-0.432-0.54-1.02-0.54-1.764c-0.276,0.647-0.681,1.146-1.215,1.494
			c-0.534,0.348-1.143,0.521-1.827,0.521c-0.9,0-1.626-0.255-2.178-0.765c-0.552-0.51-0.828-1.161-0.828-1.953
			c0-0.816,0.285-1.47,0.855-1.962c0.57-0.492,1.311-0.811,2.223-0.954l2.97-0.486v-0.396c0-1.152-0.702-1.729-2.106-1.729
			c-0.672,0-1.191,0.133-1.557,0.396s-0.549,0.594-0.549,0.989c0,0.085,0.012,0.175,0.036,0.271l-1.224,0.414
			c-0.096-0.228-0.144-0.468-0.144-0.72c0-0.696,0.315-1.293,0.945-1.791c0.63-0.498,1.461-0.747,2.493-0.747
			c1.152,0,2.025,0.255,2.619,0.765c0.594,0.51,0.891,1.228,0.891,2.151v4.031c0,0.517,0.036,0.928,0.108,1.233
			C344.468,702.307,344.612,702.64,344.829,703z M340.004,701.992c0.9,0,1.605-0.339,2.115-1.018
			c0.51-0.678,0.765-1.496,0.765-2.457v-0.27l-2.718,0.468c-0.612,0.108-1.08,0.313-1.404,0.612c-0.324,0.3-0.486,0.678-0.486,1.134
			c0,0.468,0.156,0.84,0.468,1.116C339.056,701.854,339.476,701.992,340.004,701.992z"/>
		<path fill="#FFFFFF" d="M358.724,696.214V703h-1.404v-6.282c0-0.516-0.141-0.918-0.422-1.206
			c-0.283-0.288-0.699-0.432-1.252-0.432c-0.637,0-1.16,0.255-1.574,0.765c-0.414,0.511-0.621,1.287-0.621,2.331V703h-1.404v-6.12
			c0-0.576-0.139-1.02-0.414-1.332c-0.275-0.312-0.684-0.468-1.225-0.468c-0.635,0-1.166,0.261-1.592,0.783
			c-0.426,0.521-0.639,1.305-0.639,2.349V703h-1.404v-8.928h1.404v1.422c0.227-0.468,0.578-0.864,1.053-1.188
			c0.473-0.323,1.004-0.485,1.592-0.485c0.576,0,1.084,0.141,1.521,0.423s0.74,0.705,0.908,1.269
			c0.637-1.128,1.578-1.691,2.826-1.691c0.781,0,1.416,0.219,1.908,0.656C358.478,694.915,358.724,695.494,358.724,696.214z"/>
		<path fill="#FFFFFF" d="M369.453,698.77h-7.38c0.048,0.961,0.348,1.75,0.899,2.367c0.552,0.618,1.278,0.928,2.179,0.928
			c0.756,0,1.364-0.178,1.827-0.531c0.461-0.354,0.854-0.855,1.179-1.503l1.025,0.611c-0.876,1.74-2.237,2.61-4.086,2.61
			c-1.235,0-2.283-0.447-3.141-1.341c-0.858-0.894-1.287-2.019-1.287-3.375s0.433-2.481,1.296-3.375
			c0.864-0.894,1.926-1.341,3.187-1.341c1.319,0,2.367,0.414,3.141,1.241c0.774,0.828,1.161,1.902,1.161,3.223V698.77z
			 M365.151,695.008c-0.78,0-1.429,0.237-1.944,0.711c-0.516,0.475-0.858,1.107-1.026,1.899h5.868
			c-0.048-0.804-0.359-1.44-0.936-1.908S365.882,695.008,365.151,695.008z"/>
		<path fill="#FFFFFF" d="M376.795,703v-12.6h3.474c1.908,0,3.453,0.558,4.636,1.674c1.182,1.116,1.772,2.658,1.772,4.626
			s-0.591,3.51-1.772,4.626c-1.183,1.116-2.728,1.674-4.636,1.674H376.795z M380.179,701.668c1.524,0,2.73-0.414,3.618-1.242
			s1.332-2.069,1.332-3.726s-0.444-2.898-1.332-3.727c-0.888-0.827-2.094-1.241-3.618-1.241h-1.872v9.936H380.179z"/>
		<path fill="#FFFFFF" d="M397.226,698.77h-7.38c0.048,0.961,0.348,1.75,0.899,2.367c0.552,0.618,1.278,0.928,2.179,0.928
			c0.756,0,1.364-0.178,1.827-0.531c0.461-0.354,0.854-0.855,1.179-1.503l1.025,0.611c-0.876,1.74-2.237,2.61-4.086,2.61
			c-1.235,0-2.283-0.447-3.141-1.341c-0.858-0.894-1.287-2.019-1.287-3.375s0.433-2.481,1.296-3.375
			c0.864-0.894,1.926-1.341,3.187-1.341c1.319,0,2.367,0.414,3.141,1.241c0.774,0.828,1.161,1.902,1.161,3.223V698.77z
			 M392.924,695.008c-0.78,0-1.429,0.237-1.944,0.711c-0.516,0.475-0.858,1.107-1.026,1.899h5.868
			c-0.048-0.804-0.359-1.44-0.936-1.908S393.656,695.008,392.924,695.008z"/>
		<path fill="#FFFFFF" d="M406.478,694.072l-3.6,8.928h-1.404l-3.601-8.928h1.513l2.79,7.308l2.79-7.308H406.478z"/>
		<path fill="#FFFFFF" d="M415.873,698.77h-7.38c0.048,0.961,0.348,1.75,0.899,2.367c0.552,0.618,1.278,0.928,2.179,0.928
			c0.756,0,1.364-0.178,1.827-0.531c0.461-0.354,0.854-0.855,1.179-1.503l1.025,0.611c-0.876,1.74-2.237,2.61-4.086,2.61
			c-1.235,0-2.283-0.447-3.141-1.341c-0.858-0.894-1.287-2.019-1.287-3.375s0.433-2.481,1.296-3.375
			c0.864-0.894,1.926-1.341,3.187-1.341c1.319,0,2.367,0.414,3.141,1.241c0.774,0.828,1.161,1.902,1.161,3.223V698.77z
			 M411.571,695.008c-0.78,0-1.429,0.237-1.944,0.711c-0.516,0.475-0.858,1.107-1.026,1.899h5.868
			c-0.048-0.804-0.359-1.44-0.936-1.908S412.303,695.008,411.571,695.008z"/>
		<path fill="#FFFFFF" d="M418.033,703v-12.6h1.404V703H418.033z"/>
		<path fill="#FFFFFF" d="M430.174,695.98c0.474,0.731,0.711,1.584,0.711,2.556s-0.237,1.824-0.711,2.556
			c-0.475,0.732-1.06,1.275-1.755,1.629c-0.696,0.354-1.429,0.531-2.196,0.531s-1.5-0.177-2.196-0.531
			c-0.695-0.354-1.281-0.896-1.755-1.629c-0.474-0.731-0.711-1.584-0.711-2.556s0.237-1.824,0.711-2.556
			c0.474-0.732,1.06-1.275,1.755-1.63c0.696-0.354,1.429-0.53,2.196-0.53s1.5,0.177,2.196,0.53
			C429.114,694.705,429.699,695.248,430.174,695.98z M423.928,701.011c0.618,0.654,1.383,0.981,2.295,0.981s1.677-0.327,2.295-0.981
			c0.618-0.653,0.927-1.479,0.927-2.475s-0.309-1.821-0.927-2.476c-0.618-0.653-1.383-0.98-2.295-0.98s-1.677,0.327-2.295,0.98
			c-0.618,0.654-0.927,1.479-0.927,2.476S423.31,700.357,423.928,701.011z"/>
		<path fill="#FFFFFF" d="M433.009,706.672v-12.6h1.404v1.602c0.275-0.54,0.701-0.983,1.277-1.332
			c0.576-0.348,1.218-0.521,1.926-0.521c1.2,0,2.202,0.432,3.007,1.296c0.804,0.864,1.206,2.004,1.206,3.42s-0.414,2.556-1.242,3.42
			s-1.849,1.296-3.061,1.296c-1.392,0-2.43-0.558-3.113-1.674v5.094H433.009z M439.524,696.061c-0.576-0.63-1.302-0.944-2.178-0.944
			s-1.603,0.314-2.178,0.944c-0.576,0.631-0.864,1.456-0.864,2.476s0.288,1.845,0.864,2.475c0.575,0.63,1.302,0.945,2.178,0.945
			s1.602-0.315,2.178-0.945s0.864-1.455,0.864-2.475S440.101,696.691,439.524,696.061z"/>
		<path fill="#FFFFFF" d="M452.124,698.77h-7.38c0.048,0.961,0.348,1.75,0.899,2.367c0.552,0.618,1.278,0.928,2.179,0.928
			c0.756,0,1.364-0.178,1.827-0.531c0.461-0.354,0.854-0.855,1.179-1.503l1.025,0.611c-0.876,1.74-2.237,2.61-4.086,2.61
			c-1.235,0-2.283-0.447-3.141-1.341c-0.858-0.894-1.287-2.019-1.287-3.375s0.433-2.481,1.296-3.375
			c0.864-0.894,1.926-1.341,3.187-1.341c1.319,0,2.367,0.414,3.141,1.241c0.774,0.828,1.161,1.902,1.161,3.223V698.77z
			 M447.822,695.008c-0.78,0-1.429,0.237-1.944,0.711c-0.516,0.475-0.858,1.107-1.026,1.899h5.868
			c-0.048-0.804-0.359-1.44-0.936-1.908S448.554,695.008,447.822,695.008z"/>
		<path fill="#FFFFFF" d="M458.892,693.91l-0.233,1.313c-0.216-0.071-0.45-0.107-0.702-0.107c-0.636,0-1.173,0.278-1.611,0.837
			c-0.438,0.558-0.656,1.281-0.656,2.169V703h-1.404v-8.928h1.404v1.62c0.575-1.248,1.439-1.872,2.592-1.872
			C458.472,693.82,458.676,693.85,458.892,693.91z"/>
		<path fill="#FFFFFF" d="M461.538,696.178c0,0.433,0.201,0.769,0.603,1.008c0.402,0.24,0.993,0.433,1.773,0.576
			c2.004,0.385,3.006,1.261,3.006,2.628c0,0.805-0.3,1.482-0.899,2.034c-0.601,0.553-1.429,0.828-2.484,0.828
			c-0.937,0-1.731-0.243-2.385-0.729c-0.654-0.486-1.125-1.107-1.413-1.863l1.17-0.72c0.516,1.392,1.392,2.088,2.628,2.088
			c0.612,0,1.095-0.142,1.449-0.423c0.354-0.282,0.53-0.669,0.53-1.161c0-0.433-0.183-0.771-0.549-1.018
			c-0.366-0.245-0.944-0.44-1.736-0.585c-0.889-0.168-1.608-0.465-2.16-0.891c-0.553-0.426-0.828-0.999-0.828-1.719
			c0-0.732,0.3-1.317,0.899-1.756c0.601-0.438,1.326-0.656,2.179-0.656c1.716,0,2.873,0.72,3.474,2.16l-1.08,0.63
			c-0.432-1.068-1.224-1.603-2.376-1.603c-0.528,0-0.96,0.1-1.296,0.297C461.706,695.503,461.538,695.794,461.538,696.178z"/>
	</g>
	<g>
		<path fill="#F3951A" d="M397,444c-44.112,0-80-35.888-80-80s35.888-80,80-80s80,35.888,80,80S441.112,444,397,444z M397,286
			c-43.009,0-78,34.991-78,78c0,43.01,34.991,78,78,78c43.01,0,78-34.99,78-78C475,320.991,440.01,286,397,286z"/>
	</g>
	<g transform="translate(370 341)">
		<g>
			<ellipse fill="#EE9828" cx="1.491" cy="12.772" rx="1.491" ry="2.785"/>
		</g>
		<g>
			<ellipse fill="#EE9828" cx="1.491" cy="31.981" rx="1.491" ry="2.785"/>
		</g>
		<g>
			<ellipse fill="#EE9828" cx="9.927" cy="21.685" rx="1.749" ry="3.277"/>
		</g>
		<g>
			<path fill="#EE9828" d="M51.663,5.578L27.987,0c-1.112,0.029-1.99,0.953-1.963,2.065v40.718c-0.008,0.542-0.21,1.064-0.569,1.47
				c-0.388,0.35-0.875,0.573-1.395,0.64c0.6,0.318,1.28,0.453,1.956,0.389c1.653-0.272,4.62-1.015,4.62-1.015H30.6l20.835-4.901
				c2.215-0.5,3.285-1.705,3.285-3.674V8.818C54.735,6.915,53.878,6.063,51.663,5.578L51.663,5.578z M34.614,39.49
				c-1.136,0-2.059-1.727-2.059-3.85c0-2.124,0.923-3.851,2.06-3.851c1.136,0,2.059,1.727,2.059,3.85
				C36.674,37.763,35.751,39.489,34.614,39.49L34.614,39.49z M34.614,12.962c-1.136,0-2.059-1.727-2.059-3.85
				c0-2.125,0.923-3.851,2.06-3.851c1.136,0,2.059,1.726,2.059,3.85S35.751,12.961,34.614,12.962L34.614,12.962z M50.187,34.772
				c-0.826,0-1.476-1.25-1.476-2.785c0-1.536,0.664-2.785,1.476-2.785s1.476,1.25,1.476,2.785
				C51.663,33.523,51.021,34.772,50.187,34.772z M50.187,15.563c-0.826,0-1.476-1.25-1.476-2.785c0-1.536,0.664-2.785,1.476-2.785
				s1.476,1.25,1.476,2.785c0,1.536-0.642,2.778-1.476,2.778V15.563z"/>
		</g>
		<g>
			<ellipse fill="#EE9828" cx="19.949" cy="9.112" rx="2.052" ry="3.851"/>
		</g>
		<g>
			<ellipse fill="#EE9828" cx="19.949" cy="35.64" rx="2.052" ry="3.851"/>
		</g>
	</g>
	<g transform="translate(634 131)">
		<g>
			<path fill="#F3951A" d="M80,160c-44.112,0-80-35.888-80-80S35.888,0,80,0s80,35.888,80,80S124.112,160,80,160z M80,2
				C36.99,2,2,36.991,2,80s34.99,78,78,78s78-34.991,78-78S123.01,2,80,2z"/>
		</g>
		<g enable-background="new    ">
			<path fill="#FFFFFF" d="M42.425,73V60.4h1.513V73H42.425z"/>
			<path fill="#FFFFFF" d="M54.431,66.934V73h-1.404v-5.814c0-0.684-0.194-1.205-0.585-1.565c-0.39-0.36-0.908-0.54-1.557-0.54
				c-0.708,0-1.317,0.273-1.827,0.819s-0.765,1.263-0.765,2.15V73h-1.404v-8.928h1.404v1.565c0.324-0.563,0.747-1.008,1.269-1.332
				c0.522-0.323,1.101-0.485,1.737-0.485c0.876,0,1.617,0.261,2.223,0.782C54.128,65.125,54.431,65.902,54.431,66.934z"/>
			<path fill="#FFFFFF" d="M64.547,64.072L60.947,73h-1.404l-3.6-8.928h1.512l2.79,7.308l2.79-7.308H64.547z"/>
			<path fill="#FFFFFF" d="M73.942,68.77h-7.38c0.048,0.961,0.348,1.75,0.899,2.367c0.552,0.618,1.278,0.928,2.179,0.928
				c0.756,0,1.364-0.178,1.827-0.531c0.461-0.354,0.854-0.855,1.179-1.503l1.025,0.611c-0.876,1.74-2.237,2.61-4.086,2.61
				c-1.235,0-2.283-0.447-3.141-1.341c-0.858-0.894-1.287-2.019-1.287-3.375s0.433-2.481,1.296-3.375
				c0.864-0.894,1.926-1.341,3.187-1.341c1.319,0,2.367,0.414,3.141,1.241c0.774,0.828,1.161,1.902,1.161,3.223V68.77z
				 M69.641,65.008c-0.78,0-1.429,0.237-1.944,0.711c-0.516,0.475-0.858,1.107-1.026,1.899h5.868
				c-0.048-0.804-0.359-1.44-0.936-1.908S70.372,65.008,69.641,65.008z"/>
			<path fill="#FFFFFF" d="M77.146,66.178c0,0.433,0.201,0.769,0.603,1.008c0.402,0.24,0.993,0.433,1.773,0.576
				c2.004,0.385,3.006,1.261,3.006,2.628c0,0.805-0.3,1.482-0.899,2.034c-0.601,0.553-1.429,0.828-2.484,0.828
				c-0.937,0-1.731-0.243-2.385-0.729c-0.654-0.486-1.125-1.107-1.413-1.863l1.17-0.72c0.516,1.392,1.392,2.088,2.628,2.088
				c0.612,0,1.095-0.142,1.449-0.423c0.354-0.282,0.53-0.669,0.53-1.161c0-0.433-0.183-0.771-0.549-1.018
				c-0.366-0.245-0.944-0.44-1.736-0.585c-0.889-0.168-1.608-0.465-2.16-0.891c-0.553-0.426-0.828-0.999-0.828-1.719
				c0-0.732,0.3-1.317,0.899-1.756c0.601-0.438,1.326-0.656,2.179-0.656c1.716,0,2.873,0.72,3.474,2.16l-1.08,0.63
				c-0.432-1.068-1.224-1.603-2.376-1.603c-0.528,0-0.96,0.1-1.296,0.297C77.314,65.503,77.146,65.794,77.146,66.178z"/>
			<path fill="#FFFFFF" d="M83.663,65.188v-1.116h1.493V61.66h1.404v2.412h2.052v1.116h-2.052v5.399
				c0,0.517,0.081,0.885,0.243,1.107c0.162,0.222,0.488,0.333,0.98,0.333c0.204,0,0.426-0.036,0.666-0.108l0.126,1.17
				c-0.312,0.108-0.708,0.162-1.188,0.162c-0.648,0-1.183-0.188-1.602-0.567c-0.421-0.378-0.631-0.986-0.631-1.826v-5.67H83.663z"/>
			<path fill="#FFFFFF" d="M98.342,65.98c0.474,0.731,0.711,1.584,0.711,2.556s-0.237,1.824-0.711,2.556
				c-0.475,0.732-1.06,1.275-1.755,1.629c-0.696,0.354-1.429,0.531-2.196,0.531s-1.5-0.177-2.196-0.531
				c-0.695-0.354-1.281-0.896-1.755-1.629c-0.474-0.731-0.711-1.584-0.711-2.556s0.237-1.824,0.711-2.556
				c0.474-0.732,1.06-1.275,1.755-1.63c0.696-0.354,1.429-0.53,2.196-0.53s1.5,0.177,2.196,0.53
				C97.282,64.705,97.867,65.248,98.342,65.98z M92.096,71.011c0.618,0.654,1.383,0.981,2.295,0.981s1.677-0.327,2.295-0.981
				c0.618-0.653,0.927-1.479,0.927-2.475s-0.309-1.821-0.927-2.476c-0.618-0.653-1.383-0.98-2.295-0.98s-1.677,0.327-2.295,0.98
				c-0.618,0.654-0.927,1.479-0.927,2.476S91.478,70.357,92.096,71.011z"/>
			<path fill="#FFFFFF" d="M105.784,63.91l-0.233,1.313c-0.216-0.071-0.45-0.107-0.702-0.107c-0.636,0-1.173,0.278-1.611,0.837
				c-0.438,0.558-0.656,1.281-0.656,2.169V73h-1.404v-8.928h1.404v1.62c0.575-1.248,1.439-1.872,2.592-1.872
				C105.364,63.82,105.568,63.85,105.784,63.91z"/>
			<path fill="#FFFFFF" d="M108.431,66.178c0,0.433,0.201,0.769,0.603,1.008c0.402,0.24,0.993,0.433,1.773,0.576
				c2.004,0.385,3.006,1.261,3.006,2.628c0,0.805-0.3,1.482-0.899,2.034c-0.601,0.553-1.429,0.828-2.484,0.828
				c-0.937,0-1.731-0.243-2.385-0.729c-0.654-0.486-1.125-1.107-1.413-1.863l1.17-0.72c0.516,1.392,1.392,2.088,2.628,2.088
				c0.612,0,1.095-0.142,1.449-0.423c0.354-0.282,0.53-0.669,0.53-1.161c0-0.433-0.183-0.771-0.549-1.018
				c-0.366-0.245-0.944-0.44-1.736-0.585c-0.889-0.168-1.608-0.465-2.16-0.891c-0.553-0.426-0.828-0.999-0.828-1.719
				c0-0.732,0.3-1.317,0.899-1.756c0.601-0.438,1.326-0.656,2.179-0.656c1.716,0,2.873,0.72,3.474,2.16l-1.08,0.63
				c-0.432-1.068-1.224-1.603-2.376-1.603c-0.528,0-0.96,0.1-1.296,0.297C108.599,65.503,108.431,65.794,108.431,66.178z"/>
		</g>
		<g>
		</g>
		<g enable-background="new    ">
			<path fill="#FFFFFF" d="M43.055,97h-1.619l-0.811-1.062c-0.876,0.876-1.969,1.313-3.275,1.313c-1.164,0-2.115-0.36-2.854-1.08
				s-1.107-1.62-1.107-2.7c0-1.548,0.822-2.819,2.467-3.815c-0.588-0.816-0.883-1.698-0.883-2.646c0-0.815,0.285-1.496,0.855-2.043
				c0.57-0.546,1.257-0.818,2.061-0.818c0.852,0,1.53,0.225,2.034,0.675c0.505,0.45,0.757,1.059,0.757,1.827
				c0,0.336-0.061,0.653-0.181,0.953c-0.12,0.301-0.261,0.553-0.423,0.757s-0.394,0.417-0.693,0.639s-0.555,0.394-0.765,0.513
				c-0.21,0.12-0.501,0.276-0.873,0.469l2.897,3.834c0.42-0.769,0.727-1.681,0.918-2.736l1.17,0.647
				c-0.299,1.272-0.719,2.335-1.26,3.187L43.055,97z M37.439,95.992c0.911,0,1.715-0.36,2.412-1.08l-3.259-4.284
				c-1.176,0.804-1.764,1.758-1.764,2.862c0,0.756,0.258,1.362,0.774,1.817C36.119,95.765,36.73,95.992,37.439,95.992z
				 M36.305,86.992c0,0.72,0.24,1.404,0.721,2.052c0.924-0.432,1.548-0.81,1.871-1.134c0.324-0.324,0.486-0.714,0.486-1.17
				c0-0.42-0.146-0.759-0.441-1.018c-0.293-0.258-0.645-0.387-1.053-0.387c-0.468,0-0.849,0.156-1.143,0.468
				C36.451,86.116,36.305,86.512,36.305,86.992z"/>
			<path fill="#FFFFFF" d="M50.363,97V84.4h4.607c1.188,0,2.145,0.285,2.871,0.854c0.727,0.57,1.09,1.299,1.09,2.188
				c0,1.319-0.732,2.244-2.197,2.771c0.828,0.276,1.477,0.663,1.945,1.161c0.467,0.498,0.701,1.167,0.701,2.007
				c0,1.08-0.426,1.953-1.277,2.619C57.25,96.667,56.219,97,55.007,97H50.363z M51.875,85.66v4.032h2.988
				c0.791,0,1.428-0.165,1.908-0.495c0.479-0.33,0.719-0.837,0.719-1.521c0-0.684-0.24-1.19-0.719-1.521
				c-0.48-0.33-1.117-0.495-1.908-0.495H51.875z M51.875,90.952v4.788h2.898c0.947,0,1.713-0.192,2.295-0.576
				s0.873-0.99,0.873-1.818s-0.291-1.434-0.873-1.817s-1.348-0.576-2.295-0.576H51.875z"/>
			<path fill="#FFFFFF" d="M68.885,97h-1.403c-0.36-0.432-0.54-1.02-0.54-1.764c-0.276,0.647-0.682,1.146-1.216,1.494
				c-0.533,0.348-1.143,0.521-1.826,0.521c-0.9,0-1.627-0.255-2.179-0.765s-0.828-1.161-0.828-1.953c0-0.816,0.285-1.47,0.855-1.962
				c0.569-0.492,1.311-0.811,2.223-0.954l2.971-0.486v-0.396c0-1.152-0.702-1.729-2.106-1.729c-0.672,0-1.191,0.133-1.557,0.396
				c-0.366,0.264-0.549,0.594-0.549,0.989c0,0.085,0.012,0.175,0.035,0.271l-1.224,0.414c-0.096-0.228-0.144-0.468-0.144-0.72
				c0-0.696,0.314-1.293,0.944-1.791s1.461-0.747,2.493-0.747c1.152,0,2.025,0.255,2.619,0.765s0.891,1.228,0.891,2.151v4.031
				c0,0.517,0.036,0.928,0.108,1.233S68.669,96.64,68.885,97z M64.061,95.992c0.9,0,1.605-0.339,2.115-1.018
				c0.51-0.678,0.766-1.496,0.766-2.457v-0.27l-2.719,0.468c-0.611,0.108-1.08,0.313-1.403,0.612
				c-0.324,0.3-0.486,0.678-0.486,1.134c0,0.468,0.156,0.84,0.468,1.116C63.113,95.854,63.533,95.992,64.061,95.992z"/>
			<path fill="#FFFFFF" d="M78.371,90.934V97h-1.404v-5.814c0-0.684-0.195-1.205-0.585-1.565s-0.909-0.54-1.557-0.54
				c-0.708,0-1.317,0.273-1.827,0.819c-0.511,0.546-0.765,1.263-0.765,2.15V97h-1.404v-8.928h1.404v1.565
				c0.323-0.563,0.746-1.008,1.269-1.332c0.522-0.323,1.101-0.485,1.737-0.485c0.876,0,1.616,0.261,2.223,0.782
				C78.067,89.125,78.371,89.902,78.371,90.934z"/>
			<path fill="#FFFFFF" d="M82.295,84.4v7.02l3.401-3.348h1.674l-3.078,3.042L87.982,97h-1.602l-3.061-4.896l-1.025,1.026V97h-1.404
				V84.4H82.295z"/>
			<path fill="#FFFFFF" d="M93.977,87.91l-0.233,1.313c-0.216-0.071-0.45-0.107-0.702-0.107c-0.636,0-1.173,0.278-1.611,0.837
				c-0.438,0.558-0.656,1.281-0.656,2.169V97h-1.404v-8.928h1.404v1.62c0.575-1.248,1.439-1.872,2.592-1.872
				C93.557,87.82,93.761,87.85,93.977,87.91z"/>
			<path fill="#FFFFFF" d="M103.22,89.98c0.474,0.731,0.711,1.584,0.711,2.556s-0.237,1.824-0.711,2.556
				c-0.475,0.732-1.06,1.275-1.755,1.629c-0.696,0.354-1.429,0.531-2.196,0.531s-1.5-0.177-2.196-0.531
				c-0.695-0.354-1.281-0.896-1.755-1.629c-0.474-0.731-0.711-1.584-0.711-2.556s0.237-1.824,0.711-2.556
				c0.474-0.732,1.06-1.275,1.755-1.63c0.696-0.354,1.429-0.53,2.196-0.53s1.5,0.177,2.196,0.53
				C102.16,88.705,102.745,89.248,103.22,89.98z M96.974,95.011c0.618,0.654,1.383,0.981,2.295,0.981s1.677-0.327,2.295-0.981
				c0.618-0.653,0.927-1.479,0.927-2.475s-0.309-1.821-0.927-2.476c-0.618-0.653-1.383-0.98-2.295-0.98s-1.677,0.327-2.295,0.98
				c-0.618,0.654-0.927,1.479-0.927,2.476S96.355,94.357,96.974,95.011z"/>
			<path fill="#FFFFFF" d="M106.055,97V84.4h1.404V97H106.055z"/>
			<path fill="#FFFFFF" d="M110.195,97V84.4h1.404V97H110.195z"/>
			<path fill="#FFFFFF" d="M115.433,90.178c0,0.433,0.201,0.769,0.603,1.008c0.402,0.24,0.993,0.433,1.773,0.576
				c2.004,0.385,3.006,1.261,3.006,2.628c0,0.805-0.3,1.482-0.899,2.034c-0.601,0.553-1.429,0.828-2.484,0.828
				c-0.937,0-1.731-0.243-2.385-0.729c-0.654-0.486-1.125-1.107-1.413-1.863l1.17-0.72c0.516,1.392,1.392,2.088,2.628,2.088
				c0.612,0,1.095-0.142,1.449-0.423c0.354-0.282,0.53-0.669,0.53-1.161c0-0.433-0.183-0.771-0.549-1.018
				c-0.366-0.245-0.944-0.44-1.736-0.585c-0.889-0.168-1.608-0.465-2.16-0.891c-0.553-0.426-0.828-0.999-0.828-1.719
				c0-0.732,0.3-1.317,0.899-1.756c0.601-0.438,1.326-0.656,2.179-0.656c1.716,0,2.873,0.72,3.474,2.16l-1.08,0.63
				c-0.432-1.068-1.224-1.603-2.376-1.603c-0.528,0-0.96,0.1-1.296,0.297C115.601,89.503,115.433,89.794,115.433,90.178z"/>
		</g>
	</g>
	<g enable-background="new    ">
		<path fill="#FFFFFF" d="M203.635,320.031l5.324-11.42l4.177,1.947c1.076,0.502,1.824,1.166,2.241,1.988
			c0.417,0.823,0.438,1.637,0.063,2.442c-0.558,1.195-1.612,1.725-3.161,1.584c0.634,0.601,1.057,1.225,1.271,1.874
			c0.214,0.648,0.143,1.354-0.212,2.115c-0.456,0.979-1.212,1.59-2.265,1.834c-1.054,0.243-2.129,0.109-3.228-0.403L203.635,320.031
			z M207.561,315.188l-2.023,4.339l2.626,1.225c0.859,0.401,1.634,0.55,2.323,0.448s1.21-0.528,1.56-1.278
			c0.35-0.751,0.342-1.423-0.022-2.017c-0.366-0.594-0.978-1.092-1.837-1.492L207.561,315.188z M209.798,310.393l-1.704,3.654
			l2.708,1.263c0.718,0.335,1.363,0.454,1.938,0.357c0.574-0.097,1.006-0.454,1.295-1.074c0.289-0.62,0.285-1.181-0.01-1.683
			c-0.296-0.502-0.802-0.92-1.52-1.255L209.798,310.393z"/>
		<path fill="#FFFFFF" d="M213.929,324.831l5.324-11.42l7.146,3.332l-0.563,1.208l-5.774-2.693l-1.727,3.703l5.318,2.48
			l-0.563,1.207l-5.317-2.48l-1.909,4.095l5.823,2.716l-0.563,1.207L213.929,324.831z"/>
		<path fill="#FFFFFF" d="M227.303,318.635l0.563-1.207l8.483,3.956l-0.563,1.207l-3.556-1.658l-4.762,10.212l-1.371-0.639
			l4.762-10.213L227.303,318.635z"/>
	</g>
	<g>
		<path fill="#666666" d="M286.174,324.315l0.845-1.813l-112.382-52.405l-0.845,1.813L286.174,324.315z"/>
	</g>
	<g>
		<polygon fill="#666666" points="177.627,283.306 172.933,270.406 185.833,265.71 186.517,267.589 175.497,271.602 
			179.507,282.622 		"/>
	</g>
	<g enable-background="new    ">
		<path fill="#FFFFFF" d="M236.567,244.031l0.678,1.229c-1.941,1.465-4.004,1.687-6.19,0.668c-1.577-0.735-2.625-1.909-3.145-3.522
			c-0.519-1.611-0.38-3.271,0.416-4.979c0.786-1.687,1.988-2.844,3.605-3.473c1.617-0.63,3.199-0.584,4.743,0.136
			c1.109,0.518,1.957,1.233,2.542,2.149c0.586,0.915,0.87,1.918,0.852,3.008l-1.41,0.256c-0.013-2.018-0.873-3.425-2.58-4.221
			c-1.164-0.543-2.356-0.547-3.58-0.011c-1.223,0.534-2.146,1.471-2.77,2.81c-0.634,1.359-0.777,2.666-0.428,3.92
			c0.348,1.256,1.131,2.167,2.349,2.734c0.859,0.4,1.681,0.549,2.464,0.445C234.898,245.076,235.716,244.693,236.567,244.031z"/>
		<path fill="#FFFFFF" d="M238.192,248.979l5.325-11.42l1.272,0.594l-5.325,11.419L238.192,248.979z"/>
		<path fill="#FFFFFF" d="M241.944,250.728l3.773-8.091l1.272,0.593l-3.773,8.092L241.944,250.728z M246.241,241.173l0.746-1.6
			l1.533,0.715l-0.746,1.6L246.241,241.173z"/>
		<path fill="#FFFFFF" d="M254.728,252.021l-6.688-3.119c-0.362,0.892-0.425,1.733-0.185,2.525c0.239,0.794,0.766,1.381,1.583,1.762
			c0.685,0.319,1.312,0.416,1.88,0.291c0.567-0.127,1.136-0.414,1.704-0.863l0.671,0.986c-1.529,1.207-3.131,1.42-4.807,0.639
			c-1.119-0.521-1.88-1.369-2.279-2.541c-0.4-1.173-0.313-2.374,0.26-3.604c0.573-1.229,1.44-2.066,2.601-2.511
			c1.161-0.445,2.312-0.401,3.455,0.131c1.195,0.558,1.97,1.376,2.321,2.452c0.352,1.078,0.249,2.215-0.31,3.412L254.728,252.021z
			 M252.419,246.793c-0.708-0.329-1.396-0.388-2.063-0.177c-0.668,0.212-1.247,0.641-1.733,1.287l5.318,2.48
			c0.296-0.748,0.283-1.457-0.042-2.125C253.576,247.591,253.082,247.103,252.419,246.793z"/>
		<path fill="#FFFFFF" d="M264.296,254.458l-2.564,5.498l-1.272-0.594l2.458-5.27c0.289-0.619,0.332-1.175,0.131-1.666
			s-0.596-0.874-1.183-1.147c-0.642-0.299-1.31-0.309-2.002-0.029c-0.694,0.278-1.226,0.821-1.602,1.626l-2.092,4.486l-1.272-0.594
			l3.773-8.091l1.272,0.594l-0.662,1.418c0.531-0.374,1.103-0.598,1.713-0.671c0.61-0.072,1.203,0.025,1.779,0.294
			c0.794,0.37,1.355,0.92,1.685,1.648C264.786,252.69,264.732,253.523,264.296,254.458z"/>
		<path fill="#FFFFFF" d="M266.323,253.477l0.472-1.012l1.354,0.632l1.02-2.187l1.272,0.594l-1.02,2.186l1.86,0.867l-0.472,1.012
			l-1.86-0.867l-2.282,4.894c-0.218,0.468-0.3,0.836-0.248,1.106c0.054,0.27,0.302,0.508,0.748,0.716
			c0.185,0.087,0.401,0.147,0.649,0.184l-0.38,1.113c-0.329-0.033-0.71-0.152-1.145-0.354c-0.588-0.274-0.993-0.671-1.212-1.191
			c-0.222-0.521-0.155-1.16,0.2-1.921l2.396-5.139L266.323,253.477z"/>
		<path fill="#FFFFFF" d="M273.263,257.804c-0.183,0.393-0.143,0.781,0.12,1.168c0.263,0.388,0.717,0.812,1.364,1.271
			c1.653,1.195,2.191,2.413,1.614,3.652c-0.34,0.729-0.898,1.217-1.675,1.463c-0.778,0.248-1.645,0.147-2.602-0.299
			c-0.849-0.396-1.466-0.952-1.853-1.668c-0.387-0.718-0.551-1.479-0.494-2.286l1.365-0.157c-0.121,1.479,0.379,2.479,1.499,3.002
			c0.555,0.259,1.052,0.334,1.492,0.229c0.44-0.106,0.764-0.382,0.972-0.828c0.183-0.392,0.16-0.776-0.068-1.154
			c-0.228-0.377-0.669-0.798-1.327-1.264c-0.734-0.528-1.261-1.101-1.581-1.72c-0.321-0.62-0.328-1.256-0.024-1.908
			c0.31-0.664,0.828-1.067,1.557-1.211c0.729-0.143,1.479-0.035,2.252,0.326c1.555,0.725,2.3,1.866,2.235,3.426l-1.245,0.114
			c0.06-1.151-0.432-1.97-1.476-2.457c-0.479-0.224-0.913-0.315-1.3-0.278S273.425,257.457,273.263,257.804z"/>
	</g>
	<g>
		<path fill="#666666" d="M186.47,244.72l-0.845,1.813l112.382,52.405l0.845-1.813L186.47,244.72z"/>
	</g>
	<g>
		<polygon fill="#666666" points="286.812,303.325 286.128,301.445 297.148,297.435 293.138,286.414 295.017,285.73 299.712,298.63 
					"/>
	</g>
	<g enable-background="new    ">
		<path fill="#FFFFFF" d="M209.129,440.691l-5.324-11.42l4.176-1.947c1.076-0.502,2.064-0.647,2.963-0.438
			c0.899,0.21,1.536,0.717,1.911,1.522c0.558,1.195,0.286,2.344-0.818,3.439c0.867-0.1,1.618-0.022,2.253,0.231
			c0.635,0.253,1.129,0.761,1.484,1.521c0.456,0.979,0.439,1.95-0.052,2.914s-1.285,1.702-2.384,2.214L209.129,440.691z
			 M205.707,429.775l1.704,3.654l2.708-1.264c0.718-0.334,1.225-0.752,1.521-1.255c0.295-0.502,0.298-1.063,0.009-1.683
			s-0.721-0.978-1.295-1.074c-0.574-0.096-1.221,0.023-1.938,0.357L205.707,429.775z M207.943,434.57l2.023,4.34l2.627-1.225
			c0.858-0.4,1.471-0.898,1.836-1.492s0.373-1.266,0.023-2.017c-0.351-0.751-0.87-1.177-1.56-1.278
			c-0.69-0.102-1.465,0.047-2.323,0.447L207.943,434.57z"/>
		<path fill="#FFFFFF" d="M219.423,435.892l-5.325-11.42l7.146-3.331l0.563,1.207l-5.774,2.692l1.727,3.703l5.318-2.479l0.563,1.207
			l-5.317,2.479l1.909,4.095l5.824-2.716l0.563,1.208L219.423,435.892z"/>
		<path fill="#FFFFFF" d="M223.273,421.663l-0.563-1.208l8.483-3.955l0.563,1.207l-3.556,1.658l4.762,10.212l-1.371,0.64
			l-4.762-10.212L223.273,421.663z"/>
	</g>
	<g>
		<path fill="#666666" d="M286.174,424.626l0.845,1.812l-112.382,52.405l-0.845-1.813L286.174,424.626z"/>
	</g>
	<g>
		<polygon fill="#666666" points="185.833,483.229 172.933,478.535 177.627,465.635 179.507,466.318 175.497,477.34 
			186.517,481.351 		"/>
	</g>
	<g>
		<g enable-background="new    ">
			<path fill="#FFFFFF" d="M237.781,514.498l-5.324-11.42l7.145-3.332l0.563,1.208l-5.775,2.692l1.728,3.703l5.317-2.479
				l0.563,1.207l-5.318,2.479l1.909,4.094l5.823-2.715l0.563,1.207L237.781,514.498z"/>
			<path fill="#FFFFFF" d="M243.256,503.325l-0.471-1.012l1.354-0.631l-1.02-2.187l1.272-0.593l1.02,2.186l1.86-0.867l0.471,1.012
				l-1.859,0.867l2.282,4.894c0.218,0.468,0.447,0.768,0.688,0.9c0.24,0.133,0.584,0.096,1.029-0.112
				c0.186-0.086,0.371-0.213,0.558-0.38l0.608,1.007c-0.236,0.23-0.572,0.446-1.008,0.649c-0.587,0.273-1.15,0.329-1.691,0.163
				c-0.541-0.165-0.987-0.628-1.343-1.389l-2.396-5.139L243.256,503.325z"/>
			<path fill="#FFFFFF" d="M257.255,498.764l2.549,5.465l-1.271,0.593l-2.442-5.237c-0.289-0.619-0.694-1.014-1.216-1.181
				c-0.522-0.166-1.076-0.113-1.664,0.16c-0.652,0.305-1.103,0.816-1.351,1.534c-0.247,0.718-0.185,1.479,0.191,2.283l2.092,4.486
				l-1.272,0.594l-5.324-11.42l1.271-0.593l2.214,4.747c0.028-0.622,0.222-1.198,0.583-1.731c0.36-0.532,0.83-0.933,1.406-1.202
				c0.816-0.38,1.615-0.459,2.402-0.236C256.209,497.249,256.819,497.828,257.255,498.764z"/>
			<path fill="#FFFFFF" d="M267.739,495.859l-6.688,3.119c0.449,0.852,1.055,1.439,1.815,1.766c0.762,0.327,1.551,0.301,2.367-0.08
				c0.685-0.319,1.161-0.737,1.431-1.254c0.269-0.516,0.413-1.136,0.434-1.859l1.188,0.12c-0.059,1.947-0.925,3.312-2.6,4.093
				c-1.12,0.521-2.259,0.56-3.413,0.112c-1.156-0.447-2.02-1.286-2.593-2.515c-0.573-1.229-0.657-2.433-0.252-3.606
				c0.405-1.176,1.179-2.029,2.321-2.563c1.196-0.558,2.319-0.625,3.37-0.202c1.053,0.424,1.856,1.233,2.415,2.43L267.739,495.859z
				 M262.251,494.269c-0.708,0.33-1.194,0.819-1.462,1.466c-0.267,0.648-0.311,1.367-0.127,2.155l5.318-2.479
				c-0.384-0.708-0.936-1.153-1.655-1.334S262.913,493.96,262.251,494.269z"/>
			<path fill="#FFFFFF" d="M271.819,488.596l0.343,1.289c-0.226,0.027-0.453,0.093-0.682,0.199
				c-0.576,0.269-0.945,0.748-1.106,1.439c-0.161,0.69-0.054,1.439,0.321,2.244l2.063,4.42l-1.273,0.594l-3.772-8.091l1.272-0.594
				l0.685,1.468c-0.006-1.374,0.514-2.305,1.558-2.792C271.4,488.691,271.598,488.633,271.819,488.596z"/>
		</g>
		<g>
			<path fill="#666666" d="M186.47,504.22l-0.845-1.813l112.382-52.405l0.845,1.813L186.47,504.22z"/>
		</g>
		<g>
			<polygon fill="#666666" points="295.017,463.211 293.138,462.527 297.148,451.507 286.128,447.494 286.813,445.615 
				299.712,450.312 			"/>
		</g>
	</g>
	<g>
		<g enable-background="new    ">
			<path fill="#FFFFFF" d="M364,563.245l-2.178,0.432c0.744,0.372,1.335,0.9,1.772,1.584c0.438,0.685,0.657,1.501,0.657,2.448
				c0,1.764-0.618,3.204-1.854,4.32c-1.236,1.115-2.803,1.674-4.698,1.674c-1.86,0-3.417-0.604-4.671-1.809
				c-1.254-1.207-1.881-2.656-1.881-4.348c0-1.199,0.272-2.253,0.818-3.159c0.547-0.905,1.293-1.604,2.241-2.097l0.828,1.152
				c-0.912,0.527-1.566,1.125-1.962,1.791c-0.396,0.666-0.594,1.443-0.594,2.33c0,1.26,0.492,2.34,1.476,3.24
				c0.984,0.9,2.232,1.35,3.744,1.35c1.548,0,2.805-0.41,3.771-1.232c0.967-0.822,1.449-1.91,1.449-3.268
				c0-1.139-0.354-2.036-1.062-2.69c-0.708-0.653-1.681-1.071-2.916-1.251v4.428h-1.261v-5.939H364V563.245z"/>
			<path fill="#FFFFFF" d="M364,552.354v1.404c-0.432,0.36-1.02,0.54-1.764,0.54c0.647,0.275,1.146,0.682,1.494,1.215
				c0.348,0.534,0.521,1.143,0.521,1.827c0,0.899-0.255,1.626-0.765,2.178s-1.161,0.828-1.953,0.828
				c-0.816,0-1.47-0.284-1.962-0.854s-0.811-1.312-0.954-2.224l-0.486-2.97h-0.396c-1.152,0-1.729,0.701-1.729,2.105
				c0,0.672,0.133,1.191,0.396,1.558s0.594,0.549,0.989,0.549c0.085,0,0.175-0.012,0.271-0.036l0.414,1.225
				c-0.228,0.096-0.468,0.144-0.72,0.144c-0.696,0-1.293-0.315-1.791-0.944c-0.498-0.631-0.747-1.461-0.747-2.494
				c0-1.151,0.255-2.024,0.765-2.619c0.51-0.594,1.228-0.891,2.151-0.891h4.031c0.517,0,0.928-0.035,1.233-0.107
				S363.64,552.57,364,552.354z M362.992,557.179c0-0.899-0.339-1.604-1.018-2.115c-0.678-0.51-1.496-0.765-2.457-0.765h-0.27
				l0.468,2.718c0.108,0.612,0.313,1.08,0.612,1.404c0.3,0.323,0.678,0.485,1.134,0.485c0.468,0,0.84-0.155,1.116-0.468
				C362.854,558.127,362.992,557.707,362.992,557.179z"/>
			<path fill="#FFFFFF" d="M357.214,538.459H364v1.404h-6.282c-0.516,0-0.918,0.141-1.206,0.422
				c-0.288,0.283-0.432,0.699-0.432,1.252c0,0.637,0.255,1.16,0.765,1.574c0.511,0.414,1.287,0.621,2.331,0.621H364v1.404h-6.12
				c-0.576,0-1.02,0.139-1.332,0.414c-0.312,0.275-0.468,0.684-0.468,1.225c0,0.635,0.261,1.166,0.783,1.592
				c0.521,0.426,1.305,0.639,2.349,0.639H364v1.404h-8.928v-1.404h1.422c-0.468-0.227-0.864-0.578-1.188-1.053
				c-0.323-0.473-0.485-1.004-0.485-1.592c0-0.576,0.141-1.084,0.423-1.521s0.705-0.74,1.269-0.908
				c-1.128-0.637-1.691-1.578-1.691-2.826c0-0.781,0.219-1.416,0.656-1.908C355.915,538.705,356.494,538.459,357.214,538.459z"/>
			<path fill="#FFFFFF" d="M359.77,527.73v7.38c0.961-0.048,1.75-0.348,2.367-0.899c0.618-0.552,0.928-1.278,0.928-2.179
				c0-0.756-0.178-1.364-0.531-1.827c-0.354-0.461-0.855-0.854-1.503-1.179l0.611-1.025c1.74,0.876,2.61,2.237,2.61,4.086
				c0,1.235-0.447,2.283-1.341,3.141c-0.894,0.858-2.019,1.287-3.375,1.287s-2.481-0.433-3.375-1.296
				c-0.894-0.864-1.341-1.926-1.341-3.187c0-1.319,0.414-2.367,1.241-3.141c0.828-0.774,1.902-1.161,3.223-1.161H359.77z
				 M356.008,532.032c0,0.78,0.237,1.429,0.711,1.944c0.475,0.516,1.107,0.858,1.899,1.026v-5.868
				c-0.804,0.048-1.44,0.359-1.908,0.936S356.008,531.301,356.008,532.032z"/>
			<path fill="#FFFFFF" d="M357.178,524.527c0.433,0,0.769-0.201,1.008-0.603c0.24-0.402,0.433-0.993,0.576-1.773
				c0.385-2.004,1.261-3.006,2.628-3.006c0.805,0,1.482,0.3,2.034,0.899c0.553,0.601,0.828,1.429,0.828,2.484
				c0,0.937-0.243,1.731-0.729,2.385c-0.486,0.654-1.107,1.125-1.863,1.413l-0.72-1.17c1.392-0.516,2.088-1.392,2.088-2.628
				c0-0.612-0.142-1.095-0.423-1.449c-0.282-0.354-0.669-0.53-1.161-0.53c-0.433,0-0.771,0.183-1.018,0.549
				c-0.245,0.366-0.44,0.944-0.585,1.736c-0.168,0.889-0.465,1.608-0.891,2.16c-0.426,0.553-0.999,0.828-1.719,0.828
				c-0.732,0-1.317-0.3-1.756-0.899c-0.438-0.601-0.656-1.326-0.656-2.179c0-1.716,0.72-2.873,2.16-3.474l0.63,1.08
				c-1.068,0.432-1.603,1.224-1.603,2.376c0,0.528,0.1,0.96,0.297,1.296C356.503,524.359,356.794,524.527,357.178,524.527z"/>
		</g>
		<g>
			<path fill="#666666" d="M382,608h2V484h-2V608z"/>
		</g>
		<g>
			<polygon fill="#666666" points="391.293,493.707 383,485.414 374.707,493.707 373.293,492.293 383,482.586 392.707,492.293 			
				"/>
		</g>
		<g>
			<g enable-background="new    ">
				<path fill="#FFFFFF" d="M443,560.117h-12.6v-4.607c0-1.188,0.285-2.146,0.854-2.871c0.57-0.727,1.299-1.09,2.188-1.09
					c1.319,0,2.244,0.732,2.771,2.196c0.276-0.828,0.663-1.476,1.161-1.944c0.498-0.468,1.167-0.701,2.007-0.701
					c1.08,0,1.953,0.426,2.619,1.277c0.666,0.853,0.999,1.885,0.999,3.096V560.117z M431.66,558.605h4.032v-2.988
					c0-0.792-0.165-1.428-0.495-1.908c-0.33-0.479-0.837-0.72-1.521-0.72c-0.684,0-1.19,0.24-1.521,0.72
					c-0.33,0.48-0.495,1.116-0.495,1.908V558.605z M436.952,558.605h4.788v-2.898c0-0.947-0.192-1.713-0.576-2.295
					s-0.99-0.873-1.818-0.873s-1.434,0.291-1.817,0.873s-0.576,1.348-0.576,2.295V558.605z"/>
				<path fill="#FFFFFF" d="M443,548.76h-12.6v-7.885h1.332v6.372h4.086v-5.868h1.332v5.868h4.518v-6.426H443V548.76z"/>
				<path fill="#FFFFFF" d="M431.732,539.256H430.4v-9.36h1.332v3.924H443v1.513h-11.268V539.256z"/>
			</g>
			<g>
				<path fill="#666666" d="M412,484h-2v124h2V484z"/>
			</g>
			<g>
				<polygon fill="#666666" points="411,609.414 401.293,599.707 402.707,598.293 411,606.586 419.293,598.293 420.707,599.707 				
					"/>
			</g>
		</g>
	</g>
	<g>
		<g enable-background="new    ">
			<path fill="#FFFFFF" d="M558.061,407.493l5.324-11.42l4.176,1.947c1.077,0.502,1.824,1.166,2.241,1.988
				c0.417,0.823,0.438,1.637,0.063,2.442c-0.558,1.195-1.611,1.725-3.161,1.584c0.634,0.601,1.058,1.225,1.271,1.874
				c0.214,0.648,0.143,1.354-0.212,2.115c-0.456,0.979-1.212,1.59-2.266,1.834c-1.054,0.243-2.13,0.109-3.228-0.403L558.061,407.493
				z M561.986,402.65l-2.023,4.339l2.627,1.225c0.858,0.401,1.633,0.55,2.323,0.448c0.689-0.102,1.21-0.528,1.56-1.278
				c0.35-0.751,0.342-1.423-0.023-2.017s-0.978-1.092-1.836-1.492L561.986,402.65z M564.223,397.854l-1.703,3.654l2.707,1.263
				c0.719,0.335,1.364,0.454,1.939,0.357c0.574-0.097,1.006-0.454,1.295-1.074s0.285-1.181-0.01-1.683
				c-0.296-0.502-0.803-0.92-1.52-1.255L564.223,397.854z"/>
			<path fill="#FFFFFF" d="M568.354,412.293l5.325-11.42l7.146,3.332l-0.563,1.208l-5.774-2.693l-1.727,3.703l5.318,2.48
				l-0.563,1.207l-5.317-2.48l-1.91,4.095l5.824,2.716l-0.563,1.207L568.354,412.293z"/>
			<path fill="#FFFFFF" d="M581.729,406.097l0.563-1.207l8.484,3.956l-0.563,1.207l-3.556-1.658l-4.762,10.212l-1.371-0.639
				l4.762-10.213L581.729,406.097z"/>
		</g>
		<g>
			<path fill="#666666" d="M507.508,403.78l-0.845,1.813l112.382,52.405l0.845-1.813L507.508,403.78z"/>
		</g>
		<g>
			<polygon fill="#666666" points="607.85,462.385 607.166,460.506 618.187,456.493 614.176,445.473 616.055,444.789 
				620.749,457.688 			"/>
		</g>
		<g>
			<g enable-background="new    ">
				<path fill="#FFFFFF" d="M518.115,471.406l-0.494-6.268l-2.577-1.201l-2.313,4.959l-1.37-0.639l5.324-11.42l4.552,2.122
					c1.109,0.518,1.856,1.237,2.241,2.157c0.385,0.921,0.359,1.85-0.076,2.785c-0.371,0.793-0.938,1.356-1.702,1.688
					c-0.764,0.332-1.616,0.386-2.557,0.159l0.505,6.372L518.115,471.406z M517.493,458.685l-1.886,4.046l2.936,1.369
					c0.816,0.38,1.525,0.498,2.128,0.356c0.603-0.144,1.057-0.541,1.36-1.193c0.305-0.652,0.317-1.255,0.04-1.81
					c-0.278-0.553-0.826-1.02-1.642-1.399L517.493,458.685z"/>
				<path fill="#FFFFFF" d="M528.164,476.093l-1.272-0.593c-0.144-0.544-0.059-1.153,0.256-1.827
					c-0.523,0.47-1.101,0.75-1.732,0.841c-0.631,0.089-1.257-0.011-1.876-0.3c-0.816-0.381-1.366-0.919-1.651-1.613
					c-0.284-0.695-0.26-1.402,0.075-2.12c0.346-0.74,0.88-1.212,1.604-1.417s1.53-0.181,2.418,0.075l2.897,0.814l0.167-0.358
					c0.486-1.045,0.094-1.864-1.179-2.457c-0.608-0.284-1.136-0.383-1.578-0.299c-0.443,0.085-0.749,0.306-0.916,0.665
					c-0.036,0.076-0.063,0.163-0.082,0.26l-1.284-0.142c0.009-0.247,0.067-0.485,0.174-0.714c0.294-0.631,0.832-1.038,1.613-1.224
					c0.781-0.185,1.64-0.06,2.575,0.377c1.044,0.486,1.728,1.087,2.051,1.8c0.322,0.713,0.289,1.489-0.102,2.326l-1.704,3.654
					c-0.218,0.468-0.359,0.855-0.423,1.162C528.131,475.313,528.121,475.675,528.164,476.093z M524.218,473.141
					c0.816,0.38,1.598,0.371,2.348-0.028c0.748-0.399,1.325-1.033,1.731-1.903l0.113-0.244l-2.66-0.725
					c-0.602-0.161-1.111-0.174-1.531-0.039c-0.421,0.135-0.728,0.408-0.92,0.822c-0.197,0.424-0.214,0.827-0.048,1.21
					C523.417,472.615,523.739,472.917,524.218,473.141z"/>
				<path fill="#FFFFFF" d="M539.325,474.604l-2.563,5.498l-1.273-0.594l2.458-5.27c0.288-0.619,0.332-1.174,0.131-1.666
					c-0.2-0.491-0.595-0.874-1.183-1.147c-0.641-0.299-1.309-0.309-2.002-0.029c-0.693,0.278-1.227,0.821-1.602,1.626l-2.092,4.486
					l-1.273-0.594l3.773-8.091l1.272,0.593l-0.661,1.419c0.531-0.374,1.102-0.598,1.713-0.671c0.609-0.072,1.202,0.025,1.779,0.294
					c0.793,0.37,1.354,0.92,1.684,1.648C539.814,472.836,539.762,473.669,539.325,474.604z"/>
				<path fill="#FFFFFF" d="M551.824,473.224l-5.324,11.419l-1.271-0.593l0.676-1.452c-1.163,0.82-2.354,0.947-3.572,0.379
					c-1.131-0.527-1.881-1.363-2.246-2.507c-0.368-1.145-0.26-2.342,0.323-3.593c0.568-1.218,1.423-2.057,2.564-2.518
					c1.142-0.462,2.229-0.45,3.263,0.031c0.663,0.31,1.176,0.73,1.536,1.264c0.36,0.532,0.542,1.123,0.544,1.772l2.236-4.796
					L551.824,473.224z M541.46,480.098c0.262,0.817,0.783,1.408,1.566,1.773c0.782,0.365,1.569,0.384,2.357,0.056
					c0.788-0.327,1.397-0.953,1.828-1.878c0.431-0.924,0.519-1.793,0.264-2.608c-0.256-0.813-0.776-1.403-1.559-1.769
					c-0.783-0.365-1.571-0.386-2.364-0.061c-0.795,0.325-1.407,0.951-1.838,1.875C541.283,478.41,541.198,479.28,541.46,480.098z"/>
				<path fill="#FFFFFF" d="M559.198,482.819c0.12,0.862-0.024,1.735-0.436,2.616c-0.41,0.881-0.986,1.553-1.725,2.016
					c-0.739,0.463-1.499,0.708-2.278,0.734c-0.781,0.027-1.52-0.122-2.215-0.446s-1.285-0.794-1.767-1.409
					c-0.48-0.615-0.782-1.354-0.901-2.219c-0.12-0.863,0.024-1.735,0.436-2.616c0.41-0.88,0.986-1.554,1.725-2.016
					c0.738-0.464,1.499-0.708,2.279-0.735c0.779-0.026,1.519,0.123,2.214,0.447c0.696,0.324,1.285,0.794,1.767,1.408
					C558.777,481.215,559.078,481.955,559.198,482.819z M551.412,484.738c0.283,0.854,0.839,1.474,1.665,1.859
					s1.658,0.412,2.494,0.08c0.837-0.33,1.465-0.948,1.886-1.851c0.421-0.903,0.49-1.781,0.207-2.636
					c-0.284-0.854-0.84-1.473-1.666-1.858s-1.658-0.412-2.494-0.081c-0.837,0.332-1.465,0.949-1.886,1.852
					C551.197,483.007,551.127,483.885,551.412,484.738z"/>
				<path fill="#FFFFFF" d="M572.501,489.279l-2.868,6.15l-1.272-0.594l2.655-5.693c0.218-0.467,0.26-0.892,0.126-1.271
					c-0.134-0.381-0.451-0.688-0.951-0.92c-0.577-0.27-1.16-0.26-1.751,0.027c-0.592,0.288-1.107,0.904-1.548,1.85l-2.039,4.373
					l-1.272-0.594l2.586-5.547c0.244-0.521,0.307-0.982,0.188-1.382c-0.117-0.399-0.422-0.714-0.91-0.941
					c-0.576-0.269-1.168-0.257-1.775,0.036c-0.606,0.293-1.13,0.913-1.571,1.859l-2.023,4.34l-1.272-0.594l3.773-8.092l1.271,0.594
					l-0.601,1.289c0.404-0.328,0.89-0.539,1.456-0.633c0.566-0.093,1.116-0.016,1.648,0.233c0.523,0.243,0.923,0.585,1.201,1.026
					c0.277,0.44,0.373,0.952,0.287,1.533c1.054-0.753,2.145-0.866,3.275-0.338c0.707,0.329,1.191,0.796,1.453,1.4
					C572.826,487.998,572.805,488.627,572.501,489.279z"/>
			</g>
			<g>
			</g>
			<g enable-background="new    ">
				<path fill="#FFFFFF" d="M512.804,488.718l-2.563,5.498l-1.273-0.594l2.457-5.27c0.289-0.619,0.333-1.174,0.132-1.666
					c-0.201-0.491-0.595-0.874-1.183-1.147c-0.643-0.3-1.31-0.309-2.002-0.029c-0.693,0.278-1.228,0.821-1.603,1.626l-2.093,4.486
					l-1.271-0.594l3.773-8.092l1.271,0.594l-0.662,1.418c0.533-0.373,1.104-0.597,1.714-0.67c0.61-0.072,1.202,0.025,1.779,0.294
					c0.794,0.37,1.355,0.92,1.685,1.648C513.293,486.95,513.239,487.783,512.804,488.718z"/>
				<path fill="#FFFFFF" d="M513.809,492.523l2.488-5.334l1.271,0.593l-2.456,5.27c-0.29,0.62-0.336,1.174-0.141,1.663
					c0.196,0.487,0.582,0.866,1.159,1.136c0.663,0.31,1.34,0.326,2.031,0.053c0.689-0.273,1.217-0.802,1.582-1.585l2.115-4.535
					l1.272,0.594l-3.772,8.091l-1.273-0.593l0.662-1.42c-1.09,0.83-2.242,0.96-3.46,0.393c-0.815-0.38-1.385-0.942-1.705-1.688
					C513.262,494.413,513.338,493.535,513.809,492.523z"/>
				<path fill="#FFFFFF" d="M535.457,498.487l-2.867,6.15l-1.273-0.594l2.655-5.693c0.218-0.468,0.261-0.892,0.127-1.271
					c-0.135-0.381-0.451-0.688-0.952-0.921c-0.576-0.269-1.159-0.259-1.75,0.028c-0.591,0.288-1.106,0.904-1.548,1.85l-2.038,4.373
					l-1.273-0.594l2.586-5.547c0.244-0.521,0.306-0.982,0.188-1.382c-0.118-0.399-0.422-0.714-0.912-0.942
					c-0.575-0.268-1.167-0.256-1.774,0.037c-0.606,0.293-1.131,0.913-1.572,1.858l-2.023,4.34l-1.271-0.593l3.772-8.092l1.272,0.594
					l-0.601,1.288c0.403-0.327,0.89-0.538,1.457-0.632c0.565-0.093,1.114-0.016,1.647,0.232c0.522,0.244,0.923,0.586,1.2,1.027
					c0.277,0.44,0.373,0.951,0.287,1.533c1.054-0.754,2.146-0.866,3.276-0.339c0.708,0.33,1.191,0.797,1.451,1.401
					C535.783,497.206,535.762,497.835,535.457,498.487z"/>
				<path fill="#FFFFFF" d="M534.873,505.703l5.325-11.42l1.272,0.594l-2.236,4.796c0.547-0.381,1.156-0.6,1.826-0.658
					c0.669-0.059,1.314,0.057,1.934,0.346c1.066,0.497,1.768,1.314,2.104,2.452c0.337,1.136,0.217,2.324-0.361,3.564
					s-1.423,2.091-2.531,2.554c-1.11,0.462-2.224,0.432-3.345-0.091c-0.619-0.288-1.108-0.708-1.467-1.26
					c-0.359-0.552-0.55-1.13-0.571-1.735l-0.677,1.451L534.873,505.703z M537.672,504.813c0.255,0.814,0.775,1.404,1.559,1.77
					c0.782,0.365,1.57,0.385,2.365,0.06c0.793-0.324,1.406-0.949,1.837-1.873s0.515-1.795,0.255-2.613
					c-0.262-0.816-0.784-1.407-1.566-1.772c-0.783-0.365-1.569-0.384-2.357-0.057c-0.789,0.328-1.398,0.954-1.829,1.878
					C537.504,503.129,537.416,503.998,537.672,504.813z"/>
				<path fill="#FFFFFF" d="M553.97,509.939l-6.688-3.119c-0.362,0.892-0.424,1.733-0.186,2.526
					c0.239,0.793,0.767,1.381,1.583,1.761c0.685,0.319,1.312,0.416,1.88,0.291c0.568-0.126,1.137-0.414,1.704-0.864l0.671,0.987
					c-1.529,1.207-3.131,1.421-4.807,0.64c-1.119-0.522-1.88-1.371-2.279-2.543c-0.4-1.172-0.313-2.373,0.26-3.603
					s1.44-2.066,2.601-2.511c1.161-0.445,2.312-0.401,3.454,0.131c1.196,0.558,1.971,1.376,2.322,2.453s0.249,2.215-0.31,3.411
					L553.97,509.939z M551.661,504.712c-0.707-0.33-1.396-0.389-2.063-0.177c-0.667,0.212-1.245,0.641-1.732,1.287l5.318,2.48
					c0.296-0.749,0.283-1.457-0.041-2.125C552.817,505.511,552.324,505.021,551.661,504.712z"/>
				<path fill="#FFFFFF" d="M562.157,508.396l-0.767,1.092c-0.166-0.155-0.363-0.288-0.591-0.395
					c-0.576-0.269-1.181-0.243-1.814,0.078c-0.632,0.32-1.136,0.884-1.511,1.688l-2.063,4.421l-1.272-0.594l3.772-8.091l1.273,0.593
					l-0.685,1.469c1.048-0.889,2.095-1.088,3.14-0.602C561.814,508.137,561.986,508.25,562.157,508.396z"/>
			</g>
			<g>
				<path fill="#666666" d="M607.212,483.374l0.845-1.812l-112.382-52.405l-0.845,1.813L607.212,483.374z"/>
			</g>
			<g>
				<polygon fill="#666666" points="498.667,442.365 493.972,429.465 506.871,424.771 507.555,426.649 496.534,430.66 
					500.546,441.682 				"/>
			</g>
		</g>
	</g>
	<g>
		<g enable-background="new    ">
			<path fill="#FFFFFF" d="M529.807,260.269l-5.324-11.419l4.176-1.947c1.076-0.502,2.064-0.648,2.963-0.439
				c0.899,0.21,1.536,0.717,1.911,1.523c0.558,1.195,0.286,2.343-0.818,3.439c0.867-0.1,1.618-0.022,2.253,0.23
				c0.635,0.253,1.129,0.761,1.484,1.522c0.456,0.979,0.439,1.95-0.052,2.913c-0.491,0.965-1.285,1.702-2.384,2.215L529.807,260.269
				z M526.385,249.353l1.704,3.654l2.708-1.263c0.718-0.335,1.225-0.753,1.521-1.255c0.295-0.502,0.298-1.063,0.009-1.684
				c-0.289-0.619-0.721-0.978-1.295-1.073c-0.574-0.097-1.221,0.022-1.938,0.357L526.385,249.353z M528.621,254.148l2.023,4.339
				l2.627-1.225c0.858-0.401,1.471-0.898,1.836-1.492s0.373-1.267,0.023-2.017c-0.351-0.75-0.87-1.176-1.56-1.278
				c-0.69-0.103-1.465,0.047-2.323,0.447L528.621,254.148z"/>
			<path fill="#FFFFFF" d="M540.101,255.469l-5.325-11.419l7.146-3.332l0.563,1.208l-5.774,2.693l1.727,3.703l5.318-2.48
				l0.563,1.207l-5.317,2.48l1.909,4.094l5.824-2.715l0.563,1.208L540.101,255.469z"/>
			<path fill="#FFFFFF" d="M543.951,241.241l-0.563-1.208l8.483-3.956l0.563,1.208l-3.556,1.658l4.762,10.212l-1.371,0.639
				l-4.762-10.212L543.951,241.241z"/>
		</g>
		<g>
			<path fill="#666666" d="M606.852,244.203l0.845,1.813L495.315,298.42l-0.845-1.812L606.852,244.203z"/>
		</g>
		<g>
			<polygon fill="#666666" points="506.511,302.807 493.611,298.112 498.306,285.212 500.185,285.896 496.174,296.917 
				507.194,300.928 			"/>
		</g>
		<g>
			<g enable-background="new    ">
				<path fill="#FFFFFF" d="M547.798,339.046l-5.324-11.419l4.176-1.947c1.076-0.502,2.064-0.648,2.963-0.439
					c0.899,0.21,1.536,0.717,1.911,1.522c0.558,1.195,0.286,2.343-0.818,3.44c0.867-0.1,1.618-0.023,2.253,0.231
					c0.635,0.253,1.129,0.761,1.484,1.521c0.456,0.979,0.439,1.95-0.052,2.914s-1.285,1.702-2.384,2.214L547.798,339.046z
					 M544.376,328.129l1.704,3.654l2.708-1.263c0.718-0.334,1.225-0.752,1.521-1.255c0.295-0.502,0.298-1.063,0.009-1.683
					s-0.721-0.978-1.295-1.074c-0.574-0.096-1.221,0.023-1.938,0.358L544.376,328.129z M546.612,332.925l2.023,4.339l2.627-1.225
					c0.858-0.4,1.471-0.898,1.836-1.492c0.365-0.593,0.373-1.266,0.023-2.017c-0.351-0.75-0.87-1.176-1.56-1.278
					c-0.69-0.102-1.465,0.047-2.323,0.448L546.612,332.925z"/>
				<path fill="#FFFFFF" d="M558.092,334.246l-5.325-11.42l7.146-3.332l0.563,1.208l-5.774,2.692l1.727,3.703l5.318-2.479
					l0.563,1.207l-5.317,2.479l1.909,4.095l5.824-2.716l0.563,1.208L558.092,334.246z"/>
				<path fill="#FFFFFF" d="M561.942,320.018l-0.563-1.208l8.483-3.956l0.563,1.207l-3.556,1.658l4.762,10.212l-1.371,0.64
					l-4.762-10.212L561.942,320.018z"/>
				<path fill="#FFFFFF" d="M578.243,318.216l-0.472-1.012l2.838-1.324l-1.323-2.838l1.012-0.472l1.323,2.838l2.839-1.324
					l0.472,1.012l-2.839,1.324l1.324,2.838l-1.012,0.472l-1.324-2.838L578.243,318.216z"/>
				<path fill="#FFFFFF" d="M591.235,310.558c-0.777-0.305-1.354-0.86-1.73-1.666c-0.375-0.804-0.43-1.603-0.164-2.396
					c0.267-0.792,0.802-1.375,1.607-1.751c0.804-0.375,1.596-0.41,2.374-0.105c0.777,0.307,1.354,0.862,1.729,1.667
					c0.376,0.806,0.431,1.604,0.165,2.396c-0.266,0.793-0.802,1.377-1.606,1.752C592.805,310.83,592.015,310.864,591.235,310.558z
					 M590.424,306.836c-0.153,0.481-0.101,0.999,0.158,1.554c0.259,0.556,0.622,0.929,1.089,1.122
					c0.467,0.192,0.956,0.169,1.468-0.069c0.511-0.238,0.843-0.598,0.996-1.08c0.152-0.481,0.1-1-0.159-1.555
					s-0.621-0.928-1.088-1.12c-0.468-0.193-0.957-0.17-1.469,0.068C590.907,305.994,590.576,306.354,590.424,306.836z
					 M596.853,316.172l-1.115-0.176l2.039-14.157l1.113,0.175L596.853,316.172z M601.306,313.37
					c-0.777-0.305-1.354-0.861-1.73-1.666c-0.375-0.805-0.43-1.603-0.163-2.396c0.266-0.793,0.801-1.377,1.605-1.752
					c0.805-0.375,1.596-0.411,2.374-0.104c0.778,0.306,1.355,0.86,1.73,1.665c0.375,0.805,0.43,1.604,0.164,2.396
					c-0.266,0.793-0.801,1.376-1.606,1.752C602.875,313.641,602.084,313.676,601.306,313.37z M600.493,309.647
					c-0.152,0.481-0.1,1,0.158,1.554c0.259,0.555,0.623,0.928,1.09,1.122c0.467,0.192,0.956,0.169,1.467-0.069
					c0.512-0.239,0.844-0.599,0.996-1.08c0.152-0.482,0.1-1.001-0.159-1.556c-0.259-0.554-0.622-0.928-1.089-1.12
					c-0.467-0.193-0.956-0.17-1.467,0.069C600.979,308.806,600.646,309.166,600.493,309.647z"/>
			</g>
			<g>
				<path fill="#666666" d="M507.148,323.797l-0.845-1.813l112.382-52.404l0.845,1.812L507.148,323.797z"/>
			</g>
			<g>
				<polygon fill="#666666" points="615.694,282.788 613.815,282.104 617.826,271.083 606.806,267.072 607.489,265.193 
					620.389,269.888 				"/>
			</g>
		</g>
	</g>
	<g>
		<g enable-background="new    ">
			<path fill="#FFFFFF" d="M360.202,209.388l0.828-1.134c2.147,1.14,3.222,2.916,3.222,5.328c0,1.74-0.621,3.186-1.863,4.338
				c-1.241,1.152-2.805,1.728-4.688,1.728c-1.86,0-3.417-0.6-4.671-1.8c-1.254-1.2-1.881-2.652-1.881-4.356
				c0-1.224,0.291-2.295,0.873-3.213s1.371-1.599,2.366-2.043l0.828,1.17c-1.823,0.864-2.735,2.238-2.735,4.122
				c0,1.284,0.501,2.367,1.503,3.249c1.002,0.882,2.24,1.323,3.717,1.323c1.5,0,2.745-0.423,3.734-1.269
				c0.99-0.846,1.485-1.941,1.485-3.285c0-0.948-0.213-1.755-0.639-2.421C361.855,210.459,361.162,209.88,360.202,209.388z"/>
			<path fill="#FFFFFF" d="M364,205.824h-12.6v-1.404H364V205.824z"/>
			<path fill="#FFFFFF" d="M353.524,201.829h-1.765v-1.692h1.765V201.829z M364,201.685h-8.928v-1.404H364V201.685z"/>
			<path fill="#FFFFFF" d="M359.77,189.553v7.38c0.961-0.048,1.75-0.348,2.367-0.899c0.618-0.552,0.928-1.278,0.928-2.179
				c0-0.756-0.178-1.364-0.531-1.827c-0.354-0.461-0.855-0.854-1.503-1.179l0.611-1.025c1.74,0.876,2.61,2.237,2.61,4.086
				c0,1.235-0.447,2.283-1.341,3.141c-0.894,0.858-2.019,1.287-3.375,1.287s-2.481-0.432-3.375-1.296
				c-0.894-0.864-1.341-1.926-1.341-3.187c0-1.319,0.414-2.367,1.241-3.141c0.828-0.774,1.902-1.161,3.223-1.161H359.77z
				 M356.008,193.854c0,0.78,0.237,1.429,0.711,1.944c0.475,0.516,1.107,0.858,1.899,1.026v-5.868
				c-0.804,0.048-1.44,0.359-1.908,0.936S356.008,193.123,356.008,193.854z"/>
			<path fill="#FFFFFF" d="M357.934,179.851H364v1.404h-5.814c-0.684,0-1.205,0.195-1.565,0.585s-0.54,0.909-0.54,1.557
				c0,0.708,0.273,1.317,0.819,1.827c0.546,0.511,1.263,0.765,2.15,0.765H364v1.404h-8.928v-1.404h1.565
				c-0.563-0.323-1.008-0.746-1.332-1.269c-0.323-0.522-0.485-1.101-0.485-1.737c0-0.876,0.261-1.616,0.782-2.223
				C356.125,180.154,356.902,179.851,357.934,179.851z"/>
			<path fill="#FFFFFF" d="M356.188,178.428h-1.116v-1.493h-2.412v-1.404h2.412v-2.052h1.116v2.052h5.399
				c0.517,0,0.885-0.081,1.107-0.243c0.222-0.162,0.333-0.488,0.333-0.98c0-0.204-0.036-0.426-0.108-0.666l1.17-0.126
				c0.108,0.312,0.162,0.708,0.162,1.188c0,0.648-0.188,1.183-0.567,1.602c-0.378,0.421-0.986,0.631-1.826,0.631h-5.67V178.428z"/>
			<path fill="#FFFFFF" d="M357.178,170.311c0.433,0,0.769-0.201,1.008-0.603c0.24-0.402,0.433-0.993,0.576-1.773
				c0.385-2.004,1.261-3.006,2.628-3.006c0.805,0,1.482,0.3,2.034,0.899c0.553,0.601,0.828,1.429,0.828,2.484
				c0,0.937-0.243,1.731-0.729,2.385c-0.486,0.654-1.107,1.125-1.863,1.413l-0.72-1.17c1.392-0.516,2.088-1.392,2.088-2.628
				c0-0.612-0.142-1.095-0.423-1.449c-0.282-0.354-0.669-0.53-1.161-0.53c-0.433,0-0.771,0.183-1.018,0.549
				c-0.245,0.366-0.44,0.944-0.585,1.736c-0.168,0.889-0.465,1.608-0.891,2.16c-0.426,0.553-0.999,0.828-1.719,0.828
				c-0.732,0-1.317-0.3-1.756-0.899c-0.438-0.601-0.656-1.326-0.656-2.179c0-1.716,0.72-2.873,2.16-3.474l0.63,1.08
				c-1.068,0.432-1.603,1.224-1.603,2.376c0,0.528,0.1,0.96,0.297,1.296C356.503,170.143,356.794,170.311,357.178,170.311z"/>
		</g>
		<g>
			<path fill="#666666" d="M382,130h2v124h-2V130z"/>
		</g>
		<g>
			<polygon fill="#666666" points="383,255.414 373.293,245.707 374.707,244.293 383,252.586 391.293,244.293 392.707,245.707 			
				"/>
		</g>
		<g>
			<g enable-background="new    ">
				<path fill="#FFFFFF" d="M443,206.116h-12.6v-4.608c0-1.188,0.285-2.145,0.854-2.871c0.57-0.726,1.299-1.089,2.188-1.089
					c1.319,0,2.244,0.732,2.771,2.196c0.276-0.828,0.663-1.476,1.161-1.944c0.498-0.468,1.167-0.702,2.007-0.702
					c1.08,0,1.953,0.426,2.619,1.278c0.666,0.853,0.999,1.884,0.999,3.096V206.116z M431.66,204.604h4.032v-2.988
					c0-0.792-0.165-1.428-0.495-1.908c-0.33-0.479-0.837-0.72-1.521-0.72c-0.684,0-1.19,0.24-1.521,0.72
					c-0.33,0.48-0.495,1.116-0.495,1.908V204.604z M436.952,204.604h4.788v-2.898c0-0.948-0.192-1.713-0.576-2.295
					s-0.99-0.873-1.818-0.873s-1.434,0.291-1.817,0.873s-0.576,1.347-0.576,2.295V204.604z"/>
				<path fill="#FFFFFF" d="M443,194.758h-12.6v-7.884h1.332v6.372h4.086v-5.868h1.332v5.868h4.518v-6.426H443V194.758z"/>
				<path fill="#FFFFFF" d="M431.732,185.255H430.4v-9.36h1.332v3.924H443v1.513h-11.268V185.255z"/>
			</g>
			<g>
				<path fill="#666666" d="M412,254h-2V130h2V254z"/>
			</g>
			<g>
				<polygon fill="#666666" points="419.293,139.707 411,131.414 402.707,139.707 401.293,138.293 411,128.586 420.707,138.293 				
					"/>
			</g>
		</g>
	</g>
	<g transform="translate(634 442)">
		<g>
			<path fill="#F3951A" d="M80,160c-44.112,0-80-35.888-80-80S35.888,0,80,0s80,35.888,80,80S124.112,160,80,160z M80,2
				C36.99,2,2,36.99,2,80s34.99,78,78,78s78-34.99,78-78S123.01,2,80,2z"/>
		</g>
		<g enable-background="new    ">
			<path fill="#FFFFFF" d="M53.792,73l-3.096-5.472h-2.844V73H46.34V60.4h5.022c1.224,0,2.205,0.336,2.942,1.008
				c0.738,0.672,1.107,1.523,1.107,2.556c0,0.876-0.276,1.626-0.828,2.25s-1.302,1.032-2.25,1.225L55.484,73H53.792z M47.853,61.732
				v4.464h3.239c0.9,0,1.594-0.192,2.079-0.576c0.486-0.384,0.729-0.937,0.729-1.656s-0.243-1.271-0.729-1.656
				c-0.485-0.384-1.179-0.575-2.079-0.575H47.853z"/>
			<path fill="#FFFFFF" d="M64.881,73h-1.404c-0.36-0.432-0.54-1.02-0.54-1.764c-0.276,0.647-0.682,1.146-1.215,1.494
				c-0.534,0.348-1.144,0.521-1.827,0.521c-0.9,0-1.626-0.255-2.178-0.765c-0.553-0.51-0.828-1.161-0.828-1.953
				c0-0.816,0.284-1.47,0.854-1.962s1.312-0.811,2.224-0.954l2.97-0.486v-0.396c0-1.152-0.702-1.729-2.106-1.729
				c-0.672,0-1.19,0.133-1.557,0.396s-0.549,0.594-0.549,0.989c0,0.085,0.012,0.175,0.036,0.271l-1.225,0.414
				c-0.096-0.228-0.144-0.468-0.144-0.72c0-0.696,0.314-1.293,0.944-1.791c0.631-0.498,1.461-0.747,2.493-0.747
				c1.152,0,2.025,0.255,2.619,0.765s0.892,1.228,0.892,2.151v4.031c0,0.517,0.035,0.928,0.107,1.233S64.664,72.64,64.881,73z
				 M60.057,71.992c0.899,0,1.604-0.339,2.115-1.018c0.51-0.678,0.765-1.496,0.765-2.457v-0.27l-2.718,0.468
				c-0.612,0.108-1.08,0.313-1.404,0.612s-0.486,0.678-0.486,1.134c0,0.468,0.156,0.84,0.469,1.116
				C59.108,71.854,59.528,71.992,60.057,71.992z"/>
			<path fill="#FFFFFF" d="M74.366,66.934V73h-1.404v-5.814c0-0.684-0.195-1.205-0.585-1.565s-0.909-0.54-1.557-0.54
				c-0.708,0-1.317,0.273-1.827,0.819c-0.511,0.546-0.765,1.263-0.765,2.15V73h-1.404v-8.928h1.404v1.565
				c0.323-0.563,0.746-1.008,1.269-1.332c0.522-0.323,1.101-0.485,1.737-0.485c0.876,0,1.616,0.261,2.223,0.782
				C74.063,65.125,74.366,65.902,74.366,66.934z"/>
			<path fill="#FFFFFF" d="M85.111,60.4V73h-1.403v-1.602c-0.708,1.235-1.734,1.854-3.078,1.854c-1.248,0-2.28-0.441-3.096-1.323
				c-0.816-0.882-1.225-2.013-1.225-3.393c0-1.344,0.42-2.466,1.26-3.366s1.83-1.35,2.971-1.35c0.731,0,1.374,0.165,1.926,0.495
				s0.966,0.789,1.242,1.377V60.4H85.111z M78.623,71.011c0.582,0.63,1.305,0.945,2.169,0.945c0.863,0,1.584-0.315,2.16-0.945
				c0.575-0.63,0.863-1.455,0.863-2.475s-0.288-1.845-0.863-2.476c-0.576-0.63-1.297-0.944-2.16-0.944
				c-0.864,0-1.587,0.314-2.169,0.944c-0.583,0.631-0.873,1.456-0.873,2.476S78.04,70.381,78.623,71.011z"/>
			<path fill="#FFFFFF" d="M95.85,65.98c0.474,0.731,0.711,1.584,0.711,2.556s-0.237,1.824-0.711,2.556
				c-0.475,0.732-1.06,1.275-1.755,1.629c-0.696,0.354-1.429,0.531-2.196,0.531s-1.5-0.177-2.196-0.531
				c-0.695-0.354-1.281-0.896-1.755-1.629c-0.474-0.731-0.711-1.584-0.711-2.556s0.237-1.824,0.711-2.556
				c0.474-0.732,1.06-1.275,1.755-1.63c0.696-0.354,1.429-0.53,2.196-0.53s1.5,0.177,2.196,0.53
				C94.79,64.705,95.375,65.248,95.85,65.98z M89.604,71.011c0.618,0.654,1.383,0.981,2.295,0.981s1.677-0.327,2.295-0.981
				c0.618-0.653,0.927-1.479,0.927-2.475s-0.309-1.821-0.927-2.476c-0.618-0.653-1.383-0.98-2.295-0.98s-1.677,0.327-2.295,0.98
				c-0.618,0.654-0.927,1.479-0.927,2.476S88.985,70.357,89.604,71.011z"/>
			<path fill="#FFFFFF" d="M110.636,66.214V73h-1.404v-6.282c0-0.516-0.142-0.918-0.423-1.206c-0.282-0.288-0.699-0.432-1.251-0.432
				c-0.637,0-1.161,0.255-1.575,0.765c-0.414,0.511-0.621,1.287-0.621,2.331V73h-1.404v-6.12c0-0.576-0.138-1.02-0.414-1.332
				c-0.275-0.312-0.684-0.468-1.224-0.468c-0.636,0-1.167,0.261-1.593,0.783c-0.426,0.521-0.639,1.305-0.639,2.349V73h-1.404v-8.928
				h1.404v1.422c0.228-0.468,0.578-0.864,1.053-1.188c0.474-0.323,1.005-0.485,1.593-0.485c0.576,0,1.083,0.141,1.521,0.423
				c0.438,0.282,0.74,0.705,0.908,1.269c0.637-1.128,1.578-1.691,2.826-1.691c0.78,0,1.416,0.219,1.908,0.656
				C110.39,64.915,110.636,65.494,110.636,66.214z"/>
		</g>
		<g>
		</g>
		<g enable-background="new    ">
			<path fill="#FFFFFF" d="M43.361,97l-0.432-2.178c-0.373,0.744-0.9,1.335-1.584,1.772c-0.685,0.438-1.501,0.657-2.449,0.657
				c-1.764,0-3.203-0.618-4.319-1.854c-1.116-1.236-1.675-2.803-1.675-4.698c0-1.86,0.604-3.417,1.81-4.671s2.655-1.881,4.347-1.881
				c1.2,0,2.254,0.272,3.16,0.818c0.905,0.547,1.604,1.293,2.096,2.241l-1.151,0.828c-0.528-0.912-1.125-1.566-1.791-1.962
				c-0.666-0.396-1.443-0.594-2.331-0.594c-1.26,0-2.34,0.492-3.24,1.476c-0.9,0.984-1.35,2.232-1.35,3.744
				c0,1.548,0.41,2.805,1.232,3.771c0.822,0.967,1.911,1.449,3.268,1.449c1.14,0,2.037-0.354,2.691-1.062
				c0.653-0.708,1.07-1.681,1.25-2.916h-4.428v-1.261h5.939V97H43.361z"/>
			<path fill="#FFFFFF" d="M55.223,92.77h-7.379c0.047,0.961,0.348,1.75,0.899,2.367c0.552,0.618,1.278,0.928,2.178,0.928
				c0.757,0,1.365-0.178,1.827-0.531c0.462-0.354,0.855-0.855,1.18-1.503l1.025,0.611c-0.876,1.74-2.238,2.61-4.086,2.61
				c-1.236,0-2.283-0.447-3.141-1.341c-0.858-0.894-1.287-2.019-1.287-3.375s0.432-2.481,1.295-3.375
				c0.865-0.894,1.927-1.341,3.187-1.341c1.32,0,2.367,0.414,3.142,1.241c0.773,0.828,1.16,1.902,1.16,3.223V92.77z M50.921,89.008
				c-0.78,0-1.429,0.237-1.944,0.711c-0.516,0.475-0.857,1.107-1.025,1.899h5.868c-0.048-0.804-0.36-1.44-0.937-1.908
				S51.652,89.008,50.921,89.008z"/>
			<path fill="#FFFFFF" d="M64.926,90.934V97h-1.404v-5.814c0-0.684-0.195-1.205-0.586-1.565c-0.389-0.36-0.908-0.54-1.557-0.54
				c-0.707,0-1.316,0.273-1.826,0.819c-0.512,0.546-0.766,1.263-0.766,2.15V97h-1.404v-8.928h1.404v1.565
				c0.324-0.563,0.746-1.008,1.27-1.332c0.521-0.323,1.1-0.485,1.736-0.485c0.877,0,1.617,0.261,2.223,0.782
				C64.621,89.125,64.926,89.902,64.926,90.934z"/>
			<path fill="#FFFFFF" d="M75.652,92.77h-7.379c0.047,0.961,0.348,1.75,0.898,2.367c0.553,0.618,1.279,0.928,2.18,0.928
				c0.756,0,1.363-0.178,1.826-0.531c0.461-0.354,0.855-0.855,1.18-1.503l1.025,0.611c-0.877,1.74-2.238,2.61-4.086,2.61
				c-1.236,0-2.283-0.447-3.141-1.341c-0.859-0.894-1.287-2.019-1.287-3.375s0.432-2.481,1.295-3.375
				c0.865-0.894,1.926-1.341,3.188-1.341c1.318,0,2.367,0.414,3.141,1.241c0.773,0.828,1.16,1.902,1.16,3.223V92.77z M71.352,89.008
				c-0.781,0-1.43,0.237-1.945,0.711c-0.516,0.475-0.857,1.107-1.025,1.899h5.867c-0.047-0.804-0.359-1.44-0.936-1.908
				S72.082,89.008,71.352,89.008z"/>
			<path fill="#FFFFFF" d="M82.42,87.91l-0.232,1.313c-0.217-0.071-0.451-0.107-0.703-0.107c-0.635,0-1.172,0.278-1.611,0.837
				c-0.438,0.558-0.656,1.281-0.656,2.169V97h-1.404v-8.928h1.404v1.62c0.576-1.248,1.439-1.872,2.592-1.872
				C82,87.82,82.205,87.85,82.42,87.91z"/>
			<path fill="#FFFFFF" d="M91.258,97h-1.402c-0.361-0.432-0.541-1.02-0.541-1.764c-0.275,0.647-0.682,1.146-1.215,1.494
				c-0.533,0.348-1.143,0.521-1.826,0.521c-0.9,0-1.627-0.255-2.18-0.765c-0.551-0.51-0.828-1.161-0.828-1.953
				c0-0.816,0.285-1.47,0.855-1.962s1.311-0.811,2.223-0.954l2.971-0.486v-0.396c0-1.152-0.701-1.729-2.105-1.729
				c-0.672,0-1.191,0.133-1.557,0.396c-0.367,0.264-0.549,0.594-0.549,0.989c0,0.085,0.012,0.175,0.035,0.271l-1.225,0.414
				c-0.096-0.228-0.143-0.468-0.143-0.72c0-0.696,0.314-1.293,0.943-1.791c0.631-0.498,1.461-0.747,2.494-0.747
				c1.152,0,2.025,0.255,2.619,0.765s0.891,1.228,0.891,2.151v4.031c0,0.517,0.035,0.928,0.107,1.233S91.043,96.64,91.258,97z
				 M86.434,95.992c0.9,0,1.605-0.339,2.115-1.018c0.51-0.678,0.766-1.496,0.766-2.457v-0.27l-2.719,0.468
				c-0.611,0.108-1.08,0.313-1.402,0.612c-0.324,0.3-0.486,0.678-0.486,1.134c0,0.468,0.156,0.84,0.467,1.116
				C85.486,95.854,85.906,95.992,86.434,95.992z"/>
			<path fill="#FFFFFF" d="M92.23,89.188v-1.116h1.494V85.66h1.404v2.412h2.051v1.116h-2.051v5.399c0,0.517,0.08,0.885,0.242,1.107
				c0.162,0.222,0.488,0.333,0.98,0.333c0.205,0,0.426-0.036,0.666-0.108l0.127,1.17c-0.313,0.108-0.709,0.162-1.188,0.162
				c-0.648,0-1.184-0.188-1.602-0.567c-0.422-0.378-0.631-0.986-0.631-1.826v-5.67H92.23z"/>
			<path fill="#FFFFFF" d="M106.91,89.98c0.473,0.731,0.711,1.584,0.711,2.556s-0.238,1.824-0.711,2.556
				c-0.475,0.732-1.061,1.275-1.756,1.629c-0.695,0.354-1.428,0.531-2.195,0.531s-1.5-0.177-2.197-0.531
				c-0.695-0.354-1.281-0.896-1.754-1.629c-0.475-0.731-0.711-1.584-0.711-2.556s0.236-1.824,0.711-2.556
				c0.473-0.732,1.059-1.275,1.754-1.63c0.697-0.354,1.43-0.53,2.197-0.53s1.5,0.177,2.195,0.53
				C105.85,88.705,106.436,89.248,106.91,89.98z M100.664,95.011c0.617,0.654,1.383,0.981,2.295,0.981s1.676-0.327,2.295-0.981
				c0.617-0.653,0.926-1.479,0.926-2.475s-0.309-1.821-0.926-2.476c-0.619-0.653-1.383-0.98-2.295-0.98s-1.678,0.327-2.295,0.98
				c-0.619,0.654-0.928,1.479-0.928,2.476S100.045,94.357,100.664,95.011z"/>
			<path fill="#FFFFFF" d="M114.352,87.91l-0.232,1.313c-0.217-0.071-0.451-0.107-0.703-0.107c-0.635,0-1.172,0.278-1.611,0.837
				c-0.438,0.558-0.656,1.281-0.656,2.169V97h-1.404v-8.928h1.404v1.62c0.576-1.248,1.439-1.872,2.592-1.872
				C113.932,87.82,114.137,87.85,114.352,87.91z"/>
			<path fill="#FFFFFF" d="M116.998,90.178c0,0.433,0.201,0.769,0.604,1.008c0.402,0.24,0.992,0.433,1.773,0.576
				c2.004,0.385,3.006,1.261,3.006,2.628c0,0.805-0.301,1.482-0.9,2.034c-0.6,0.553-1.428,0.828-2.484,0.828
				c-0.936,0-1.73-0.243-2.385-0.729c-0.654-0.486-1.125-1.107-1.412-1.863l1.17-0.72c0.516,1.392,1.391,2.088,2.627,2.088
				c0.613,0,1.096-0.142,1.449-0.423c0.354-0.282,0.531-0.669,0.531-1.161c0-0.433-0.184-0.771-0.549-1.018
				c-0.367-0.245-0.945-0.44-1.736-0.585c-0.889-0.168-1.609-0.465-2.16-0.891c-0.553-0.426-0.828-0.999-0.828-1.719
				c0-0.732,0.299-1.317,0.898-1.756c0.602-0.438,1.326-0.656,2.18-0.656c1.715,0,2.873,0.72,3.473,2.16l-1.08,0.63
				c-0.432-1.068-1.223-1.603-2.375-1.603c-0.529,0-0.961,0.1-1.297,0.297C117.166,89.503,116.998,89.794,116.998,90.178z"/>
		</g>
	</g>
	<g transform="translate(0 131)">
		<g>
			<path fill="#F3951A" d="M80,160c-44.112,0-80-35.888-80-80S35.888,0,80,0s80,35.888,80,80S124.112,160,80,160z M80,2
				C36.991,2,2,36.991,2,80s34.991,78,78,78s78-34.991,78-78S123.009,2,80,2z"/>
		</g>
		<g enable-background="new    ">
			<path fill="#FFFFFF" d="M50.822,85l-3.096-5.472h-2.844V85H43.37V72.4h5.022c1.224,0,2.205,0.336,2.943,1.008
				c0.738,0.672,1.107,1.523,1.107,2.556c0,0.876-0.276,1.626-0.828,2.25c-0.552,0.624-1.302,1.032-2.25,1.225L52.514,85H50.822z
				 M44.882,73.732v4.464h3.24c0.9,0,1.593-0.192,2.079-0.576s0.729-0.937,0.729-1.656s-0.243-1.271-0.729-1.656
				c-0.486-0.384-1.179-0.575-2.079-0.575H44.882z"/>
			<path fill="#FFFFFF" d="M62.324,80.77h-7.38c0.048,0.961,0.348,1.75,0.9,2.367c0.552,0.618,1.278,0.928,2.178,0.928
				c0.756,0,1.365-0.178,1.827-0.531c0.462-0.354,0.855-0.855,1.179-1.503l1.026,0.611c-0.876,1.74-2.238,2.61-4.086,2.61
				c-1.236,0-2.283-0.447-3.141-1.341s-1.287-2.019-1.287-3.375s0.432-2.481,1.296-3.375c0.864-0.894,1.926-1.341,3.186-1.341
				c1.32,0,2.367,0.414,3.141,1.241c0.774,0.828,1.161,1.902,1.161,3.223V80.77z M58.022,77.008c-0.78,0-1.428,0.237-1.944,0.711
				c-0.516,0.475-0.858,1.107-1.026,1.899h5.868c-0.048-0.804-0.36-1.44-0.936-1.908C59.408,77.242,58.754,77.008,58.022,77.008z"/>
			<path fill="#FFFFFF" d="M63.386,77.188v-1.116h1.404V74.29c0-0.852,0.24-1.53,0.721-2.034c0.479-0.504,1.158-0.756,2.033-0.756
				c0.336,0,0.625,0.042,0.863,0.126l-0.215,1.188c-0.18-0.061-0.379-0.091-0.594-0.091c-0.936,0-1.404,0.528-1.404,1.584v1.765
				h2.053v1.116h-2.053V85H64.79v-7.812H63.386z"/>
			<path fill="#FFFFFF" d="M77.805,80.77h-7.38c0.048,0.961,0.348,1.75,0.899,2.367c0.552,0.618,1.278,0.928,2.179,0.928
				c0.756,0,1.364-0.178,1.827-0.531c0.461-0.354,0.854-0.855,1.179-1.503l1.025,0.611c-0.876,1.74-2.237,2.61-4.086,2.61
				c-1.235,0-2.283-0.447-3.141-1.341c-0.858-0.894-1.287-2.019-1.287-3.375s0.433-2.481,1.296-3.375
				c0.864-0.894,1.926-1.341,3.187-1.341c1.319,0,2.367,0.414,3.141,1.241c0.774,0.828,1.161,1.902,1.161,3.223V80.77z
				 M73.503,77.008c-0.78,0-1.429,0.237-1.944,0.711c-0.516,0.475-0.858,1.107-1.026,1.899H76.4
				c-0.048-0.804-0.359-1.44-0.936-1.908S74.234,77.008,73.503,77.008z"/>
			<path fill="#FFFFFF" d="M84.571,75.91l-0.233,1.313c-0.216-0.071-0.45-0.107-0.702-0.107c-0.636,0-1.173,0.278-1.611,0.837
				c-0.438,0.558-0.656,1.281-0.656,2.169V85h-1.404v-8.928h1.404v1.62c0.575-1.248,1.439-1.872,2.592-1.872
				C84.151,75.82,84.355,75.85,84.571,75.91z"/>
			<path fill="#FFFFFF" d="M90.836,75.91l-0.233,1.313c-0.216-0.071-0.45-0.107-0.702-0.107c-0.636,0-1.173,0.278-1.611,0.837
				c-0.438,0.558-0.656,1.281-0.656,2.169V85h-1.404v-8.928h1.404v1.62c0.575-1.248,1.439-1.872,2.592-1.872
				C90.416,75.82,90.62,75.85,90.836,75.91z"/>
			<path fill="#FFFFFF" d="M99.674,85h-1.403c-0.36-0.432-0.54-1.02-0.54-1.764c-0.276,0.647-0.682,1.146-1.216,1.494
				c-0.533,0.348-1.143,0.521-1.826,0.521c-0.9,0-1.627-0.255-2.179-0.765s-0.828-1.161-0.828-1.953c0-0.816,0.285-1.47,0.855-1.962
				c0.569-0.492,1.311-0.811,2.223-0.954l2.971-0.486v-0.396c0-1.152-0.702-1.729-2.106-1.729c-0.672,0-1.191,0.133-1.557,0.396
				c-0.366,0.264-0.549,0.594-0.549,0.989c0,0.085,0.012,0.175,0.035,0.271l-1.224,0.414c-0.096-0.228-0.144-0.468-0.144-0.72
				c0-0.696,0.314-1.293,0.944-1.791s1.461-0.747,2.493-0.747c1.152,0,2.025,0.255,2.619,0.765s0.891,1.228,0.891,2.151v4.031
				c0,0.517,0.036,0.928,0.108,1.233S99.458,84.64,99.674,85z M94.85,83.992c0.9,0,1.605-0.339,2.115-1.018
				c0.51-0.678,0.766-1.496,0.766-2.457v-0.27l-2.719,0.468c-0.611,0.108-1.08,0.313-1.403,0.612
				c-0.324,0.3-0.486,0.678-0.486,1.134c0,0.468,0.156,0.84,0.468,1.116C93.902,83.854,94.322,83.992,94.85,83.992z"/>
			<path fill="#FFFFFF" d="M101.618,85V72.4h1.404V85H101.618z"/>
			<path fill="#FFFFFF" d="M106.856,78.178c0,0.433,0.201,0.769,0.603,1.008c0.402,0.24,0.993,0.433,1.773,0.576
				c2.004,0.385,3.006,1.261,3.006,2.628c0,0.805-0.3,1.482-0.899,2.034c-0.601,0.553-1.429,0.828-2.484,0.828
				c-0.937,0-1.731-0.243-2.385-0.729c-0.654-0.486-1.125-1.107-1.413-1.863l1.17-0.72c0.516,1.392,1.392,2.088,2.628,2.088
				c0.612,0,1.095-0.142,1.449-0.423c0.354-0.282,0.53-0.669,0.53-1.161c0-0.433-0.183-0.771-0.549-1.018
				c-0.366-0.245-0.944-0.44-1.736-0.585c-0.889-0.168-1.608-0.465-2.16-0.891c-0.553-0.426-0.828-0.999-0.828-1.719
				c0-0.732,0.3-1.317,0.899-1.756c0.601-0.438,1.326-0.656,2.179-0.656c1.716,0,2.873,0.72,3.474,2.16l-1.08,0.63
				c-0.432-1.068-1.224-1.603-2.376-1.603c-0.528,0-0.96,0.1-1.296,0.297C107.024,77.503,106.856,77.794,106.856,78.178z"/>
		</g>
	</g>
	<g transform="translate(0 442)">
		<g>
			<path fill="#F3951A" d="M80,160c-44.112,0-80-35.888-80-80S35.888,0,80,0s80,35.888,80,80S124.112,160,80,160z M80,2
				C36.991,2,2,36.99,2,80s34.991,78,78,78s78-34.99,78-78S123.009,2,80,2z"/>
		</g>
		<g enable-background="new    ">
			<path fill="#FFFFFF" d="M36.638,81.202l1.134,0.828c-1.14,2.147-2.916,3.222-5.328,3.222c-1.74,0-3.186-0.621-4.338-1.863
				c-1.152-1.241-1.728-2.805-1.728-4.688c0-1.86,0.6-3.417,1.8-4.671c1.2-1.254,2.652-1.881,4.356-1.881
				c1.224,0,2.295,0.291,3.213,0.873s1.599,1.371,2.043,2.366l-1.17,0.828c-0.864-1.823-2.238-2.735-4.122-2.735
				c-1.284,0-2.367,0.501-3.249,1.503c-0.882,1.002-1.323,2.24-1.323,3.717c0,1.5,0.423,2.745,1.269,3.734
				c0.846,0.99,1.941,1.485,3.285,1.485c0.948,0,1.755-0.213,2.421-0.639C35.567,82.855,36.146,82.162,36.638,81.202z"/>
			<path fill="#FFFFFF" d="M47.861,77.98c0.474,0.731,0.71,1.584,0.71,2.556s-0.237,1.824-0.71,2.556
				c-0.474,0.732-1.06,1.275-1.755,1.629c-0.696,0.354-1.428,0.531-2.196,0.531s-1.5-0.177-2.196-0.531
				c-0.696-0.354-1.281-0.896-1.755-1.629c-0.474-0.731-0.711-1.584-0.711-2.556s0.237-1.824,0.711-2.556
				c0.474-0.732,1.059-1.275,1.755-1.63c0.696-0.354,1.428-0.53,2.196-0.53s1.5,0.177,2.196,0.53
				C46.801,76.705,47.387,77.248,47.861,77.98z M41.615,83.011c0.618,0.654,1.383,0.981,2.295,0.981
				c0.912,0,1.677-0.327,2.295-0.981c0.618-0.653,0.927-1.479,0.927-2.475s-0.309-1.821-0.927-2.476
				c-0.618-0.653-1.383-0.98-2.295-0.98c-0.912,0-1.677,0.327-2.295,0.98c-0.618,0.654-0.927,1.479-0.927,2.476
				S40.997,82.357,41.615,83.011z"/>
			<path fill="#FFFFFF" d="M58.238,78.934V85h-1.404v-5.814c0-0.684-0.195-1.205-0.585-1.565s-0.909-0.54-1.557-0.54
				c-0.708,0-1.317,0.273-1.827,0.819c-0.511,0.546-0.765,1.263-0.765,2.15V85h-1.404v-8.928h1.404v1.565
				c0.323-0.563,0.746-1.008,1.269-1.332c0.522-0.323,1.101-0.485,1.737-0.485c0.876,0,1.616,0.261,2.223,0.782
				C57.935,77.125,58.238,77.902,58.238,78.934z"/>
			<path fill="#FFFFFF" d="M59.66,77.188v-1.116h1.493V73.66h1.404v2.412h2.052v1.116h-2.052v5.399c0,0.517,0.081,0.885,0.243,1.107
				c0.162,0.222,0.488,0.333,0.98,0.333c0.204,0,0.426-0.036,0.666-0.108l0.126,1.17c-0.312,0.108-0.708,0.162-1.188,0.162
				c-0.648,0-1.183-0.188-1.602-0.567c-0.421-0.378-0.631-0.986-0.631-1.826v-5.67H59.66z"/>
			<path fill="#FFFFFF" d="M71.233,75.91L71,77.224c-0.216-0.071-0.45-0.107-0.702-0.107c-0.636,0-1.173,0.278-1.611,0.837
				c-0.438,0.558-0.656,1.281-0.656,2.169V85h-1.404v-8.928h1.404v1.62c0.575-1.248,1.439-1.872,2.592-1.872
				C70.813,75.82,71.018,75.85,71.233,75.91z"/>
			<path fill="#FFFFFF" d="M72.745,74.524V72.76h1.692v1.765H72.745z M72.89,85v-8.928h1.404V85H72.89z"/>
			<path fill="#FFFFFF" d="M77.03,85V72.4h1.404v5.292c0.335-0.576,0.794-1.032,1.377-1.368c0.581-0.336,1.215-0.504,1.898-0.504
				c1.176,0,2.157,0.443,2.943,1.332c0.785,0.888,1.179,2.016,1.179,3.384s-0.405,2.496-1.215,3.384
				c-0.811,0.889-1.833,1.332-3.069,1.332c-0.684,0-1.305-0.174-1.862-0.521c-0.559-0.349-0.976-0.792-1.251-1.332V85H77.03z
				 M79.19,83.011c0.575,0.63,1.296,0.945,2.16,0.945c0.863,0,1.586-0.315,2.169-0.945c0.581-0.63,0.873-1.455,0.873-2.475
				s-0.292-1.845-0.873-2.476c-0.583-0.63-1.306-0.944-2.169-0.944c-0.864,0-1.585,0.314-2.16,0.944
				c-0.576,0.631-0.864,1.456-0.864,2.476S78.614,82.381,79.19,83.011z"/>
			<path fill="#FFFFFF" d="M87.812,81.958v-5.886h1.404v5.813c0,0.685,0.191,1.206,0.575,1.566c0.384,0.359,0.895,0.54,1.53,0.54
				c0.731,0,1.353-0.271,1.863-0.811c0.51-0.54,0.765-1.241,0.765-2.105v-5.004h1.404V85h-1.404v-1.566
				c-0.636,1.213-1.626,1.818-2.97,1.818c-0.9,0-1.653-0.27-2.259-0.81C88.114,83.902,87.812,83.074,87.812,81.958z"/>
			<path fill="#FFFFFF" d="M97.19,77.188v-1.116h1.493V73.66h1.404v2.412h2.052v1.116h-2.052v5.399c0,0.517,0.081,0.885,0.243,1.107
				c0.162,0.222,0.488,0.333,0.98,0.333c0.204,0,0.426-0.036,0.666-0.108l0.126,1.17c-0.312,0.108-0.708,0.162-1.188,0.162
				c-0.648,0-1.183-0.188-1.602-0.567c-0.421-0.378-0.631-0.986-0.631-1.826v-5.67H97.19z"/>
			<path fill="#FFFFFF" d="M111.869,77.98c0.474,0.731,0.711,1.584,0.711,2.556s-0.237,1.824-0.711,2.556
				c-0.475,0.732-1.06,1.275-1.755,1.629c-0.696,0.354-1.429,0.531-2.196,0.531s-1.5-0.177-2.196-0.531
				c-0.695-0.354-1.281-0.896-1.755-1.629c-0.474-0.731-0.711-1.584-0.711-2.556s0.237-1.824,0.711-2.556
				c0.474-0.732,1.06-1.275,1.755-1.63c0.696-0.354,1.429-0.53,2.196-0.53s1.5,0.177,2.196,0.53
				C110.81,76.705,111.395,77.248,111.869,77.98z M105.623,83.011c0.618,0.654,1.383,0.981,2.295,0.981s1.677-0.327,2.295-0.981
				c0.618-0.653,0.927-1.479,0.927-2.475s-0.309-1.821-0.927-2.476c-0.618-0.653-1.383-0.98-2.295-0.98s-1.677,0.327-2.295,0.98
				c-0.618,0.654-0.927,1.479-0.927,2.476S105.005,82.357,105.623,83.011z"/>
			<path fill="#FFFFFF" d="M119.312,75.91l-0.233,1.313c-0.216-0.071-0.45-0.107-0.702-0.107c-0.636,0-1.173,0.278-1.611,0.837
				c-0.438,0.558-0.656,1.281-0.656,2.169V85h-1.404v-8.928h1.404v1.62c0.575-1.248,1.439-1.872,2.592-1.872
				C118.892,75.82,119.096,75.85,119.312,75.91z"/>
			<path fill="#FFFFFF" d="M121.958,78.178c0,0.433,0.201,0.769,0.603,1.008c0.402,0.24,0.993,0.433,1.773,0.576
				c2.004,0.385,3.006,1.261,3.006,2.628c0,0.805-0.3,1.482-0.899,2.034c-0.601,0.553-1.429,0.828-2.484,0.828
				c-0.937,0-1.731-0.243-2.385-0.729c-0.654-0.486-1.125-1.107-1.413-1.863l1.17-0.72c0.516,1.392,1.392,2.088,2.628,2.088
				c0.612,0,1.095-0.142,1.449-0.423c0.354-0.282,0.53-0.669,0.53-1.161c0-0.433-0.183-0.771-0.549-1.018
				c-0.366-0.245-0.944-0.44-1.736-0.585c-0.889-0.168-1.608-0.465-2.16-0.891c-0.553-0.426-0.828-0.999-0.828-1.719
				c0-0.732,0.3-1.317,0.899-1.756c0.601-0.438,1.326-0.656,2.179-0.656c1.716,0,2.873,0.72,3.474,2.16l-1.08,0.63
				c-0.432-1.068-1.224-1.603-2.376-1.603c-0.528,0-0.96,0.1-1.296,0.297C122.126,77.503,121.958,77.794,121.958,78.178z"/>
		</g>
	</g>
</g>
</svg>
