<?xml version="1.0" encoding="utf-8"?>
<!-- Generator: Adobe Illustrator 17.0.1, SVG Export Plug-In . SVG Version: 6.00 Build 0)  -->
<!DOCTYPE svg PUBLIC "-//W3C//DTD SVG 1.1//EN" "http://www.w3.org/Graphics/SVG/1.1/DTD/svg11.dtd">
<svg version="1.1" id="Layer_1" xmlns="http://www.w3.org/2000/svg" xmlns:xlink="http://www.w3.org/1999/xlink" x="0px" y="0px"
	 width="794px" height="809px" viewBox="0 0 794 809" enable-background="new 0 0 794 809" xml:space="preserve">
<g>
	<text transform="matrix(1 0 0 1 290.314 805)" fill="#FFFFFF" font-family="'BasisGrotesquePro-Regular'" font-size="18">*BET = Dao.</text>
	<text transform="matrix(1 0 0 1 386.074 805)" fill="#ED9726" font-family="'BasisGrotesquePro-Regular'" font-size="18">Casino </text>
	<text transform="matrix(1 0 0 1 448.372 805)" fill="#FFFFFF" font-family="'BasisGrotesquePro-Regular'" font-size="18">tokens</text>
	<path fill="none" stroke="#F3951A" stroke-width="2" d="M322,1h150c27.062,0,49,21.938,49,49l0,0c0,27.062-21.938,49-49,49H322
		c-27.062,0-49-21.938-49-49l0,0C273,22.938,294.938,1,322,1z"/>
	<text transform="matrix(1 0 0 1 321.409 55)" fill="#FFFFFF" font-family="'BasisGrotesquePro-Regular'" font-size="18">Casino Operators</text>
	<path fill="none" stroke="#F3951A" stroke-width="2" d="M322,649h150c27.062,0,49,21.938,49,49l0,0c0,27.062-21.938,49-49,49H322
		c-27.062,0-49-21.938-49-49l0,0C273,670.938,294.938,649,322,649z"/>
	<text transform="matrix(1 0 0 1 322.472 703)" fill="#FFFFFF" font-family="'BasisGrotesquePro-Regular'" font-size="18">Game Developers</text>
	<circle fill="none" stroke="#F3951A" stroke-width="2" cx="397" cy="364" r="79"/>
	<g transform="translate(370 341)">
		<ellipse fill="#EE9828" cx="1.491" cy="12.772" rx="1.491" ry="2.785"/>
		<ellipse fill="#EE9828" cx="1.491" cy="31.981" rx="1.491" ry="2.785"/>
		<ellipse fill="#EE9828" cx="9.927" cy="21.685" rx="1.749" ry="3.277"/>
		<path fill="#EE9828" d="M51.663,5.578L27.987,0c-1.112,0.029-1.99,0.953-1.963,2.065v40.718c-0.008,0.542-0.21,1.064-0.569,1.47
			c-0.388,0.35-0.875,0.573-1.395,0.64c0.6,0.318,1.28,0.453,1.956,0.389c1.653-0.272,4.62-1.015,4.62-1.015H30.6l20.835-4.901
			c2.215-0.5,3.285-1.705,3.285-3.674V8.818C54.735,6.915,53.878,6.063,51.663,5.578L51.663,5.578z M34.614,39.49
			c-1.136,0-2.059-1.727-2.059-3.85c0-2.124,0.923-3.851,2.06-3.851c1.136,0,2.059,1.727,2.059,3.85
			C36.674,37.763,35.751,39.489,34.614,39.49L34.614,39.49z M34.614,12.962c-1.136,0-2.059-1.727-2.059-3.85
			c0-2.125,0.923-3.851,2.06-3.851c1.136,0,2.059,1.726,2.059,3.85S35.751,12.961,34.614,12.962L34.614,12.962z M50.187,34.772
			c-0.826,0-1.476-1.25-1.476-2.785c0-1.536,0.664-2.785,1.476-2.785s1.476,1.25,1.476,2.785
			C51.663,33.523,51.021,34.772,50.187,34.772z M50.187,15.563c-0.826,0-1.476-1.25-1.476-2.785c0-1.536,0.664-2.785,1.476-2.785
			s1.476,1.25,1.476,2.785c0,1.536-0.642,2.778-1.476,2.778V15.563z"/>
		<ellipse fill="#EE9828" cx="19.949" cy="9.112" rx="2.052" ry="3.851"/>
		<ellipse fill="#EE9828" cx="19.949" cy="35.64" rx="2.052" ry="3.851"/>
	</g>
	<g transform="translate(634 131)">
		<circle fill="none" stroke="#F3951A" stroke-width="2" cx="80" cy="80" r="79"/>
		<text transform="matrix(1 0 0 1 40.841 73)" fill="#FFFFFF" font-family="'BasisGrotesquePro-Regular'" font-size="18">Investors</text>
		<text transform="matrix(1 0 0 1 114.6046 73)" fill="#FFFFFF" font-family="'BasisGrotesquePro-Regular'" font-size="18"> </text>
		<text transform="matrix(1 0 0 1 32.291 97)" fill="#FFFFFF" font-family="'BasisGrotesquePro-Regular'" font-size="18">&amp; Bankrolls</text>
	</g>
	
		<text transform="matrix(0.9063 0.4226 -0.4226 0.9063 202.1991 319.3614)" fill="#FFFFFF" font-family="'BasisGrotesquePro-Regular'" font-size="18">BET</text>
	<path fill="#666666" d="M286.174,324.315l0.845-1.813l-112.382-52.405l-0.845,1.813L286.174,324.315z"/>
	<path fill="none" stroke="#666666" stroke-width="2" d="M186.175,266.65l-11.96,4.354l4.352,11.96"/>
	
		<text transform="matrix(0.9063 0.4226 -0.4226 0.9063 224.7504 242.7103)" fill="#FFFFFF" font-family="'BasisGrotesquePro-Regular'" font-size="18">Clients</text>
	<path fill="#666666" d="M186.47,244.72l-0.845,1.813l112.382,52.405l0.845-1.813L186.47,244.72z"/>
	<path fill="none" stroke="#666666" stroke-width="2" d="M286.47,302.385l11.96-4.353l-4.353-11.96"/>
	
		<text transform="matrix(0.9063 -0.4226 0.4226 0.9063 207.6933 441.3607)" fill="#FFFFFF" font-family="'BasisGrotesquePro-Regular'" font-size="18">BET</text>
	<path fill="#666666" d="M286.174,424.626l0.845,1.812l-112.382,52.405l-0.845-1.813L286.174,424.626z"/>
	<path fill="none" stroke="#666666" stroke-width="2" d="M186.175,482.29l-11.96-4.353l4.352-11.96"/>
	<g>
		
			<text transform="matrix(0.9063 -0.4226 0.4226 0.9063 236.3456 515.1669)" fill="#FFFFFF" font-family="'BasisGrotesquePro-Regular'" font-size="18">Ether</text>
		<path fill="#666666" d="M186.47,504.22l-0.845-1.813l112.382-52.405l0.845,1.813L186.47,504.22z"/>
		<path fill="none" stroke="#666666" stroke-width="2" d="M286.47,446.555l11.96,4.354l-4.353,11.96"/>
	</g>
	<g>
		
			<text transform="matrix(6.123234e-017 -1 1 6.123234e-017 364 574.7109)" fill="#FFFFFF" font-family="'BasisGrotesquePro-Regular'" font-size="18">Games</text>
		<path fill="#666666" d="M382,608h2V484h-2V608z"/>
		<path fill="none" stroke="#666666" stroke-width="2" d="M392,493l-9-9l-9,9"/>
		<g>
			
				<text transform="matrix(6.123234e-017 -1 1 6.123234e-017 443 561.7012)" fill="#FFFFFF" font-family="'BasisGrotesquePro-Regular'" font-size="18">BET</text>
			<path fill="#666666" d="M412,484h-2v124h2V484z"/>
			<path fill="none" stroke="#666666" stroke-width="2" d="M402,599l9,9l9-9"/>
		</g>
	</g>
	<g>
		
			<text transform="matrix(0.9063 0.4226 -0.4226 0.9063 556.6246 406.8228)" fill="#FFFFFF" font-family="'BasisGrotesquePro-Regular'" font-size="18">BET</text>
		<path fill="#666666" d="M507.508,403.78l-0.845,1.813l112.382,52.405l0.845-1.813L507.508,403.78z"/>
		<path fill="none" stroke="#666666" stroke-width="2" d="M607.508,461.445l11.96-4.354l-4.353-11.96"/>
		<g>
			
				<text transform="matrix(0.9063 0.4226 -0.4226 0.9063 509.9254 467.5877)" fill="#FFFFFF" font-family="'BasisGrotesquePro-Regular'" font-size="18">Random</text>
			
				<text transform="matrix(0.9063 0.4226 -0.4226 0.9063 570.8727 496.0079)" fill="#FFFFFF" font-family="'BasisGrotesquePro-Regular'" font-size="18"> </text>
			
				<text transform="matrix(0.9063 0.4226 -0.4226 0.9063 502.1642 490.4498)" fill="#FFFFFF" font-family="'BasisGrotesquePro-Regular'" font-size="18">number</text>
			<path fill="#666666" d="M607.212,483.374l0.845-1.812l-112.382-52.405l-0.845,1.813L607.212,483.374z"/>
			<path fill="none" stroke="#666666" stroke-width="2" d="M507.213,425.71l-11.96,4.353l4.353,11.96"/>
		</g>
	</g>
	<g>
		
			<text transform="matrix(0.9063 -0.4226 0.4226 0.9063 528.3712 260.9384)" fill="#FFFFFF" font-family="'BasisGrotesquePro-Regular'" font-size="18">BET</text>
		<path fill="#666666" d="M606.852,244.203l0.845,1.813L495.315,298.42l-0.845-1.812L606.852,244.203z"/>
		<path fill="none" stroke="#666666" stroke-width="2" d="M506.853,301.867l-11.96-4.353l4.352-11.96"/>
		<g>
			
				<text transform="matrix(0.9063 -0.4226 0.4226 0.9063 546.3627 339.7152)" fill="#FFFFFF" font-family="'BasisGrotesquePro-Regular'" font-size="18">BET + %</text>
			<path fill="#666666" d="M507.148,323.797l-0.845-1.813l112.382-52.404l0.845,1.812L507.148,323.797z"/>
			<path fill="none" stroke="#666666" stroke-width="2" d="M607.147,266.133l11.96,4.353l-4.352,11.96"/>
		</g>
	</g>
	<g>
		
			<text transform="matrix(6.123234e-017 -1 1 6.123234e-017 364 220.6563)" fill="#FFFFFF" font-family="'BasisGrotesquePro-Regular'" font-size="18">Clients</text>
		<path fill="#666666" d="M382,130h2v124h-2V130z"/>
		<path fill="none" stroke="#666666" stroke-width="2" d="M392,245l-9,9l-9-9"/>
		<g>
			
				<text transform="matrix(6.123234e-017 -1 1 6.123234e-017 443 207.7002)" fill="#FFFFFF" font-family="'BasisGrotesquePro-Regular'" font-size="18">BET</text>
			<path fill="#666666" d="M412,254h-2V130h2V254z"/>
			<path fill="none" stroke="#666666" stroke-width="2" d="M402,139l9-9l9,9"/>
		</g>
	</g>
	<g transform="translate(634 442)">
		<circle fill="none" stroke="#F3951A" stroke-width="2" cx="80" cy="80" r="79"/>
		<text transform="matrix(1 0 0 1 44.756 73)" fill="#FFFFFF" font-family="'BasisGrotesquePro-Regular'" font-size="18">Random</text>
		<text transform="matrix(1 0 0 1 112.0039 73)" fill="#FFFFFF" font-family="'BasisGrotesquePro-Regular'" font-size="18"> </text>
		<text transform="matrix(1 0 0 1 31.895 97)" fill="#FFFFFF" font-family="'BasisGrotesquePro-Regular'" font-size="18">Generators</text>
	</g>
	<g transform="translate(0 131)">
		<circle fill="none" stroke="#F3951A" stroke-width="2" cx="80" cy="80" r="79"/>
		<text transform="matrix(1 0 0 1 41.786 85)" fill="#FFFFFF" font-family="'BasisGrotesquePro-Regular'" font-size="18">Referrals</text>
	</g>
	<g transform="translate(0 442)">
		<circle fill="none" stroke="#F3951A" stroke-width="2" cx="80" cy="80" r="79"/>
		<text transform="matrix(1 0 0 1 25.37 85)" fill="#FFFFFF" font-family="'BasisGrotesquePro-Regular'" font-size="18">Contributors</text>
	</g>
</g>
</svg>
